<svg xmlns="http://www.w3.org/2000/svg" width="44" height="21" viewBox="0 0 44 21">
    <path fill="#F7296E" fill-rule="evenodd" d="M33.402 0C39.243 0 43.995 4.7 43.995 10.474c0 .428-.026.849-.077 1.263H31.412V9.211h9.934c-.614-3.784-3.942-6.685-7.944-6.685-3.484 0-5.973 2.52-8.315 5.724l-1.515-2.213C26.13 2.697 29.087 0 33.402 0zm0 18.422a8.07 8.07 0 0 0 7.073-4.159h2.803c-1.539 3.908-5.385 6.685-9.876 6.685-5.225 0-8.458-3.774-12.17-9.352-3.714-5.578-6.373-9.07-10.634-9.07-4.437 0-8.047 3.566-8.047 7.948 0 4.383 3.61 7.948 8.047 7.948 3.483 0 5.971-2.518 8.312-5.72l1.504 2.227c-2.553 3.332-5.508 6.02-9.816 6.02-5.841 0-10.594-4.7-10.594-10.475C.004 4.7 4.757 0 10.598 0c5.225 0 8.594 3.944 12.163 9.343 3.569 5.4 6.38 9.08 10.641 9.08z"/>
</svg>
