<svg xmlns="http://www.w3.org/2000/svg" width="252" height="271" viewBox="0 0 252 271">
    <defs>
        <linearGradient id="a" x1="50%" x2="50%" y1="100%" y2="0%">
            <stop offset="0%" stop-color="#EDEEF0"/>
            <stop offset="85.963%" stop-color="#EDEEF0"/>
            <stop offset="100%" stop-color="#EDEEF0" stop-opacity="0"/>
        </linearGradient>
    </defs>
    <path fill="url(#a)" fill-rule="evenodd" d="M77.39 108v206.553h221.108V108h15.39v236.747c0 18.778-15.222 34-34 34H96c-18.778 0-34-15.222-34-34V108h15.39zm110.298 254.827c10.766 0 19.494-8.737 19.494-19.515s-8.728-19.515-19.494-19.515c-10.767 0-19.495 8.737-19.495 19.515s8.728 19.515 19.495 19.515zm0-2.054c-9.633 0-17.443-7.818-17.443-17.461 0-9.644 7.81-17.461 17.443-17.461 9.633 0 17.442 7.817 17.442 17.46 0 9.644-7.809 17.462-17.442 17.462z" transform="translate(-62 -108)"/>
</svg>
