<svg xmlns="http://www.w3.org/2000/svg" width="256" height="259" viewBox="0 0 256 259">
    <defs>
        <linearGradient id="a" x1="50%" x2="50%" y1="0%" y2="100%">
            <stop offset="0%" stop-color="#EDEEF0"/>
            <stop offset="85.963%" stop-color="#EDEEF0"/>
            <stop offset="100%" stop-color="#EDEEF0" stop-opacity="0"/>
        </linearGradient>
    </defs>
    <path fill="url(#a)" fill-rule="evenodd" d="M77 372.305H61V309.43c-.585-.207-1-.767-1-1.424V272.51c0-.663.417-1.218 1-1.424v-9.655c-.585-.207-1-.767-1-1.424V224.51c0-.663.417-1.218 1-1.424V199.97c-.585-.206-1-.76-1-1.413v-18.06c0-.647.417-1.204 1-1.411V147c0-18.778 15.222-34 34-34h183.889c18.777 0 34 15.222 34 34v76.13c.187-.084.395-.13.614-.13h.072c.835 0 1.503.676 1.503 1.51v35.497c0 .841-.673 1.51-1.503 1.51h-.072c-.22 0-.427-.047-.614-.13v110.918h-14.78V176H77v196.305zm70.104-222.088a4.106 4.106 0 0 0 4.104-4.109 4.106 4.106 0 0 0-4.104-4.108 4.106 4.106 0 0 0-4.104 4.108 4.106 4.106 0 0 0 4.104 4.109zm40.461-18.081a2.566 2.566 0 0 0 2.565-2.568 2.566 2.566 0 0 0-2.565-2.568 2.566 2.566 0 0 0-2.565 2.568 2.566 2.566 0 0 0 2.565 2.568zM169.063 144a2.054 2.054 0 1 0 0 4.108h36.915a2.054 2.054 0 1 0 0-4.108h-36.915z" transform="translate(-60 -113)"/>
</svg>
