<svg width='200' height='200' fill="#F03C6E" xmlns="http://www.w3.org/2000/svg" data-name="Layer 1" viewBox="0 0 100 100" x="0px" y="0px"><title>63 all</title><path d="M39.71,16.67h-15a8,8,0,0,0-8,8v15a8,8,0,0,0,8,8h15a8,8,0,0,0,8-8v-15A8,8,0,0,0,39.71,16.67Zm0,23h-15v-15h15Z"/><path d="M75.33,16.67h-15a8,8,0,0,0-8,8v15a8,8,0,0,0,8,8h15a8,8,0,0,0,8-8v-15A8,8,0,0,0,75.33,16.67Zm0,23h-15v-15h15Z"/><path d="M39.71,52.28h-15a8,8,0,0,0-8,8v15a8,8,0,0,0,8,8h15a8,8,0,0,0,8-8v-15A8,8,0,0,0,39.71,52.28Zm0,23h-15v-15h15Z"/><path d="M75.33,52.28h-15a8,8,0,0,0-8,8v15a8,8,0,0,0,8,8h15a8,8,0,0,0,8-8v-15A8,8,0,0,0,75.33,52.28Zm0,23h-15v-15h15Z"/></svg>
