<svg width="44" height="46" viewBox="0 0 44 46" xmlns="http://www.w3.org/2000/svg"><g fill-rule="nonzero" fill="#F03C6E"><path d="M37.416 20.624c-.054-.32-.105-.692-.158-1.01-.21-1.065-.58-2.075-1.052-3.087-.158-.372-.367-.692-.526-1.01-.42-.744-.893-1.384-1.419-2.022a17.27 17.27 0 0 0-.947-1.01c-2.524-2.609-6.046-4.151-9.885-4.151-3.838 0-7.36 1.542-9.885 4.097-.316.32-.63.692-.946 1.01-.526.638-.999 1.33-1.42 2.022-.21.32-.367.692-.525 1.01-.473.958-.789 2.022-1.052 3.087-.053.32-.158.692-.158 1.01-.105.692-.158 1.33-.158 2.022 0 .32 0 .692.053 1.01.368 5.32 3.576 9.79 8.15 11.972.316.16.63.266.946.426 1.578.586 3.26.958 5.049.958.684 0 1.368-.054 1.998-.16.368-.054.684-.106.998-.212 3.522-.798 6.572-2.926 8.57-5.799.21-.32.422-.692.631-1.01.368-.638.684-1.33.947-2.022.105-.32.263-.692.368-1.01.316-.958.472-2.022.579-3.087 0-.32.053-.692.053-1.01-.055-.694-.106-1.386-.211-2.024zm-.842 2.022H32.26c-.21.372-.58.692-.998.852-.21.106-.473.16-.736.16a2.009 2.009 0 0 1-1.998-2.022c0-1.118.893-2.022 1.998-2.022.263 0 .526.054.736.16.42.16.788.478.998.852h4.155c.104.636.158 1.328.158 2.02zM23.429 9.344c3.209 0 6.1 1.17 8.413 3.087h-10.2a3.01 3.01 0 0 0-2.26-1.01 3.01 3.01 0 0 0-2.262 1.01h-2.103c2.313-1.917 5.205-3.087 8.413-3.087zm-9.463 4.097h3.68c.21-.372.58-.692.998-.853.21-.106.473-.16.735-.16.263 0 .526.054.736.16.42.16.788.479.998.853h11.78c.58.638 1.105 1.33 1.577 2.022H21.168c-.21.372-.58.692-.998.852-.21.106-.473.16-.735.16-.263 0-.526-.054-.736-.16a1.969 1.969 0 0 1-.998-.852h-5.257c.365-.692.89-1.384 1.521-2.022zm-3.523 7.183h11.988c.58 0 .999.478.999 1.01 0 .534-.473 1.012-.999 1.012H10.285c0-.692.054-1.384.158-2.022zM23.43 35.948c-1.682 0-3.312-.32-4.785-.904a3.528 3.528 0 0 1 3.26-2.182c1.735 0 3.154 1.276 3.47 2.926-.63.106-1.26.16-1.945.16zm11.095-6.119h-8.098c-.579 0-.998-.478-.998-1.01 0-.586.473-1.01.998-1.01h9.097c-.263.69-.63 1.328-.998 2.02zm1.42-3.086h-9.518a2.009 2.009 0 0 0-1.998 2.022c0 1.118.893 2.022 1.998 2.022h7.36c-1.84 2.34-4.415 4.097-7.414 4.789-.42-2.128-2.261-3.779-4.469-3.779-1.893 0-3.47 1.17-4.153 2.767-4.152-1.914-7.044-6.065-7.412-10.908h12.093a2.009 2.009 0 0 0 1.998-2.022 2.009 2.009 0 0 0-1.998-2.022l-11.778.002c.262-1.064.63-2.129 1.156-3.087h5.311a3.01 3.01 0 0 0 2.261 1.01 3.01 3.01 0 0 0 2.262-1.01H35.05c.472.958.893 1.968 1.156 3.087h-3.47a3.01 3.01 0 0 0-2.262-1.01c-1.682 0-3.05 1.384-3.05 3.086s1.368 3.087 3.05 3.087a3.01 3.01 0 0 0 2.261-1.01h3.785a11.953 11.953 0 0 1-.577 2.976z"/><path d="M17.855 25.733c-1.42 0-2.524 1.17-2.524 2.554a2.54 2.54 0 0 0 2.524 2.555c1.42 0 2.524-1.17 2.524-2.555 0-1.438-1.103-2.554-2.524-2.554zm0 4.096a1.534 1.534 0 0 1-1.524-1.542c0-.852.684-1.542 1.524-1.542.842 0 1.524.692 1.524 1.542a1.533 1.533 0 0 1-1.524 1.542zM7.235 9.344a2.009 2.009 0 0 1-1.998-2.022 2.009 2.009 0 0 1-1.999 2.022c1.105 0 1.999.904 1.999 2.023a2.01 2.01 0 0 1 1.998-2.023zM26.48 1.151c-.58 0-.999-.478-.999-1.01 0 .586-.472 1.01-.998 1.01.58 0 .998.478.998 1.01-.053-.532.42-1.01.998-1.01zM43.671 34.938a2.009 2.009 0 0 1-1.998-2.022 2.009 2.009 0 0 1-1.998 2.022c1.105 0 1.998.904 1.998 2.022-.051-1.118.842-2.022 1.998-2.022zM13.335 4.716a.53.53 0 0 1-.526-.532.53.53 0 0 1-.526.532.53.53 0 0 1 .526.532.53.53 0 0 1 .526-.532zM31.525 39.512A.53.53 0 0 1 31 38.98a.53.53 0 0 1-.525.532.53.53 0 0 1 .525.533c0-.267.263-.533.526-.533zM7.235 32.384a.53.53 0 0 1-.526-.532.53.53 0 0 1-.526.532.53.53 0 0 1 .526.532c.054-.32.263-.532.526-.532zM41.622 14.985a.53.53 0 0 1-.526-.532.53.53 0 0 1-.526.532.53.53 0 0 1 .526.532c.052-.32.263-.532.526-.532zM17.383 44.621a.53.53 0 0 1-.526-.532.53.53 0 0 1-.526.532.53.53 0 0 1 .526.533.53.53 0 0 1 .526-.533zM2.189 24.669c-.58 0-.998-.478-.998-1.01 0 .586-.473 1.01-.998 1.01.579 0 .998.478.998 1.01-.002-.532.472-1.01.998-1.01z"/></g></svg>
