<svg width="35" height="26" viewBox="0 0 35 26" xmlns="http://www.w3.org/2000/svg"><g fill-rule="nonzero" fill="#F03C6E"><path d="M13.352 11.277l4.057-1.7c.66-.276 1.704-.276 2.36 0l2.963 1.24c.543.232 1.473.232 2.027.001l2.957-1.24c.66-.278 1.699-.278 2.354 0l4.053 1.7a.452.452 0 1 0 .35-.837l-4.052-1.7c-.88-.372-2.171-.372-3.055 0l-2.956 1.24c-.329.137-1.006.137-1.327.001l-2.964-1.24c-.879-.371-2.174-.371-3.06 0l-4.056 1.698a.454.454 0 0 0 .349.837zM13.352 14.3l4.057-1.699c.66-.277 1.704-.277 2.36 0l2.963 1.24c.543.231 1.473.231 2.027 0l2.957-1.24c.66-.278 1.699-.278 2.354 0l4.053 1.7a.452.452 0 1 0 .35-.837l-4.052-1.7c-.88-.371-2.171-.371-3.055 0l-2.956 1.24c-.329.138-1.006.138-1.327.001l-2.964-1.24c-.879-.371-2.174-.371-3.06 0l-4.056 1.699a.454.454 0 0 0 .349.837z"/><path d="M13.352 17.021l4.057-1.699c.66-.277 1.704-.277 2.36 0l2.963 1.24c.543.231 1.473.231 2.027 0l2.957-1.24c.66-.278 1.699-.278 2.354 0l4.053 1.7a.452.452 0 1 0 .35-.837l-4.052-1.7c-.88-.371-2.171-.371-3.055 0l-2.956 1.24c-.329.138-1.006.138-1.327.001l-2.964-1.24c-.879-.371-2.174-.371-3.06 0l-4.056 1.699a.454.454 0 0 0 .349.836z"/><path d="M12.866 25.695C5.784 25.695.043 19.942.043 12.846S5.784-.003 12.866-.003c7.083 0 12.824 5.753 12.824 12.85 0 7.095-5.741 12.848-12.824 12.848zm0-.907c6.583 0 11.919-5.347 11.919-11.942S19.449.904 12.866.904C6.284.904.948 6.251.948 12.846s5.336 11.942 11.918 11.942z"/><path d="M12.866 23.257c-5.738 0-10.39-4.661-10.39-10.41 0-5.75 4.652-10.411 10.39-10.411 5.739 0 10.39 4.66 10.39 10.41s-4.651 10.41-10.39 10.41zm0-.907c5.239 0 9.485-4.255 9.485-9.504 0-5.248-4.246-9.503-9.485-9.503-5.238 0-9.484 4.255-9.484 9.503 0 5.249 4.246 9.504 9.484 9.504z"/></g></svg>
