<?xml version="1.0" encoding="UTF-8" standalone="no"?>
<svg width="35px" height="26px" viewBox="0 0 35 26" version="1.1" xmlns="http://www.w3.org/2000/svg" xmlns:xlink="http://www.w3.org/1999/xlink">
    <!-- Generator: Sketch 47.1 (45422) - http://www.bohemiancoding.com/sketch -->
    <title>icon/app/notary</title>
    <desc>Created with Sketch.</desc>
    <defs></defs>
    <g id="1-message_wall" stroke="none" stroke-width="1" fill="none" fill-rule="evenodd">
        <g id="1.30-confirm_transaction" transform="translate(-170.000000, -145.000000)" fill="#F03C6E">
            <g id="app/launcher" transform="translate(132.000000, 124.000000)">
                <g id="icon/app/message_wall" transform="translate(30.892308, 9.846154)">
                    <g id="Group-8" transform="translate(7.000000, 11.000000)">
                        <g id="Group-7" fill-rule="nonzero">
                            <path d="M13.4594761,11.4311377 L17.5164868,9.73173535 C18.1775336,9.45500095 19.2208539,9.45500095 19.876441,9.73134273 L22.8393828,10.9717878 C23.3831781,11.2028785 24.3130324,11.2028785 24.8663573,10.9719931 L27.8237141,9.73165704 C28.4836272,9.45391532 29.5223836,9.45391532 30.1776503,9.73111628 L34.2308538,11.4310594 C34.4614265,11.5277632 34.7265806,11.4188684 34.8230919,11.187836 C34.9196033,10.9568037 34.8109251,10.6911211 34.5803524,10.5944173 L30.5284329,8.89501498 C29.6496123,8.52324049 28.3575477,8.52324049 27.4736945,8.89523378 L24.5176172,10.1350337 C24.1886825,10.2722871 23.5116172,10.2722871 23.1905721,10.1358602 L20.2264199,8.89490291 C19.3477186,8.524513 18.0522078,8.524513 17.1674501,8.89489962 L13.1103508,10.5943391 C12.8797349,10.6909395 12.7709382,10.9565734 12.8673465,11.187649 C12.9637548,11.4187245 13.2288602,11.5277381 13.4594761,11.4311377 Z" id="Shape-Copy"></path>
                            <path d="M13.4594761,14.4543935 L17.5164868,12.7549912 C18.1775336,12.4782568 19.2208539,12.4782568 19.876441,12.7545985 L22.8393828,13.9950436 C23.3831781,14.2261343 24.3130324,14.2261343 24.8663573,13.995249 L27.8237141,12.7549129 C28.4836272,12.4771711 29.5223836,12.4771711 30.1776503,12.7543721 L34.2308538,14.4543153 C34.4614265,14.551019 34.7265806,14.4421242 34.8230919,14.2110918 C34.9196033,13.9800595 34.8109251,13.7143769 34.5803524,13.6176731 L30.5284329,11.9182708 C29.6496123,11.5464963 28.3575477,11.5464963 27.4736945,11.9184896 L24.5176172,13.1582895 C24.1886825,13.2955429 23.5116172,13.2955429 23.1905721,13.1591161 L20.2264199,11.9181587 C19.3477186,11.5477688 18.0522078,11.5477688 17.1674501,11.9181554 L13.1103508,13.6175949 C12.8797349,13.7141953 12.7709382,13.9798292 12.8673465,14.2109048 C12.9637548,14.4419804 13.2288602,14.550994 13.4594761,14.4543935 Z" id="Shape-Copy"></path>
                            <path d="M13.4594761,17.1753237 L17.5164868,15.4759214 C18.1775336,15.199187 19.2208539,15.199187 19.876441,15.4755288 L22.8393828,16.7159738 C23.3831781,16.9470645 24.3130324,16.9470645 24.8663573,16.7161792 L27.8237141,15.4758431 C28.4836272,15.1981014 29.5223836,15.1981014 30.1776503,15.4753023 L34.2308538,17.1752455 C34.4614265,17.2719492 34.7265806,17.1630544 34.8230919,16.9320221 C34.9196033,16.7009897 34.8109251,16.4353071 34.5803524,16.3386033 L30.5284329,14.639201 C29.6496123,14.2674265 28.3575477,14.2674265 27.4736945,14.6394198 L24.5176172,15.8792197 C24.1886825,16.0164732 23.5116172,16.0164732 23.1905721,15.8800463 L20.2264199,14.639089 C19.3477186,14.268699 18.0522078,14.268699 17.1674501,14.6390857 L13.1103508,16.3385251 C12.8797349,16.4351256 12.7709382,16.7007595 12.8673465,16.931835 C12.9637548,17.1629106 13.2288602,17.2719242 13.4594761,17.1753237 Z" id="Shape-Copy"></path>
                            <path d="M12.9741379,25.8488372 C5.89203823,25.8488372 0.150862069,20.0962168 0.150862069,13 C0.150862069,5.90378316 5.89203823,0.151162791 12.9741379,0.151162791 C20.0562376,0.151162791 25.7974138,5.90378316 25.7974138,13 C25.7974138,20.0962168 20.0562376,25.8488372 12.9741379,25.8488372 Z M12.9741379,24.9418605 C19.5563247,24.9418605 24.8922414,19.5953074 24.8922414,13 C24.8922414,6.40469258 19.5563247,1.05813953 12.9741379,1.05813953 C6.39195115,1.05813953 1.05603448,6.40469258 1.05603448,13 C1.05603448,19.5953074 6.39195115,24.9418605 12.9741379,24.9418605 Z" id="Oval-3"></path>
                            <path d="M12.9741379,23.4104515 C7.2360424,23.4104515 2.58439689,18.7495336 2.58439689,13 C2.58439689,7.2504664 7.2360424,2.58954851 12.9741379,2.58954851 C18.7122335,2.58954851 23.363879,7.2504664 23.363879,13 C23.363879,18.7495336 18.7122335,23.4104515 12.9741379,23.4104515 Z M12.9741379,22.5034747 C18.2123205,22.5034747 22.4587066,18.2486242 22.4587066,13 C22.4587066,7.75137583 18.2123205,3.49652525 12.9741379,3.49652525 C7.73595532,3.49652525 3.4895693,7.75137583 3.4895693,13 C3.4895693,18.2486242 7.73595532,22.5034747 12.9741379,22.5034747 Z" id="Oval-3"></path>
                        </g>
                    </g>
                </g>
            </g>
        </g>
    </g>
</svg>