<svg xmlns="http://www.w3.org/2000/svg" xmlns:xlink="http://www.w3.org/1999/xlink" width="59" height="59" viewBox="0 0 59 59">
    <defs>
        <rect id="b" width="46.933" height="46.933" rx="10"/>
        <filter id="a" width="138.4%" height="138.4%" x="-19.2%" y="-19.2%" filterUnits="objectBoundingBox">
            <feOffset in="SourceAlpha" result="shadowOffsetOuter1"/>
            <feGaussianBlur in="shadowOffsetOuter1" result="shadowBlurOuter1" stdDeviation="3"/>
            <feColorMatrix in="shadowBlurOuter1" values="0 0 0 0 0 0 0 0 0 0 0 0 0 0 0 0 0 0 0.2 0"/>
        </filter>
        <path id="c" d="M27.409 26.667a.53.53 0 1 1-.751.752l-5.129-5.129a8.795 8.795 0 1 1 2.735-4.58.531.531 0 1 1-1.035-.239 7.676 7.676 0 1 0-2.288 3.926.566.566 0 0 1 .086-.052.531.531 0 0 1 .87-.19l5.512 5.512zm-15.023-6.835a.53.53 0 0 1-.375-.907l6.902-6.903.001-.001a.531.531 0 1 1 .75.752l-6.902 6.903a.53.53 0 0 1-.376.156zm5.152-.936a.53.53 0 0 1-.375-.907l2.966-2.966a.531.531 0 1 1 .751.752l-2.966 2.966a.53.53 0 0 1-.376.155zm-2.778-4.948l-2.587 2.586a.53.53 0 1 1-.75-.75l2.585-2.587a.532.532 0 0 1 .752.751z"/>
    </defs>
    <g fill="none" fill-rule="evenodd">
        <g transform="translate(6 6)">
            <use fill="#000" filter="url(#a)" xlink:href="#b"/>
            <use fill="#FFF" xlink:href="#b"/>
        </g>
        <g transform="translate(12 12)">
            <mask id="d" fill="#fff">
                <use xlink:href="#c"/>
            </mask>
            <use fill="#1E1E1E" xlink:href="#c"/>
            <g fill="#311B58" mask="url(#d)">
                <path d="M0 0h34v34H0z"/>
            </g>
        </g>
    </g>
</svg>
