<svg xmlns="http://www.w3.org/2000/svg" xmlns:xlink="http://www.w3.org/1999/xlink" width="59" height="59" viewBox="0 0 59 59">
    <defs>
        <rect id="b" width="46.933" height="46.933" rx="10"/>
        <filter id="a" width="138.4%" height="138.4%" x="-19.2%" y="-19.2%" filterUnits="objectBoundingBox">
            <feOffset in="SourceAlpha" result="shadowOffsetOuter1"/>
            <feGaussianBlur in="shadowOffsetOuter1" result="shadowBlurOuter1" stdDeviation="3"/>
            <feColorMatrix in="shadowBlurOuter1" values="0 0 0 0 0 0 0 0 0 0 0 0 0 0 0 0 0 0 0.2 0"/>
        </filter>
        <path id="c" d="M23.388 11.166a5.841 5.841 0 0 0-5.817 5.313h-1.116a5.849 5.849 0 1 0-.2 2.125H15.14a4.774 4.774 0 1 1 .248-2.125h-4.75a.531.531 0 1 0 0 1.062h6.933a5.842 5.842 0 1 0 5.817-6.375m-.751 6.375l-1.219 1.218a.531.531 0 0 0 .751.751l2.126-2.125a.531.531 0 0 0 0-.751l-2.125-2.125a.532.532 0 0 0-.752.751l1.219 1.219h-4a4.78 4.78 0 1 1 0 1.062h4z"/>
    </defs>
    <g fill="none" fill-rule="evenodd">
        <g transform="translate(6 6)">
            <use fill="#000" filter="url(#a)" xlink:href="#b"/>
            <use fill="#FFF" xlink:href="#b"/>
        </g>
        <g transform="translate(13 12)">
            <mask id="d" fill="#fff">
                <use xlink:href="#c"/>
            </mask>
            <use fill="#1E1E1E" xlink:href="#c"/>
            <g fill="#F7296E" mask="url(#d)">
                <path d="M0 0h34v34H0z"/>
            </g>
        </g>
    </g>
</svg>
