<svg xmlns="http://www.w3.org/2000/svg" xmlns:xlink="http://www.w3.org/1999/xlink" width="59" height="59" viewBox="0 0 59 59">
    <defs>
        <rect id="b" width="46.933" height="46.933" rx="10"/>
        <filter id="a" width="138.4%" height="138.4%" x="-19.2%" y="-19.2%" filterUnits="objectBoundingBox">
            <feOffset in="SourceAlpha" result="shadowOffsetOuter1"/>
            <feGaussianBlur in="shadowOffsetOuter1" result="shadowBlurOuter1" stdDeviation="3"/>
            <feColorMatrix in="shadowBlurOuter1" values="0 0 0 0 0 0 0 0 0 0 0 0 0 0 0 0 0 0 0.2 0"/>
        </filter>
        <path id="c" d="M15.406 22.313c1.174 0 2.125.95 2.125 2.125v2.125a2.125 2.125 0 0 1-2.125 2.125H6.375a2.125 2.125 0 0 1-2.125-2.125v-2.125c0-1.174.951-2.125 2.125-2.125h9.031zm0 1.062H6.375c-.587 0-1.062.476-1.063 1.063v2.125c.001.586.476 1.061 1.063 1.062h9.031a1.064 1.064 0 0 0 1.063-1.062v-2.125c0-.587-.476-1.062-1.063-1.063zm-1.062 2.656H7.438a.531.531 0 0 1 0-1.062h6.906a.531.531 0 1 1 0 1.062zm13.281-12.219c1.174 0 2.125.952 2.125 2.125v2.125a2.125 2.125 0 0 1-2.125 2.125h-12.75a2.125 2.125 0 0 1-2.125-2.125v-2.125c0-1.173.951-2.125 2.125-2.125h12.75zm0 1.063h-12.75c-.586 0-1.062.476-1.063 1.062v2.125c.001.587.477 1.062 1.063 1.063h12.75c.587 0 1.062-.476 1.063-1.063v-2.125c-.001-.586-.476-1.062-1.063-1.062zm-1.594 2.656H16.47a.531.531 0 0 1 0-1.062h9.562a.53.53 0 1 1 0 1.062zM20.72 5.312c1.173 0 2.125.952 2.125 2.125v2.125a2.125 2.125 0 0 1-2.125 2.125H6.375A2.125 2.125 0 0 1 4.25 9.562V7.437c0-1.173.951-2.125 2.125-2.125h14.344zm0 1.063H6.375c-.587 0-1.062.476-1.063 1.062v2.125c.001.587.476 1.062 1.063 1.063h14.344c.586 0 1.062-.476 1.062-1.063V7.437c0-.586-.476-1.062-1.062-1.062zM7.437 9.03a.531.531 0 0 1 0-1.062h12.22a.531.531 0 1 1 0 1.062H7.436z"/>
    </defs>
    <g fill="none" fill-rule="evenodd">
        <g transform="translate(6 6)">
            <use fill="#000" filter="url(#a)" xlink:href="#b"/>
            <use fill="#FFF" xlink:href="#b"/>
        </g>
        <g transform="translate(12 12)">
            <mask id="d" fill="#fff">
                <use xlink:href="#c"/>
            </mask>
            <use fill="#1E1E1E" xlink:href="#c"/>
            <g fill="#F7296E" mask="url(#d)">
                <path d="M0 0h34v34H0z"/>
            </g>
        </g>
    </g>
</svg>
