<svg xmlns="http://www.w3.org/2000/svg" xmlns:xlink="http://www.w3.org/1999/xlink" width="59" height="59" viewBox="0 0 59 59">
    <defs>
        <rect id="b" width="46.933" height="46.933" rx="10"/>
        <filter id="a" width="138.4%" height="138.4%" x="-19.2%" y="-19.2%" filterUnits="objectBoundingBox">
            <feOffset in="SourceAlpha" result="shadowOffsetOuter1"/>
            <feGaussianBlur in="shadowOffsetOuter1" result="shadowBlurOuter1" stdDeviation="3"/>
            <feColorMatrix in="shadowBlurOuter1" values="0 0 0 0 0 0 0 0 0 0 0 0 0 0 0 0 0 0 0.2 0"/>
        </filter>
        <path id="c" d="M26.194 15.05c-.38-.056-.77-.11-1.158-.162a.114.114 0 0 1-.097-.081 8.218 8.218 0 0 0-.775-1.869.115.115 0 0 1 .011-.127c.24-.31.477-.625.705-.934a1.065 1.065 0 0 0-.104-1.376L23.5 9.225a1.065 1.065 0 0 0-1.377-.104c-.308.228-.622.465-.933.705a.115.115 0 0 1-.127.01 8.189 8.189 0 0 0-1.87-.774.114.114 0 0 1-.08-.098c-.05-.39-.106-.779-.163-1.158a1.063 1.063 0 0 0-1.047-.9h-1.805c-.52 0-.97.387-1.047.9-.057.38-.112.769-.163 1.158a.114.114 0 0 1-.081.097c-.651.18-1.28.44-1.868.775a.115.115 0 0 1-.127-.011c-.312-.24-.626-.477-.934-.705a1.065 1.065 0 0 0-1.377.104L9.225 10.5c-.367.367-.412.96-.104 1.377.23.309.466.623.705.933.03.038.033.088.011.127a8.203 8.203 0 0 0-.774 1.87.115.115 0 0 1-.097.08c-.389.05-.778.106-1.158.163-.514.076-.9.527-.9 1.047v1.805c0 .52.386.97.9 1.047.38.057.77.112 1.158.163a.114.114 0 0 1 .097.081c.18.651.44 1.28.774 1.869.022.04.019.09-.01.127-.24.31-.477.625-.706.934a1.065 1.065 0 0 0 .104 1.376l1.276 1.276c.368.368.96.413 1.377.104.309-.227.622-.465.934-.705a.115.115 0 0 1 .127-.01 8.189 8.189 0 0 0 1.869.774c.043.012.075.05.081.097.05.39.106.779.162 1.158.077.514.527.9 1.048.9h1.805c.52 0 .97-.387 1.047-.9.057-.38.111-.769.162-1.158a.116.116 0 0 1 .082-.098c.651-.18 1.28-.44 1.868-.774a.115.115 0 0 1 .127.01c.311.24.626.478.933.706.418.308 1.01.263 1.377-.104l1.276-1.276c.368-.368.413-.96.104-1.377a58.11 58.11 0 0 0-.705-.934.115.115 0 0 1-.01-.127 8.197 8.197 0 0 0 .774-1.868.114.114 0 0 1 .097-.081c.39-.05.779-.106 1.159-.163.513-.076.9-.526.9-1.047v-1.805c0-.52-.388-.97-.9-1.047h-.001zm-.043 2.852a.117.117 0 0 1-.097.115c-.374.056-.758.11-1.141.16a1.054 1.054 0 0 0-.884.765 7.285 7.285 0 0 1-.686 1.654c-.21.37-.177.829.084 1.168.236.306.47.616.694.92a.116.116 0 0 1-.013.15l-1.276 1.275a.116.116 0 0 1-.15.013 59.845 59.845 0 0 1-.919-.694 1.056 1.056 0 0 0-1.167-.084 7.27 7.27 0 0 1-1.654.685c-.41.113-.71.46-.765.884-.05.384-.105.768-.16 1.141a.116.116 0 0 1-.115.097h-1.805a.117.117 0 0 1-.115-.097c-.056-.373-.11-.757-.16-1.14a1.054 1.054 0 0 0-.765-.884 7.285 7.285 0 0 1-1.654-.685 1.06 1.06 0 0 0-1.168.084c-.306.235-.616.47-.919.693a.116.116 0 0 1-.15-.012L9.89 22.834a.116.116 0 0 1-.012-.15c.224-.303.458-.613.694-.92.26-.338.293-.797.083-1.166a7.27 7.27 0 0 1-.685-1.654c-.113-.41-.46-.71-.884-.766-.383-.05-.767-.104-1.141-.16a.116.116 0 0 1-.097-.114v-1.805c0-.057.042-.107.097-.115.374-.056.758-.11 1.14-.16.424-.055.771-.355.884-.765a7.25 7.25 0 0 1 .685-1.654c.21-.37.178-.828-.083-1.167a66.932 66.932 0 0 1-.694-.92.116.116 0 0 1 .012-.15l1.276-1.275a.116.116 0 0 1 .15-.013c.304.225.613.458.92.694.339.261.797.293 1.167.084a7.27 7.27 0 0 1 1.653-.686c.41-.112.71-.46.766-.884.05-.383.104-.767.16-1.14a.115.115 0 0 1 .115-.097H17.9c.056 0 .106.042.115.097.056.373.11.757.159 1.14.055.425.356.772.766.884.576.16 1.132.39 1.653.686.37.21.828.177 1.167-.084.307-.236.617-.47.92-.694a.116.116 0 0 1 .15.013l1.276 1.276c.04.04.045.104.012.15-.224.304-.458.613-.694.919-.26.339-.293.797-.083 1.167a7.27 7.27 0 0 1 .685 1.654c.113.41.46.71.884.765.383.05.766.104 1.141.16a.116.116 0 0 1 .097.115v1.805l.002-.002zM17 11.535A5.472 5.472 0 0 0 11.535 17 5.471 5.471 0 0 0 17 22.464 5.471 5.471 0 0 0 22.464 17 5.472 5.472 0 0 0 17 11.535zm0 .986a4.471 4.471 0 0 1 4.478 4.48A4.47 4.47 0 0 1 17 21.478 4.471 4.471 0 0 1 12.52 17c0-2.48 2-4.479 4.48-4.479z"/>
    </defs>
    <g fill="none" fill-rule="evenodd">
        <g transform="translate(6 6)">
            <use fill="#000" filter="url(#a)" xlink:href="#b"/>
            <use fill="#FFF" xlink:href="#b"/>
        </g>
        <g transform="translate(12 13)">
            <mask id="d" fill="#fff">
                <use xlink:href="#c"/>
            </mask>
            <use fill="#1E1E1E" xlink:href="#c"/>
            <g fill="#F7296E" mask="url(#d)">
                <path d="M0 0h34v34H0z"/>
            </g>
        </g>
    </g>
</svg>
