<?xml version="1.0" encoding="UTF-8"?>
<svg width="59px" height="59px" viewBox="0 0 59 59" version="1.1" xmlns="http://www.w3.org/2000/svg" xmlns:xlink="http://www.w3.org/1999/xlink">
    <!-- Generator: sketchtool 48.2 (47327) - http://www.bohemiancoding.com/sketch -->
    <title>CD011125-FB93-4648-BFFD-23A8CB5E3560</title>
    <desc>Created with sketchtool.</desc>
    <defs>
        <rect id="path-1" x="0" y="0" width="46.9333333" height="46.9333333" rx="6"></rect>
        <filter x="-19.2%" y="-19.2%" width="138.4%" height="138.4%" filterUnits="objectBoundingBox" id="filter-2">
            <feOffset dx="0" dy="0" in="SourceAlpha" result="shadowOffsetOuter1"></feOffset>
            <feGaussianBlur stdDeviation="3" in="shadowOffsetOuter1" result="shadowBlurOuter1"></feGaussianBlur>
            <feColorMatrix values="0 0 0 0 0   0 0 0 0 0   0 0 0 0 0  0 0 0 0.2 0" type="matrix" in="shadowBlurOuter1"></feColorMatrix>
        </filter>
    </defs>
    <g id="01.04-base-intro-app-browser" stroke="none" stroke-width="1" fill="none" fill-rule="evenodd" transform="translate(-158.000000, -189.000000)">
        <g id="app/launcher" transform="translate(164.000000, 195.000000)">
            <g id="Rectangle-5">
                <use fill="black" fill-opacity="1" filter="url(#filter-2)" xlink:href="#path-1"></use>
                <use fill="#F03C6E" fill-rule="evenodd" xlink:href="#path-1"></use>
            </g>
            <g id="Group-5" transform="translate(13.000000, 13.000000)" fill="#FFFFFF">
                <path d="M13.2782927,6.34146341 L6.72146341,6.34146341 C6.3175122,6.34146341 5.9897561,6.66921951 5.9897561,7.07317073 C5.9897561,7.47712195 6.3175122,7.80487805 6.72146341,7.80487805 L13.2782927,7.80487805 C13.6822439,7.80487805 14.01,7.47712195 14.01,7.07317073 C14.01,6.66921951 13.6822439,6.34146341 13.2782927,6.34146341 Z" id="Fill-1"></path>
                <path d="M13.2782927,9.37780488 L6.72146341,9.37780488 C6.3175122,9.37780488 5.9897561,9.70556098 5.9897561,10.1095122 C5.9897561,10.5134634 6.3175122,10.8412195 6.72146341,10.8412195 L13.2782927,10.8412195 C13.6822439,10.8412195 14.01,10.5134634 14.01,10.1095122 C14.01,9.70556098 13.6822439,9.37780488 13.2782927,9.37780488 Z" id="Fill-2"></path>
                <path d="M9.29317073,12.4046341 L6.72170732,12.4046341 C6.3177561,12.4046341 5.99,12.7323902 5.99,13.1363415 C5.99,13.5402927 6.3177561,13.8680488 6.72170732,13.8680488 L9.29317073,13.8680488 C9.69712195,13.8680488 10.024878,13.5402927 10.024878,13.1363415 C10.024878,12.7323902 9.69712195,12.4046341 9.29317073,12.4046341 Z" id="Fill-3"></path>
                <path d="M9.71219512,0.129560976 C6.52341463,0.223882927 3.5802439,1.86260976 1.82073171,4.52370732 C0.0610243902,7.18370732 -0.296268293,10.5337073 0.863219512,13.5051707 C1.2052439,14.3750244 1.67114634,15.1915366 2.24660976,15.9289512 L1.43487805,17.8363415 L1.43392439,17.8363415 C1.22431951,18.3308049 1.30053902,18.8996098 1.63495366,19.3197561 C1.96841707,19.740878 2.50575854,19.9438054 3.03453902,19.8513907 L6.78551463,19.1949512 C8.12222195,19.6589268 9.54380732,19.825659 10.9508805,19.6827561 C13.2927341,19.4464756 15.4716122,18.3793902 17.0942951,16.6759268 C18.7168073,14.9714634 19.6762463,12.743 19.7981976,10.3925122 C19.9353927,7.66202439 18.9178561,5.00007317 16.9933195,3.05836585 C15.0763927,1.11573171 12.4401488,0.0554390244 9.7123439,0.129585366 L9.71219512,0.129560976 Z M18.3346341,10.3249268 L18.3346341,10.3239732 C18.2336439,12.3256805 17.4190488,14.224461 16.0385122,15.6764122 C14.6579756,17.1283878 12.8029024,18.0373146 10.8097317,18.239339 C9.55402439,18.3612902 8.28582927,18.194561 7.10460976,17.7515341 C6.9836122,17.7067561 6.85212195,17.6943683 6.72446341,17.7172366 L2.78007317,18.4098707 L3.75568293,16.0956512 L3.75568293,16.0947 C3.86905854,15.844139 3.83094878,15.5506756 3.65850244,15.3363098 C1.86447805,13.2345537 1.2270878,10.3811878 1.9578439,7.71533415 C2.6886,5.0504561 4.69125854,2.9202122 7.30662439,2.02655366 C9.92199024,1.13382195 12.8095512,1.59401707 15.0180878,3.25560244 C17.2256,4.9171878 18.4680878,7.56389512 18.3346732,10.3238951 L18.3346341,10.3249268 Z" id="Fill-4"></path>
            </g>
        </g>
    </g>
</svg>