<?xml version="1.0" encoding="UTF-8"?>
<svg width="59px" height="59px" viewBox="0 0 59 59" version="1.1" xmlns="http://www.w3.org/2000/svg" xmlns:xlink="http://www.w3.org/1999/xlink">
    <!-- Generator: sketchtool 48.2 (47327) - http://www.bohemiancoding.com/sketch -->
    <title>9A07ED08-3082-4F06-8517-58F5B4B3CEB7</title>
    <desc>Created with sketchtool.</desc>
    <defs>
        <rect id="path-1" x="0.733333333" y="0.733333333" width="46.9333333" height="46.9333333" rx="6"></rect>
        <filter x="-19.2%" y="-19.2%" width="138.4%" height="138.4%" filterUnits="objectBoundingBox" id="filter-2">
            <feOffset dx="0" dy="0" in="SourceAlpha" result="shadowOffsetOuter1"></feOffset>
            <feGaussianBlur stdDeviation="3" in="shadowOffsetOuter1" result="shadowBlurOuter1"></feGaussianBlur>
            <feColorMatrix values="0 0 0 0 0   0 0 0 0 0   0 0 0 0 0  0 0 0 0.2 0" type="matrix" in="shadowBlurOuter1"></feColorMatrix>
        </filter>
    </defs>
    <g id="01.04-base-intro-app-browser" stroke="none" stroke-width="1" fill="none" fill-rule="evenodd" transform="translate(-92.000000, -189.000000)">
        <g id="app/launcher" transform="translate(97.000000, 194.000000)">
            <g id="Rectangle-5">
                <use fill="black" fill-opacity="1" filter="url(#filter-2)" xlink:href="#path-1"></use>
                <use fill="#00A9D6" fill-rule="evenodd" xlink:href="#path-1"></use>
            </g>
            <g id="Page-1" transform="translate(13.000000, 13.000000)" fill="#FFFFFF">
                <path d="M9.78586139,11.4602574 L3.38233663,11.4602574 C3.02412871,11.4602574 2.73311881,11.1692693 2.73311881,10.8110396 C2.73311881,10.4528317 3.02410693,10.1618218 3.38233663,10.1618218 L9.78586139,10.1618218 C10.1440693,10.1618218 10.4350792,10.4528099 10.4350792,10.8110396 C10.4350792,11.1692475 10.1440911,11.4602574 9.78586139,11.4602574 Z" id="Fill-1"></path>
                <path d="M11.8194455,4.6670495 L3.38233663,4.6670495 C3.02412871,4.6670495 2.73311881,4.37691089 2.73311881,4.01783168 C2.73311881,3.65962376 3.02410693,3.36946337 3.38233663,3.36946337 L11.8194455,3.36946337 C12.1776535,3.36946337 12.4678139,3.65960198 12.4678139,4.01783168 C12.4678139,4.37688911 12.1776752,4.6670495 11.8194455,4.6670495 Z" id="Fill-2"></path>
                <path d="M14.5012673,13.7968317 L6.06415842,13.7968317 L6.06500792,13.7968317 C5.7059505,13.7968317 5.4157901,13.5058436 5.4157901,13.1476139 C5.4157901,12.7893842 5.70592871,12.498396 6.06500792,12.498396 L14.5021168,12.498396 L14.5012673,12.498396 C14.8603248,12.498396 15.1504851,12.7893842 15.1504851,13.1476139 C15.1504851,13.5058436 14.8603465,13.7968317 14.5012673,13.7968317 Z" id="Fill-3"></path>
                <path d="M18.7420396,17.9931683 L10.3049307,17.9931683 C9.94672277,17.9931683 9.65571287,17.7030297 9.65571287,17.3439505 C9.65571287,16.9857426 9.94670099,16.6955822 10.3049307,16.6955822 L18.7420396,16.6955822 C19.1002475,16.6955822 19.3912574,16.9857208 19.3912574,17.3439505 C19.3912574,17.7030079 19.1002693,17.9931683 18.7420396,17.9931683 Z" id="Fill-4"></path>
                <path d="M6.45384158,17.9931683 L3.38211881,17.9931683 C3.02391089,17.9931683 2.73290099,17.7030297 2.73290099,17.3439505 C2.73290099,16.9857426 3.02388911,16.6955822 3.38211881,16.6955822 L6.45384158,16.6955822 C6.81289901,16.6955822 7.10305941,16.9857208 7.10305941,17.3439505 C7.10305941,17.7030079 6.81292079,17.9931683 6.45384158,17.9931683 Z" id="Fill-5"></path>
                <path d="M10.8910891,21.7821782 C8.00233663,21.7821782 5.23207921,20.6352158 3.19,18.5921782 C1.1470715,16.550099 0,13.7796238 0,10.8910891 C0,8.00255446 1.14696238,5.23273267 3.19,3.19 C5.94087129,0.438257426 9.95184158,-0.635386139 13.7101386,0.371168317 C17.4684356,1.37859406 20.4046733,4.31417822 21.4112277,8.07225743 C22.4186535,11.8314257 21.3440101,15.8415248 18.592396,18.5932673 C16.5545644,20.6421424 13.7815842,21.7908909 10.8913069,21.7823957 L10.8910891,21.7821782 Z M10.8910891,1.29843564 C8.34693069,1.29758396 5.90667327,2.3084099 4.10790099,4.10790099 C2.30832277,5.9066297 1.29756414,8.34693069 1.29756414,10.8910891 C1.29756414,13.4352475 2.30838812,15.875505 4.10790099,17.6742772 C6.53116832,20.0984158 10.0631485,21.0446334 13.3738218,20.1570099 C16.684495,19.2704099 19.2702574,16.6847129 20.1570099,13.3738218 C21.0444594,10.0631485 20.0983004,6.53116832 17.6742772,4.10790099 C15.879796,2.30235446 13.4369901,1.29059406 10.8910891,1.29843564 Z" id="Fill-6"></path>
            </g>
        </g>
    </g>
</svg>