<?xml version="1.0" encoding="UTF-8"?>
<svg width="59px" height="59px" viewBox="0 0 59 59" version="1.1" xmlns="http://www.w3.org/2000/svg" xmlns:xlink="http://www.w3.org/1999/xlink">
    <!-- Generator: sketchtool 48.2 (47327) - http://www.bohemiancoding.com/sketch -->
    <title>B45D4A42-2AD0-4AAC-BA7E-C1B878E7762E</title>
    <desc>Created with sketchtool.</desc>
    <defs>
        <rect id="path-1" x="0.733333333" y="0.733333333" width="46.9333333" height="46.9333333" rx="6"></rect>
        <filter x="-19.2%" y="-19.2%" width="138.4%" height="138.4%" filterUnits="objectBoundingBox" id="filter-2">
            <feOffset dx="0" dy="0" in="SourceAlpha" result="shadowOffsetOuter1"></feOffset>
            <feGaussianBlur stdDeviation="3" in="shadowOffsetOuter1" result="shadowBlurOuter1"></feGaussianBlur>
            <feColorMatrix values="0 0 0 0 0   0 0 0 0 0   0 0 0 0 0  0 0 0 0.2 0" type="matrix" in="shadowBlurOuter1"></feColorMatrix>
        </filter>
    </defs>
    <g id="01.04-base-intro-app-browser" stroke="none" stroke-width="1" fill="none" fill-rule="evenodd" transform="translate(-225.000000, -189.000000)">
        <g id="app/launcher" transform="translate(230.000000, 194.000000)">
            <g id="Rectangle-5">
                <use fill="black" fill-opacity="1" filter="url(#filter-2)" xlink:href="#path-1"></use>
                <use fill="#F5A623" fill-rule="evenodd" xlink:href="#path-1"></use>
            </g>
            <path d="M18.143744,14 L31.0398432,14.0000576 C31.4236064,14.0000576 31.679856,14.2875456 31.7123552,14.6400576 L31.7123552,28.5926976 L31.711104,32.5600576 C31.711104,32.9125568 31.423616,33.2000576 31.071104,33.2000576 L18.623744,33.2000576 C17.183744,33.2000576 16,32.0163136 16,30.5763136 L16,30.480064 L16,16.143744 C16,14.96 16.96,14 18.143744,14 Z M25.152704,15.28 L25.152704,19.34368 L25.88896,18.799936 C26.0164544,18.7049344 26.1452032,18.6724352 26.272704,18.6724352 C26.4001984,18.6724352 26.5601984,18.7036864 26.656448,18.799936 L27.392704,19.34368 L27.392704,15.28 L25.152704,15.28 Z M30.400064,31.92 L30.400064,29.232512 L18.592704,29.232512 C17.856448,29.232512 17.24896,29.84 17.24896,30.576256 C17.24896,31.312512 17.856448,31.92 18.592704,31.92 L30.400064,31.92 Z M18.592704,27.95264 L30.3675968,27.95264 L30.3675968,15.28 L28.6401088,15.28 L28.6401088,20.59264 C28.6401088,20.848896 28.5113472,21.0726464 28.2875968,21.168896 C28.0625728,21.2651456 27.807584,21.2326464 27.6150848,21.1051456 L26.2388288,20.1126336 L24.8625728,21.1051456 C24.7350784,21.2001472 24.6063296,21.2326464 24.4788288,21.2326464 C24.3838272,21.2326464 24.2875776,21.2013952 24.191328,21.168896 C23.9663168,21.040128 23.838816,20.8488896 23.838816,20.59264 L23.838816,15.28 L18.1114528,15.28 C17.631456,15.28 17.247712,15.663744 17.247712,16.143744 L17.24896,28.336384 C17.632704,28.0801408 18.112704,27.95264 18.592704,27.95264 Z" id="Page-1" fill="#FFFFFF"></path>
        </g>
    </g>
</svg>