<?xml version="1.0" encoding="UTF-8"?>
<svg width="73px" height="82px" viewBox="0 0 73 82" version="1.1" xmlns="http://www.w3.org/2000/svg" xmlns:xlink="http://www.w3.org/1999/xlink">
    <!-- Generator: sketchtool 48.2 (47327) - http://www.bohemiancoding.com/sketch -->
    <title>F706F129-C482-4AD6-8D50-4CB46BCED97B</title>
    <desc>Created with sketchtool.</desc>
    <defs></defs>
    <g id="01.00-base-intro-welcome" stroke="none" stroke-width="1" fill="none" fill-rule="evenodd" transform="translate(-265.000000, -188.000000)">
        <g id="Cube" transform="translate(265.000000, 172.000000)" fill="#D9D3E9">
            <path d="M36,56.6990291 L72.1456311,36.1456311 L72.1456311,70.1154909 C72.1456311,73.6591337 70.2702193,76.9381349 67.2158323,78.7348331 L36,97.0970874 L36,56.6990291 Z" id="Rectangle-6"></path>
            <path d="M0,56.6990291 L36.1456311,36.1456311 L36.1456311,70.1154909 C36.1456311,73.6591337 34.2702193,76.9381349 31.2158323,78.7348331 L0,97.0970874 L0,56.6990291 Z" id="Rectangle-6" transform="translate(18.072816, 66.621359) scale(-1, 1) translate(-18.072816, -66.621359) "></path>
            <path d="M26.9094819,19.8338555 L61.5624458,10.5624458 L50.7975366,50.7975366 L10.5624458,61.5624458 L19.8338555,26.9094819 C20.7579298,23.4556478 23.4556478,20.7579298 26.9094819,19.8338555 Z" id="Rectangle-7" transform="translate(36.062446, 36.062446) rotate(45.000000) translate(-36.062446, -36.062446) "></path>
        </g>
    </g>
</svg>