<?xml version="1.0" encoding="UTF-8"?>
<svg width="278px" height="260px" viewBox="0 0 278 260" version="1.1" xmlns="http://www.w3.org/2000/svg" xmlns:xlink="http://www.w3.org/1999/xlink">
    <!-- Generator: sketchtool 53.1 (72631) - https://sketchapp.com -->
    <title>73210F5E-DCBD-4259-B44D-227DCAD4B04A</title>
    <desc>Created with sketchtool.</desc>
    <defs>
        <path d="M2.59717988,0.755144817 L73.1627287,0.755144817 C74.2672982,0.755144817 75.1627287,1.65057532 75.1627287,2.75514482 L75.1627287,130.968009 C75.1627287,132.072578 74.2672982,132.968009 73.1627287,132.968009 L2.59717988,132.968009 C1.49261038,132.968009 0.597179878,132.072578 0.597179878,130.968009 L0.597179878,2.75514482 C0.597179878,1.65057532 1.49261038,0.755144817 2.59717988,0.755144817 Z" id="path-1"></path>
        <filter x="-32.2%" y="-18.2%" width="164.4%" height="136.3%" filterUnits="objectBoundingBox" id="filter-2">
            <feOffset dx="0" dy="0" in="SourceAlpha" result="shadowOffsetOuter1"></feOffset>
            <feGaussianBlur stdDeviation="8" in="shadowOffsetOuter1" result="shadowBlurOuter1"></feGaussianBlur>
            <feColorMatrix values="0 0 0 0 0.105882353   0 0 0 0 0.266666667   0 0 0 0 0.474509804  0 0 0 0.15 0" type="matrix" in="shadowBlurOuter1"></feColorMatrix>
        </filter>
        <rect id="path-3" x="0" y="0" width="75" height="131.859392" rx="2"></rect>
        <filter x="-32.0%" y="-18.2%" width="164.0%" height="136.4%" filterUnits="objectBoundingBox" id="filter-4">
            <feOffset dx="0" dy="0" in="SourceAlpha" result="shadowOffsetOuter1"></feOffset>
            <feGaussianBlur stdDeviation="8" in="shadowOffsetOuter1" result="shadowBlurOuter1"></feGaussianBlur>
            <feColorMatrix values="0 0 0 0 0.105882353   0 0 0 0 0.266666667   0 0 0 0 0.474509804  0 0 0 0.15 0" type="matrix" in="shadowBlurOuter1"></feColorMatrix>
        </filter>
        <rect id="path-5" x="0" y="0" width="112" height="228.301829" rx="16"></rect>
        <filter x="-21.4%" y="-10.5%" width="142.9%" height="121.0%" filterUnits="objectBoundingBox" id="filter-6">
            <feOffset dx="0" dy="0" in="SourceAlpha" result="shadowOffsetOuter1"></feOffset>
            <feGaussianBlur stdDeviation="8" in="shadowOffsetOuter1" result="shadowBlurOuter1"></feGaussianBlur>
            <feColorMatrix values="0 0 0 0 0.105882353   0 0 0 0 0.266666667   0 0 0 0 0.474509804  0 0 0 0.15 0" type="matrix" in="shadowBlurOuter1"></feColorMatrix>
        </filter>
    </defs>
    <g id="BaseApp-0.6.x" stroke="none" stroke-width="1" fill="none" fill-rule="evenodd">
        <g id="v0.6.x-00.03-Onboarding" transform="translate(-46.000000, -95.000000)">
            <g id="Group-9" transform="translate(61.000000, 111.000000)">
                <g id="Group-4" transform="translate(0.000000, 50.000000)">
                    <g id="Rectangle-12-Copy-2">
                        <use fill="black" fill-opacity="1" filter="url(#filter-2)" xlink:href="#path-1"></use>
                        <use fill="#FFFFFF" fill-rule="evenodd" xlink:href="#path-1"></use>
                    </g>
                    <path d="M2.46575342,46.25 L69.5342466,46.25" id="Line-Copy-5" stroke="#EDF3F7" stroke-linecap="square"></path>
                    <text id="Tys-ing-Copy-2" font-family="BLOKKNeue-Regular, BLOKK Neue" font-size="9" font-weight="normal" fill="#D3DCE6">
                        <tspan x="17" y="39">Tys </tspan>
                        <tspan x="17" y="45">ing</tspan>
                    </text>
                    <path d="M2.46575342,63.25 L69.5342466,63.25" id="Line-Copy-6" stroke="#EDF3F7" stroke-linecap="square"></path>
                    <text id="Tys-ing-Copy-3" font-family="BLOKKNeue-Regular, BLOKK Neue" font-size="9" font-weight="normal" fill="#D3DCE6">
                        <tspan x="17" y="57">Tys </tspan>
                        <tspan x="17" y="63">ing</tspan>
                    </text>
                    <path d="M2.46575342,81.25 L69.5342466,81.25" id="Line-Copy-7" stroke="#EDF3F7" stroke-linecap="square"></path>
                    <text id="Tys-ing-Copy-4" font-family="BLOKKNeue-Regular, BLOKK Neue" font-size="9" font-weight="normal" fill="#D3DCE6">
                        <tspan x="17" y="75">Tys </tspan>
                        <tspan x="17" y="81">ing</tspan>
                    </text>
                    <path d="M2.46575342,99.25 L69.5342466,99.25" id="Line-Copy-8" stroke="#EDF3F7" stroke-linecap="square"></path>
                    <text id="Tys-ing-Copy-5" font-family="BLOKKNeue-Regular, BLOKK Neue" font-size="9" font-weight="normal" fill="#D3DCE6">
                        <tspan x="17" y="93">Tys </tspan>
                        <tspan x="17" y="99">ing</tspan>
                    </text>
                    <path d="M2.46575342,116.25 L69.5342466,116.25" id="Line-Copy-9" stroke="#EDF3F7" stroke-linecap="square"></path>
                    <text id="Tys-ing-Copy-6" font-family="BLOKKNeue-Regular, BLOKK Neue" font-size="9" font-weight="normal" fill="#D3DCE6">
                        <tspan x="17" y="110">Tys </tspan>
                        <tspan x="17" y="116">ing</tspan>
                    </text>
                    <text id="Tys-ing-Copy-7" font-family="BLOKKNeue-Regular, BLOKK Neue" font-size="9" font-weight="normal" fill="#D3DCE6">
                        <tspan x="17" y="128">Tys </tspan>
                        <tspan x="17" y="134">ing</tspan>
                    </text>
                    <path d="M3,1 L74,1 C75.1045695,1 76,1.8954305 76,3 L76,29 L1,29 L1,3 C1,1.8954305 1.8954305,1 3,1 Z" id="Rectangle-15" fill="#D3DCE6"></path>
                </g>
                <g id="Group-6" transform="translate(172.000000, 51.000000)">
                    <g id="Group-5">
                        <path d="M13.0774648,112.478873 L61.9225352,112.478873 C65.002884,112.478873 67.5,114.975989 67.5,118.056338 L67.5,118.056338 C67.5,121.136687 65.002884,123.633803 61.9225352,123.633803 L13.0774648,123.633803 C9.99711604,123.633803 7.5,121.136687 7.5,118.056338 L7.5,118.056338 C7.5,114.975989 9.99711604,112.478873 13.0774648,112.478873 Z" id="Rectangle-Copy" fill="#D3DCE6"></path>
                        <path d="M4.21875,16.9647887 L71.71875,16.9647887" id="Line-Copy" stroke="#EDF3F7" stroke-linecap="square"></path>
                        <text id="Tys-ing" font-family="BLOKKNeue-Regular, BLOKK Neue" font-size="9" font-weight="normal" fill="#D3DCE6">
                            <tspan x="18.75" y="10.2253521">Tys </tspan>
                            <tspan x="18.75" y="16.2253521">ing</tspan>
                        </text>
                        <g id="Rectangle-12-Copy">
                            <use fill="black" fill-opacity="1" filter="url(#filter-4)" xlink:href="#path-3"></use>
                            <use fill="#FFFFFF" fill-rule="evenodd" xlink:href="#path-3"></use>
                        </g>
                        <path d="M13.5,105.971831 L41.2975352,105.971831 C44.377884,105.971831 46.875,108.468947 46.875,111.549296 L46.875,111.549296 C46.875,114.629645 44.377884,117.126761 41.2975352,117.126761 L7.5,117.126761 L7.5,111.971831 C7.5,108.658122 10.1862915,105.971831 13.5,105.971831 Z" id="Rectangle" fill="#D3DCE6"></path>
                        <path d="M13.5,42.7605634 L40.875,42.7605634 C44.1887085,42.7605634 46.875,45.4468549 46.875,48.7605634 L46.875,70.2253521 C46.875,73.5390606 44.1887085,76.2253521 40.875,76.2253521 L7.5,76.2253521 L7.5,48.7605634 C7.5,45.4468549 10.1862915,42.7605634 13.5,42.7605634 Z" id="Rectangle-Copy-2" fill="#D3DCE6"></path>
                        <path d="M34.125,79.943662 L61.5,79.943662 C64.8137085,79.943662 67.5,82.6299535 67.5,85.943662 L67.5,96.2535211 C67.5,99.5672296 64.8137085,102.253521 61.5,102.253521 L28.125,102.253521 L28.125,85.943662 C28.125,82.6299535 30.8112915,79.943662 34.125,79.943662 Z" id="Rectangle-Copy-4" fill="#D3DCE6" transform="translate(47.812500, 91.098592) scale(-1, 1) translate(-47.812500, -91.098592) "></path>
                        <path d="M34.125,27.8873239 L61.9225352,27.8873239 C65.002884,27.8873239 67.5,30.38444 67.5,33.4647887 L67.5,33.4647887 C67.5,36.5451375 65.002884,39.0422535 61.9225352,39.0422535 L28.125,39.0422535 L28.125,33.8873239 C28.125,30.5736154 30.8112915,27.8873239 34.125,27.8873239 Z" id="Rectangle-Copy-3" fill="#D3DCE6" transform="translate(47.812500, 33.464789) scale(-1, 1) translate(-47.812500, -33.464789) "></path>
                        <path d="M4.21875,16.9647887 L71.71875,16.9647887" id="Line-Copy" stroke="#EDF3F7" stroke-linecap="square"></path>
                        <text id="Tys-ing" font-family="BLOKKNeue-Regular, BLOKK Neue" font-size="9" font-weight="normal" line-spacing="5" fill="#D3DCE6">
                            <tspan x="18.75" y="9.22535211">Tys </tspan>
                            <tspan x="18.75" y="14.2253521">ing</tspan>
                        </text>
                        <ellipse id="Oval-9-Copy-3" fill="#D3DCE6" cx="9.375" cy="8.36619718" rx="5.625" ry="5.57746479"></ellipse>
                    </g>
                </g>
                <g id="Group-7" transform="translate(71.000000, 0.000000)">
                    <g id="Group-3">
                        <g id="Rectangle-10">
                            <use fill="black" fill-opacity="1" filter="url(#filter-6)" xlink:href="#path-5"></use>
                            <use fill="#FFFFFF" fill-rule="evenodd" xlink:href="#path-5"></use>
                        </g>
                        <path d="M9,27.5 C8.17157288,27.5 7.5,28.1715729 7.5,29 L7.5,199.542683 C7.5,200.37111 8.17157288,201.042683 9,201.042683 L103,201.042683 C103.828427,201.042683 104.5,200.37111 104.5,199.542683 L104.5,29 C104.5,28.1715729 103.828427,27.5 103,27.5 L9,27.5 Z" id="Rectangle-12" stroke="#FF0D6A" fill="#FF0D6A"></path>
                        <g id="Group-8" transform="translate(17.000000, 91.000000)" fill="#D12869">
                            <rect id="Rectangle-3-Copy" x="0" y="0" width="19" height="19" rx="3"></rect>
                            <rect id="Rectangle-3-Copy" x="30" y="0" width="19" height="19" rx="3"></rect>
                            <rect id="Rectangle-3-Copy" x="60" y="0" width="19" height="19" rx="3"></rect>
                        </g>
                        <ellipse id="Oval-4" stroke="#EDF3F7" cx="55.762993" cy="214.740093" rx="8.76299304" ry="8.74009323"></ellipse>
                    </g>
                    <g id="Group-6" transform="translate(13.000000, 124.000000)">
                        <rect id="Rectangle-3-Copy" fill="#D12869" x="0" y="1" width="9" height="9" rx="2"></rect>
                        <text id="oming" font-family="BLOKKNeue-Regular, BLOKK Neue" font-size="8" font-weight="normal" fill="#D12869">
                            <tspan x="14" y="5">oming</tspan>
                        </text>
                        <text id="Tys-oming-Copy-3" font-family="BLOKKNeue-Regular, BLOKK Neue" font-size="7" font-weight="normal" fill="#D12869">
                            <tspan x="14" y="10">Tys </tspan>
                            <tspan x="14" y="14">oming</tspan>
                        </text>
                        <rect id="Rectangle-3-Copy" fill="#D12869" x="0" y="20" width="9" height="9" rx="2"></rect>
                        <text id="oming" font-family="BLOKKNeue-Regular, BLOKK Neue" font-size="8" font-weight="normal" fill="#D12869">
                            <tspan x="14" y="24">oming</tspan>
                        </text>
                        <text id="Tys-oming-Copy-3" font-family="BLOKKNeue-Regular, BLOKK Neue" font-size="7" font-weight="normal" fill="#D12869">
                            <tspan x="14" y="29">Tys </tspan>
                            <tspan x="14" y="33">oming</tspan>
                        </text>
                        <rect id="Rectangle-3-Copy" fill="#D12869" x="0" y="40" width="9" height="9" rx="2"></rect>
                        <text id="oming" font-family="BLOKKNeue-Regular, BLOKK Neue" font-size="8" font-weight="normal" fill="#D12869">
                            <tspan x="14" y="44">oming</tspan>
                        </text>
                        <text id="Tys-oming-Copy-3" font-family="BLOKKNeue-Regular, BLOKK Neue" font-size="7" font-weight="normal" fill="#D12869">
                            <tspan x="14" y="49">Tys </tspan>
                            <tspan x="14" y="53">oming</tspan>
                        </text>
                        <path d="M0.590844131,35.5 L86.8072599,35.5" id="Line-Copy" stroke="#E72B6E" stroke-linecap="square"></path>
                        <path d="M0.590844131,14.5 L86.8072599,14.5" id="Line-Copy-2" stroke="#E72B6E" stroke-linecap="square"></path>
                    </g>
                    <path d="M9,27 L103,27 C104.104569,27 105,27.8954305 105,29 L105,81 L7,81 L7,29 C7,27.8954305 7.8954305,27 9,27 Z" id="Rectangle-15" fill="#E72B6E"></path>
                    <path d="M61.8036682,34.0469471 C59.7629435,34.0469471 58.3641612,35.3220359 57.1552435,36.9018294 L57.8716253,37.9482824 C58.9791029,36.4333288 60.1560729,35.2413694 61.8036682,35.2413694 C63.6961729,35.2413694 65.2698853,36.6131994 65.5604918,38.4027876 L60.8624612,38.4027876 L60.8624612,39.5972647 L66.77668,39.5972647 C66.8009264,39.3991068 66.8131152,39.1996593 66.8131788,39.0000235 C66.8131788,36.2688829 64.56592,34.0469471 61.8036682,34.0469471" id="Shape" fill="#BD2A67"></path>
                    <path d="M61.8036682,42.7585771 C59.7887612,42.7585771 58.4592665,41.0184006 56.7715618,38.4652012 C55.0838571,35.9120018 53.4908082,34.0469471 51.0199088,34.0469471 C48.2576088,34.0469471 46.0103506,36.2688829 46.0103506,39.0000235 C46.0103506,41.7311176 48.2576088,43.9530529 51.0199088,43.9530529 C53.0570265,43.9530529 54.45452,42.6823647 55.66195,41.10643 L54.9508141,40.0532535 C53.8436318,41.5675129 52.6669082,42.7585776 51.0199088,42.7585776 C48.9215612,42.7585776 47.2144676,41.0725065 47.2144676,39.0000241 C47.2144676,36.9275418 48.9215612,35.2413712 51.0199088,35.2413712 C53.0347671,35.2413712 54.29255,36.8929306 56.0482559,39.5305953 C57.8039618,42.16826 59.3327212,43.9530535 61.8036676,43.9530535 C63.8614541,43.9568723 65.7128736,42.7036012 66.4738553,40.7916894 L65.1481765,40.7916894 C64.4747475,42.0074918 63.1935182,42.7609768 61.8036706,42.7585776" id="Shape" fill="#BD2A67"></path>
                    <path d="M15,50 L98,50 C99.1045695,50 100,50.8954305 100,52 L100,63 C100,64.1045695 99.1045695,65 98,65 L15,65 C13.8954305,65 13,64.1045695 13,63 L13,52 C13,50.8954305 13.8954305,50 15,50 Z" id="Rectangle-2" fill="#FF0D6A"></path>
                    <text id="æpp-url" font-family="InterUI-Regular, Inter UI" font-size="6" font-weight="normal" fill="#BD2A67">
                        <tspan x="18.2040327" y="60.6678959">æpp url</tspan>
                    </text>
                </g>
            </g>
        </g>
    </g>
</svg>
