<?xml version="1.0" encoding="UTF-8"?>
<svg viewBox="0 0 278 260" version="1.1" xmlns="http://www.w3.org/2000/svg" xmlns:xlink="http://www.w3.org/1999/xlink">
    <!-- Generator: Sketch 55.1 (78136) - https://sketchapp.com -->
    <title>Group 9</title>
    <desc>Created with Sketch.</desc>
    <defs>
        <path d="M2.59717988,0.755144817 L73.1627287,0.755144817 C74.2672982,0.755144817 75.1627287,1.65057532 75.1627287,2.75514482 L75.1627287,130.968009 C75.1627287,132.072578 74.2672982,132.968009 73.1627287,132.968009 L2.59717988,132.968009 C1.49261038,132.968009 0.597179878,132.072578 0.597179878,130.968009 L0.597179878,2.75514482 C0.597179878,1.65057532 1.49261038,0.755144817 2.59717988,0.755144817 Z" id="path-1"></path>
        <filter x="-32.2%" y="-18.2%" width="164.4%" height="136.3%" filterUnits="objectBoundingBox" id="filter-2">
            <feOffset dx="0" dy="0" in="SourceAlpha" result="shadowOffsetOuter1"></feOffset>
            <feGaussianBlur stdDeviation="8" in="shadowOffsetOuter1" result="shadowBlurOuter1"></feGaussianBlur>
            <feColorMatrix values="0 0 0 0 0.105882353   0 0 0 0 0.266666667   0 0 0 0 0.474509804  0 0 0 0.15 0" type="matrix" in="shadowBlurOuter1"></feColorMatrix>
        </filter>
        <rect id="path-3" x="0" y="0" width="75" height="131.859392" rx="2"></rect>
        <filter x="-32.0%" y="-18.2%" width="164.0%" height="136.4%" filterUnits="objectBoundingBox" id="filter-4">
            <feOffset dx="0" dy="0" in="SourceAlpha" result="shadowOffsetOuter1"></feOffset>
            <feGaussianBlur stdDeviation="8" in="shadowOffsetOuter1" result="shadowBlurOuter1"></feGaussianBlur>
            <feColorMatrix values="0 0 0 0 0.105882353   0 0 0 0 0.266666667   0 0 0 0 0.474509804  0 0 0 0.15 0" type="matrix" in="shadowBlurOuter1"></feColorMatrix>
        </filter>
        <rect id="path-5" x="0" y="0" width="112" height="228.301829" rx="16"></rect>
        <filter x="-21.4%" y="-10.5%" width="142.9%" height="121.0%" filterUnits="objectBoundingBox" id="filter-6">
            <feOffset dx="0" dy="0" in="SourceAlpha" result="shadowOffsetOuter1"></feOffset>
            <feGaussianBlur stdDeviation="8" in="shadowOffsetOuter1" result="shadowBlurOuter1"></feGaussianBlur>
            <feColorMatrix values="0 0 0 0 0.105882353   0 0 0 0 0.266666667   0 0 0 0 0.474509804  0 0 0 0.15 0" type="matrix" in="shadowBlurOuter1"></feColorMatrix>
        </filter>
    </defs>
    <g id="BaseApp-0.6.x" stroke="none" stroke-width="1" fill="none" fill-rule="evenodd">
        <g id="v0.6.x-00.03-Onboarding" transform="translate(-46.000000, -95.000000)">
            <g id="Group-9" transform="translate(61.000000, 111.000000)">
                <g id="Group-4" transform="translate(0.000000, 50.000000)">
                    <g id="Rectangle-12-Copy-2">
                        <use fill="black" fill-opacity="1" filter="url(#filter-2)" xlink:href="#path-1"></use>
                        <use fill="#FFFFFF" fill-rule="evenodd" xlink:href="#path-1"></use>
                    </g>
                    <path d="M2.46575342,46.25 L69.5342466,46.25" id="Line-Copy-5" stroke="#EDF3F7" stroke-linecap="square"></path>
                    <path d="M17,39 L17,35.1328162 L22.8007757,35.1328162 L22.8007757,39 L17,39 Z M22.625,39 L22.625,35.1328162 L28.4257757,35.1328162 L28.4257757,39 L22.625,39 Z M28.25,39 L28.25,35.1328162 L34.0507757,35.1328162 L34.0507757,39 L28.25,39 Z M17,45 L17,41.1328162 L22.8007757,41.1328162 L22.8007757,45 L17,45 Z M22.625,45 L22.625,41.1328162 L28.4257757,41.1328162 L28.4257757,45 L22.625,45 Z M28.25,45 L28.25,41.1328162 L34.0507757,41.1328162 L34.0507757,45 L28.25,45 Z" id="Tysing" fill="#D3DCE6" fill-rule="nonzero"></path>
                    <path d="M2.46575342,63.25 L69.5342466,63.25" id="Line-Copy-6" stroke="#EDF3F7" stroke-linecap="square"></path>
                    <path d="M17,57 L17,53.1328162 L22.8007757,53.1328162 L22.8007757,57 L17,57 Z M22.625,57 L22.625,53.1328162 L28.4257757,53.1328162 L28.4257757,57 L22.625,57 Z M28.25,57 L28.25,53.1328162 L34.0507757,53.1328162 L34.0507757,57 L28.25,57 Z M17,63 L17,59.1328162 L22.8007757,59.1328162 L22.8007757,63 L17,63 Z M22.625,63 L22.625,59.1328162 L28.4257757,59.1328162 L28.4257757,63 L22.625,63 Z M28.25,63 L28.25,59.1328162 L34.0507757,59.1328162 L34.0507757,63 L28.25,63 Z" id="Tysing" fill="#D3DCE6" fill-rule="nonzero"></path>
                    <path d="M2.46575342,81.25 L69.5342466,81.25" id="Line-Copy-7" stroke="#EDF3F7" stroke-linecap="square"></path>
                    <path d="M17,75 L17,71.1328162 L22.8007757,71.1328162 L22.8007757,75 L17,75 Z M22.625,75 L22.625,71.1328162 L28.4257757,71.1328162 L28.4257757,75 L22.625,75 Z M28.25,75 L28.25,71.1328162 L34.0507757,71.1328162 L34.0507757,75 L28.25,75 Z M17,81 L17,77.1328162 L22.8007757,77.1328162 L22.8007757,81 L17,81 Z M22.625,81 L22.625,77.1328162 L28.4257757,77.1328162 L28.4257757,81 L22.625,81 Z M28.25,81 L28.25,77.1328162 L34.0507757,77.1328162 L34.0507757,81 L28.25,81 Z" id="Tysing" fill="#D3DCE6" fill-rule="nonzero"></path>
                    <path d="M2.46575342,99.25 L69.5342466,99.25" id="Line-Copy-8" stroke="#EDF3F7" stroke-linecap="square"></path>
                    <path d="M17,93 L17,89.1328162 L22.8007757,89.1328162 L22.8007757,93 L17,93 Z M22.625,93 L22.625,89.1328162 L28.4257757,89.1328162 L28.4257757,93 L22.625,93 Z M28.25,93 L28.25,89.1328162 L34.0507757,89.1328162 L34.0507757,93 L28.25,93 Z M17,99 L17,95.1328162 L22.8007757,95.1328162 L22.8007757,99 L17,99 Z M22.625,99 L22.625,95.1328162 L28.4257757,95.1328162 L28.4257757,99 L22.625,99 Z M28.25,99 L28.25,95.1328162 L34.0507757,95.1328162 L34.0507757,99 L28.25,99 Z" id="Tysing" fill="#D3DCE6" fill-rule="nonzero"></path>
                    <path d="M2.46575342,116.25 L69.5342466,116.25" id="Line-Copy-9" stroke="#EDF3F7" stroke-linecap="square"></path>
                    <path d="M17,110 L17,106.132816 L22.8007757,106.132816 L22.8007757,110 L17,110 Z M22.625,110 L22.625,106.132816 L28.4257757,106.132816 L28.4257757,110 L22.625,110 Z M28.25,110 L28.25,106.132816 L34.0507757,106.132816 L34.0507757,110 L28.25,110 Z M17,116 L17,112.132816 L22.8007757,112.132816 L22.8007757,116 L17,116 Z M22.625,116 L22.625,112.132816 L28.4257757,112.132816 L28.4257757,116 L22.625,116 Z M28.25,116 L28.25,112.132816 L34.0507757,112.132816 L34.0507757,116 L28.25,116 Z" id="Tysing" fill="#D3DCE6" fill-rule="nonzero"></path>
                    <path d="M17,128 L17,124.132816 L22.8007757,124.132816 L22.8007757,128 L17,128 Z M22.625,128 L22.625,124.132816 L28.4257757,124.132816 L28.4257757,128 L22.625,128 Z M28.25,128 L28.25,124.132816 L34.0507757,124.132816 L34.0507757,128 L28.25,128 Z M17,134 L17,130.132816 L22.8007757,130.132816 L22.8007757,134 L17,134 Z M22.625,134 L22.625,130.132816 L28.4257757,130.132816 L28.4257757,134 L22.625,134 Z M28.25,134 L28.25,130.132816 L34.0507757,130.132816 L34.0507757,134 L28.25,134 Z" id="Tysing" fill="#D3DCE6" fill-rule="nonzero"></path>
                    <path d="M3,1 L74,1 C75.1045695,1 76,1.8954305 76,3 L76,29 L1,29 L1,3 C1,1.8954305 1.8954305,1 3,1 Z" id="Rectangle-15" fill="#D3DCE6"></path>
                </g>
                <g id="Group-6" transform="translate(172.000000, 51.000000)">
                    <g id="Group-5">
                        <path d="M13.0774648,112.478873 L61.9225352,112.478873 C65.002884,112.478873 67.5,114.975989 67.5,118.056338 C67.5,121.136687 65.002884,123.633803 61.9225352,123.633803 L13.0774648,123.633803 C9.99711604,123.633803 7.5,121.136687 7.5,118.056338 C7.5,114.975989 9.99711604,112.478873 13.0774648,112.478873 Z" id="Rectangle-Copy" fill="#D3DCE6"></path>
                        <path d="M4.21875,16.9647887 L71.71875,16.9647887" id="Line-Copy" stroke="#EDF3F7" stroke-linecap="square"></path>
                        <path d="M18.75,10.2253521 L18.75,6.3581683 L24.5507757,6.3581683 L24.5507757,10.2253521 L18.75,10.2253521 Z M24.375,10.2253521 L24.375,6.3581683 L30.1757757,6.3581683 L30.1757757,10.2253521 L24.375,10.2253521 Z M30,10.2253521 L30,6.3581683 L35.8007757,6.3581683 L35.8007757,10.2253521 L30,10.2253521 Z M18.75,16.2253521 L18.75,12.3581683 L24.5507757,12.3581683 L24.5507757,16.2253521 L18.75,16.2253521 Z M24.375,16.2253521 L24.375,12.3581683 L30.1757757,12.3581683 L30.1757757,16.2253521 L24.375,16.2253521 Z M30,16.2253521 L30,12.3581683 L35.8007757,12.3581683 L35.8007757,16.2253521 L30,16.2253521 Z" id="Tysing" fill="#D3DCE6" fill-rule="nonzero"></path>
                        <g id="Rectangle-12-Copy">
                            <use fill="black" fill-opacity="1" filter="url(#filter-4)" xlink:href="#path-3"></use>
                            <use fill="#FFFFFF" fill-rule="evenodd" xlink:href="#path-3"></use>
                        </g>
                        <path d="M13.5,105.971831 L41.2975352,105.971831 C44.377884,105.971831 46.875,108.468947 46.875,111.549296 C46.875,114.629645 44.377884,117.126761 41.2975352,117.126761 L7.5,117.126761 L7.5,111.971831 C7.5,108.658122 10.1862915,105.971831 13.5,105.971831 Z" id="Rectangle" fill="#D3DCE6"></path>
                        <path d="M13.5,42.7605634 L40.875,42.7605634 C44.1887085,42.7605634 46.875,45.4468549 46.875,48.7605634 L46.875,70.2253521 C46.875,73.5390606 44.1887085,76.2253521 40.875,76.2253521 L7.5,76.2253521 L7.5,48.7605634 C7.5,45.4468549 10.1862915,42.7605634 13.5,42.7605634 Z" id="Rectangle-Copy-2" fill="#D3DCE6"></path>
                        <path d="M34.125,79.943662 L61.5,79.943662 C64.8137085,79.943662 67.5,82.6299535 67.5,85.943662 L67.5,96.2535211 C67.5,99.5672296 64.8137085,102.253521 61.5,102.253521 L28.125,102.253521 L28.125,85.943662 C28.125,82.6299535 30.8112915,79.943662 34.125,79.943662 Z" id="Rectangle-Copy-4" fill="#D3DCE6" transform="translate(47.812500, 91.098592) scale(-1, 1) translate(-47.812500, -91.098592) "></path>
                        <path d="M34.125,27.8873239 L61.9225352,27.8873239 C65.002884,27.8873239 67.5,30.38444 67.5,33.4647887 C67.5,36.5451375 65.002884,39.0422535 61.9225352,39.0422535 L28.125,39.0422535 L28.125,33.8873239 C28.125,30.5736154 30.8112915,27.8873239 34.125,27.8873239 Z" id="Rectangle-Copy-3" fill="#D3DCE6" transform="translate(47.812500, 33.464789) scale(-1, 1) translate(-47.812500, -33.464789) "></path>
                        <path d="M4.21875,16.9647887 L71.71875,16.9647887" id="Line-Copy" stroke="#EDF3F7" stroke-linecap="square"></path>
                        <path d="M18.75,8.22535211 L18.75,4.3581683 L24.5507757,4.3581683 L24.5507757,8.22535211 L18.75,8.22535211 Z M24.375,8.22535211 L24.375,4.3581683 L30.1757757,4.3581683 L30.1757757,8.22535211 L24.375,8.22535211 Z M30,8.22535211 L30,4.3581683 L35.8007757,4.3581683 L35.8007757,8.22535211 L30,8.22535211 Z M18.75,13.2253521 L18.75,9.3581683 L24.5507757,9.3581683 L24.5507757,13.2253521 L18.75,13.2253521 Z M24.375,13.2253521 L24.375,9.3581683 L30.1757757,9.3581683 L30.1757757,13.2253521 L24.375,13.2253521 Z M30,13.2253521 L30,9.3581683 L35.8007757,9.3581683 L35.8007757,13.2253521 L30,13.2253521 Z" id="Tysing" fill="#D3DCE6" fill-rule="nonzero"></path>
                        <ellipse id="Oval-9-Copy-3" fill="#D3DCE6" cx="9.375" cy="8.36619718" rx="5.625" ry="5.57746479"></ellipse>
                    </g>
                </g>
                <g id="Group-7" transform="translate(71.000000, 0.000000)">
                    <g id="Group-3">
                        <g id="Rectangle-10">
                            <use fill="black" fill-opacity="1" filter="url(#filter-6)" xlink:href="#path-5"></use>
                            <use fill="#FFFFFF" fill-rule="evenodd" xlink:href="#path-5"></use>
                        </g>
                        <path d="M9,27.5 C8.17157288,27.5 7.5,28.1715729 7.5,29 L7.5,199.542683 C7.5,200.37111 8.17157288,201.042683 9,201.042683 L103,201.042683 C103.828427,201.042683 104.5,200.37111 104.5,199.542683 L104.5,29 C104.5,28.1715729 103.828427,27.5 103,27.5 L9,27.5 Z" id="Rectangle-12" stroke="#FF0D6A" fill="#FF0D6A"></path>
                        <g id="Group-8" transform="translate(17.000000, 91.000000)" fill="#D12869">
                            <rect id="Rectangle-3-Copy" x="0" y="0" width="19" height="19" rx="3"></rect>
                            <rect id="Rectangle-3-Copy" x="30" y="0" width="19" height="19" rx="3"></rect>
                            <rect id="Rectangle-3-Copy" x="60" y="0" width="19" height="19" rx="3"></rect>
                        </g>
                        <ellipse id="Oval-4" stroke="#EDF3F7" cx="55.762993" cy="214.740093" rx="8.76299304" ry="8.74009323"></ellipse>
                    </g>
                    <g id="Group-6" transform="translate(13.000000, 124.000000)">
                        <rect id="Rectangle-3-Copy" fill="#D12869" x="0" y="1" width="9" height="9" rx="2"></rect>
                        <path d="M14,5 L14,1.56250328 L19.1562451,1.56250328 L19.1562451,5 L14,5 Z M19,5 L19,1.56250328 L24.1562451,1.56250328 L24.1562451,5 L19,5 Z M24,5 L24,1.56250328 L29.1562451,1.56250328 L29.1562451,5 L24,5 Z M29,5 L29,1.56250328 L34.1562451,1.56250328 L34.1562451,5 L29,5 Z M34,5 L34,1.56250328 L39.1562451,1.56250328 L39.1562451,5 L34,5 Z" id="oming" fill="#D12869" fill-rule="nonzero"></path>
                        <path d="M14,10 L14,6.99219037 L18.5117144,6.99219037 L18.5117144,10 L14,10 Z M18.375,10 L18.375,6.99219037 L22.8867144,6.99219037 L22.8867144,10 L18.375,10 Z M22.75,10 L22.75,6.99219037 L27.2617144,6.99219037 L27.2617144,10 L22.75,10 Z M14,14 L14,10.9921904 L18.5117144,10.9921904 L18.5117144,14 L14,14 Z M18.375,14 L18.375,10.9921904 L22.8867144,10.9921904 L22.8867144,14 L18.375,14 Z M22.75,14 L22.75,10.9921904 L27.2617144,10.9921904 L27.2617144,14 L22.75,14 Z M27.125,14 L27.125,10.9921904 L31.6367144,10.9921904 L31.6367144,14 L27.125,14 Z M31.5,14 L31.5,10.9921904 L36.0117144,10.9921904 L36.0117144,14 L31.5,14 Z" id="Tysoming" fill="#D12869" fill-rule="nonzero"></path>
                        <rect id="Rectangle-3-Copy" fill="#D12869" x="0" y="20" width="9" height="9" rx="2"></rect>
                        <path d="M14,24 L14,20.5625033 L19.1562451,20.5625033 L19.1562451,24 L14,24 Z M19,24 L19,20.5625033 L24.1562451,20.5625033 L24.1562451,24 L19,24 Z M24,24 L24,20.5625033 L29.1562451,20.5625033 L29.1562451,24 L24,24 Z M29,24 L29,20.5625033 L34.1562451,20.5625033 L34.1562451,24 L29,24 Z M34,24 L34,20.5625033 L39.1562451,20.5625033 L39.1562451,24 L34,24 Z" id="oming" fill="#D12869" fill-rule="nonzero"></path>
                        <path d="M14,29 L14,25.9921904 L18.5117144,25.9921904 L18.5117144,29 L14,29 Z M18.375,29 L18.375,25.9921904 L22.8867144,25.9921904 L22.8867144,29 L18.375,29 Z M22.75,29 L22.75,25.9921904 L27.2617144,25.9921904 L27.2617144,29 L22.75,29 Z M14,33 L14,29.9921904 L18.5117144,29.9921904 L18.5117144,33 L14,33 Z M18.375,33 L18.375,29.9921904 L22.8867144,29.9921904 L22.8867144,33 L18.375,33 Z M22.75,33 L22.75,29.9921904 L27.2617144,29.9921904 L27.2617144,33 L22.75,33 Z M27.125,33 L27.125,29.9921904 L31.6367144,29.9921904 L31.6367144,33 L27.125,33 Z M31.5,33 L31.5,29.9921904 L36.0117144,29.9921904 L36.0117144,33 L31.5,33 Z" id="Tysoming" fill="#D12869" fill-rule="nonzero"></path>
                        <rect id="Rectangle-3-Copy" fill="#D12869" x="0" y="40" width="9" height="9" rx="2"></rect>
                        <path d="M14,44 L14,40.5625033 L19.1562451,40.5625033 L19.1562451,44 L14,44 Z M19,44 L19,40.5625033 L24.1562451,40.5625033 L24.1562451,44 L19,44 Z M24,44 L24,40.5625033 L29.1562451,40.5625033 L29.1562451,44 L24,44 Z M29,44 L29,40.5625033 L34.1562451,40.5625033 L34.1562451,44 L29,44 Z M34,44 L34,40.5625033 L39.1562451,40.5625033 L39.1562451,44 L34,44 Z" id="oming" fill="#D12869" fill-rule="nonzero"></path>
                        <path d="M14,49 L14,45.9921904 L18.5117144,45.9921904 L18.5117144,49 L14,49 Z M18.375,49 L18.375,45.9921904 L22.8867144,45.9921904 L22.8867144,49 L18.375,49 Z M22.75,49 L22.75,45.9921904 L27.2617144,45.9921904 L27.2617144,49 L22.75,49 Z M14,53 L14,49.9921904 L18.5117144,49.9921904 L18.5117144,53 L14,53 Z M18.375,53 L18.375,49.9921904 L22.8867144,49.9921904 L22.8867144,53 L18.375,53 Z M22.75,53 L22.75,49.9921904 L27.2617144,49.9921904 L27.2617144,53 L22.75,53 Z M27.125,53 L27.125,49.9921904 L31.6367144,49.9921904 L31.6367144,53 L27.125,53 Z M31.5,53 L31.5,49.9921904 L36.0117144,49.9921904 L36.0117144,53 L31.5,53 Z" id="Tysoming" fill="#D12869" fill-rule="nonzero"></path>
                        <path d="M0.590844131,35.5 L86.8072599,35.5" id="Line-Copy" stroke="#E72B6E" stroke-linecap="square"></path>
                        <path d="M0.590844131,14.5 L86.8072599,14.5" id="Line-Copy-2" stroke="#E72B6E" stroke-linecap="square"></path>
                    </g>
                    <path d="M9,27 L103,27 C104.104569,27 105,27.8954305 105,29 L105,81 L7,81 L7,29 C7,27.8954305 7.8954305,27 9,27 Z" id="Rectangle-15" fill="#E72B6E"></path>
                    <path d="M61.8036682,34.0469471 C59.7629435,34.0469471 58.3641612,35.3220359 57.1552435,36.9018294 L57.8716253,37.9482824 C58.9791029,36.4333288 60.1560729,35.2413694 61.8036682,35.2413694 C63.6961729,35.2413694 65.2698853,36.6131994 65.5604918,38.4027876 L60.8624612,38.4027876 L60.8624612,39.5972647 L66.77668,39.5972647 C66.8009264,39.3991068 66.8131788,39.1996593 66.8131788,39.0000235 C66.8131788,36.2688829 64.56592,34.0469471 61.8036682,34.0469471" id="Shape" fill="#BD2A67"></path>
                    <path d="M61.8036682,42.7585771 C59.7887612,42.7585771 58.4592665,41.0184006 56.7715618,38.4652012 C55.0838571,35.9120018 53.4908082,34.0469471 51.0199088,34.0469471 C48.2576088,34.0469471 46.0103506,36.2688829 46.0103506,39.0000235 C46.0103506,41.7311176 48.2576088,43.9530622 51.0199088,43.9530622 C53.0570265,43.9530622 54.45452,42.6823647 55.66195,41.10643 L54.9508141,40.0532535 C53.8436318,41.5675129 52.6669082,42.7585776 51.0199088,42.7585776 C48.9215612,42.7585776 47.2144676,41.0725065 47.2144676,39.0000241 C47.2144676,36.9275418 48.9215612,35.2413712 51.0199088,35.2413712 C53.0347671,35.2413712 54.29255,36.8929306 56.0482559,39.5305953 C57.8039618,42.16826 59.3327212,43.9530622 61.8036676,43.9530622 C63.8614541,43.9568723 65.7128736,42.7036012 66.4738553,40.7916894 L65.1481765,40.7916894 C64.4747475,42.0074918 63.1935182,42.7609768 61.8036706,42.7585776" id="Shape" fill="#BD2A67"></path>
                    <path d="M15,50 L98,50 C99.1045695,50 100,50.8954305 100,52 L100,63 C100,64.1045695 99.1045695,65 98,65 L15,65 C13.8954305,65 13,64.1045695 13,63 L13,52 C13,50.8954305 13.8954305,50 15,50 Z" id="Rectangle-2" fill="#FF0D6A"></path>
                    <text id="æpp-url" font-family="Helvetica" font-size="6" font-weight="normal" fill="#BD2A67">
                        <tspan x="18.2040327" y="59.6678959">æpp url</tspan>
                    </text>
                </g>
            </g>
        </g>
    </g>
</svg>
