<svg xmlns="http://www.w3.org/2000/svg" xmlns:xlink="http://www.w3.org/1999/xlink" width="226" height="271" viewBox="0 0 226 271">
    <defs>
        <path id="b" d="M16 0h80c8.837 0 16 7.163 16 16v196.81c0 8.836-7.163 16-16 16H16c-8.837 0-16-7.164-16-16V16C0 7.163 7.163 0 16 0z"/>
        <filter id="a" width="142.9%" height="121%" x="-21.4%" y="-10.5%" filterUnits="objectBoundingBox">
            <feOffset in="SourceAlpha" result="shadowOffsetOuter1"/>
            <feGaussianBlur in="shadowOffsetOuter1" result="shadowBlurOuter1" stdDeviation="8"/>
            <feColorMatrix in="shadowBlurOuter1" values="0 0 0 0 0.105882353 0 0 0 0 0.266666667 0 0 0 0 0.474509804 0 0 0 0.15 0"/>
        </filter>
        <rect id="d" width="112" height="228.302" rx="16"/>
        <filter id="c" width="142.9%" height="121%" x="-21.4%" y="-10.5%" filterUnits="objectBoundingBox">
            <feOffset in="SourceAlpha" result="shadowOffsetOuter1"/>
            <feGaussianBlur in="shadowOffsetOuter1" result="shadowBlurOuter1" stdDeviation="8"/>
            <feColorMatrix in="shadowBlurOuter1" values="0 0 0 0 0.105882353 0 0 0 0 0.266666667 0 0 0 0 0.474509804 0 0 0 0.15 0"/>
        </filter>
    </defs>
    <g fill="none" fill-rule="evenodd">
        <path fill="#D8D8D8" stroke="#979797" d="M139.32 94.608l5.22.92-.173.985-5.22-.92z"/>
        <g transform="rotate(10 -23.016 593.632)">
            <use fill="#000" filter="url(#a)" xlink:href="#b"/>
            <use fill="#FFF" xlink:href="#b"/>
        </g>
        <path fill="#FF0D6A" d="M106.856 41.463l92.826 16.368a2 2 0 0 1 1.622 2.317l-29.612 167.937a2 2 0 0 1-2.317 1.622L76.55 213.34a2 2 0 0 1-1.623-2.316L104.54 43.086a2 2 0 0 1 2.317-1.623z"/>
        <path fill="#D12869" d="M91.838 185.95l44.71 7.884a6 6 0 0 1 4.867 6.95l-.712 4.039a6 6 0 0 1-6.95 4.867l-50.62-8.926 1.754-9.947a6 6 0 0 1 6.951-4.866zM107.397 97.712l44.71 7.883a6 6 0 0 1 4.867 6.951l-6.182 35.06a6 6 0 0 1-6.95 4.866l-50.62-8.925 7.224-40.968a6 6 0 0 1 6.95-4.867zM170.467 162.143c4.46.786 7.463 4.896 6.708 9.179l-4.103 23.266-48.452-8.544c-4.46-.786-7.463-4.896-6.708-9.179l2.735-15.51c.755-4.284 4.983-7.118 9.443-6.332l40.377 7.12zM183.23 89.76c4.46.786 7.45 4.972 6.678 9.35l-1.398 7.929-48.453-8.544c-4.46-.786-7.45-4.973-6.677-9.352.772-4.378 5.013-7.29 9.473-6.503l40.377 7.12z"/>
        <g fill="#D12869" transform="rotate(10 -213.34 649.541)">
            <circle cx="7" cy="7" r="7"/>
            <text font-family="BLOKKNeue-Regular, BLOKK Neue" font-size="11">
                <tspan x="18.2" y="10.15">Tycesom</tspan> <tspan x="18.2" y="17.15">ing</tspan>
            </text>
        </g>
        <g>
            <g transform="rotate(-10 197.73 -57.38)">
                <use fill="#000" filter="url(#c)" xlink:href="#d"/>
                <use fill="#FFF" xlink:href="#d"/>
                <path fill="#FF0D6A" stroke="#FF0D6A" d="M9 27.5A1.5 1.5 0 0 0 7.5 29v170.543a1.5 1.5 0 0 0 1.5 1.5h94a1.5 1.5 0 0 0 1.5-1.5V29a1.5 1.5 0 0 0-1.5-1.5H9z"/>
                <g fill="#D12869" transform="translate(17 91)">
                    <rect width="19" height="19" rx="3"/>
                    <rect width="19" height="19" x="30" rx="3"/>
                    <rect width="19" height="19" x="60" rx="3"/>
                </g>
                <ellipse cx="55.763" cy="214.74" stroke="#EDF3F7" rx="8.763" ry="8.74"/>
            </g>
            <g transform="rotate(-10 899.894 -193.676)">
                <rect width="9" height="9" y="1" fill="#D12869" rx="2"/>
                <text fill="#D12869" font-family="BLOKKNeue-Regular, BLOKK Neue" font-size="8">
                    <tspan x="14" y="5">oming</tspan>
                </text>
                <text fill="#D12869" font-family="BLOKKNeue-Regular, BLOKK Neue" font-size="7">
                    <tspan x="14" y="10">Tys </tspan> <tspan x="14" y="14">oming</tspan>
                </text>
                <rect width="9" height="9" y="20" fill="#D12869" rx="2"/>
                <text fill="#D12869" font-family="BLOKKNeue-Regular, BLOKK Neue" font-size="8">
                    <tspan x="14" y="24">oming</tspan>
                </text>
                <text fill="#D12869" font-family="BLOKKNeue-Regular, BLOKK Neue" font-size="7">
                    <tspan x="14" y="29">Tys </tspan> <tspan x="14" y="33">oming</tspan>
                </text>
                <rect width="9" height="9" y="40" fill="#D12869" rx="2"/>
                <text fill="#D12869" font-family="BLOKKNeue-Regular, BLOKK Neue" font-size="8">
                    <tspan x="14" y="44">oming</tspan>
                </text>
                <text fill="#D12869" font-family="BLOKKNeue-Regular, BLOKK Neue" font-size="7">
                    <tspan x="14" y="49">Tys </tspan> <tspan x="14" y="53">oming</tspan>
                </text>
                <path stroke="#E72B6E" stroke-linecap="square" d="M.59 35.5h86.217M.59 14.5h86.217"/>
            </g>
            <path fill="#E72B6E" d="M26.52 58.49l92.572-16.322a2 2 0 0 1 2.317 1.622l9.03 51.21-96.512 17.018-9.03-51.21a2 2 0 0 1 1.623-2.317z"/>
            <path fill="#BD2A67" d="M79.745 56.261c-2.01.355-3.166 1.853-4.082 3.62l.887.905c.828-1.684 1.78-3.062 3.402-3.348 1.864-.329 3.652.749 4.25 2.46l-4.628.817.208 1.176 5.824-1.027a4.93 4.93 0 0 0-.068-.595c-.474-2.69-3.073-4.487-5.793-4.008"/>
            <path fill="#BD2A67" d="M81.258 64.84c-1.985.35-3.596-1.132-5.701-3.354-2.106-2.221-3.999-3.781-6.432-3.352-2.72.48-4.548 3.058-4.073 5.748.474 2.69 3.073 4.487 5.793 4.008 2.006-.354 3.162-1.848 4.077-3.61l-.883-.914c-.827 1.684-1.78 3.061-3.401 3.347-2.067.365-4.04-1-4.4-3.04-.36-2.041 1.028-3.998 3.094-4.363 1.985-.35 3.51 1.058 5.697 3.351 2.187 2.293 4.003 3.785 6.436 3.356a5.017 5.017 0 0 0 4.05-3.924l-1.305.23a3.816 3.816 0 0 1-2.952 2.518"/>
            <path fill="#FF0D6A" d="M36.423 80.1l81.739-14.413a2 2 0 0 1 2.317 1.622l1.91 10.833a2 2 0 0 1-1.623 2.317L39.027 94.872a2 2 0 0 1-2.317-1.623L34.8 82.416a2 2 0 0 1 1.623-2.317z"/>
            <text fill="#BD2A67" font-family="InterUI-Regular, Inter UI" font-size="6" transform="rotate(-10 197.73 -57.38)">
                <tspan x="18.204" y="59.668">æpp url</tspan>
            </text>
        </g>
    </g>
</svg>
