<?xml version="1.0" encoding="UTF-8"?>
<svg viewBox="0 0 226 271" version="1.1" xmlns="http://www.w3.org/2000/svg" xmlns:xlink="http://www.w3.org/1999/xlink">
    <!-- Generator: Sketch 55.1 (78136) - https://sketchapp.com -->
    <title>Group 10</title>
    <desc>Created with Sketch.</desc>
    <defs>
        <path d="M16,0 L96,0 C104.836556,6.22518934e-15 112,7.163444 112,16 L112,212.809816 C112,221.646372 104.836556,228.809816 96,228.809816 L16,228.809816 C7.163444,228.809816 1.082166e-15,221.646372 0,212.809816 L0,16 C-1.082166e-15,7.163444 7.163444,1.623249e-15 16,0 Z" id="path-1"></path>
        <filter x="-21.4%" y="-10.5%" width="142.9%" height="121.0%" filterUnits="objectBoundingBox" id="filter-2">
            <feOffset dx="0" dy="0" in="SourceAlpha" result="shadowOffsetOuter1"></feOffset>
            <feGaussianBlur stdDeviation="8" in="shadowOffsetOuter1" result="shadowBlurOuter1"></feGaussianBlur>
            <feColorMatrix values="0 0 0 0 0.105882353   0 0 0 0 0.266666667   0 0 0 0 0.474509804  0 0 0 0.15 0" type="matrix" in="shadowBlurOuter1"></feColorMatrix>
        </filter>
        <rect id="path-3" x="0" y="0" width="112" height="228.301829" rx="16"></rect>
        <filter x="-21.4%" y="-10.5%" width="142.9%" height="121.0%" filterUnits="objectBoundingBox" id="filter-4">
            <feOffset dx="0" dy="0" in="SourceAlpha" result="shadowOffsetOuter1"></feOffset>
            <feGaussianBlur stdDeviation="8" in="shadowOffsetOuter1" result="shadowBlurOuter1"></feGaussianBlur>
            <feColorMatrix values="0 0 0 0 0.105882353   0 0 0 0 0.266666667   0 0 0 0 0.474509804  0 0 0 0.15 0" type="matrix" in="shadowBlurOuter1"></feColorMatrix>
        </filter>
    </defs>
    <g id="BaseApp-0.6.x" stroke="none" stroke-width="1" fill="none" fill-rule="evenodd">
        <g id="v0.6.x-00.01-Onboarding" transform="translate(-75.000000, -89.000000)">
            <g id="Group-10" transform="translate(87.000000, 102.000000)">
                <g id="Group-5" transform="translate(126.000000, 122.500000) rotate(10.000000) translate(-126.000000, -122.500000) translate(70.000000, 8.000000)">
                    <rect id="Rectangle" stroke="#979797" fill="#D8D8D8" x="50.2" y="74" width="5.3" height="1"></rect>
                    <g id="Group-9">
                        <g id="Group-3">
                            <g id="Rectangle-10">
                                <use fill="black" fill-opacity="1" filter="url(#filter-2)" xlink:href="#path-1"></use>
                                <use fill="#FFFFFF" fill-rule="evenodd" xlink:href="#path-1"></use>
                            </g>
                            <path d="M9,27.3 L103.257669,27.3 C104.362238,27.3 105.257669,28.1954305 105.257669,29.3 L105.257669,199.827607 C105.257669,200.932177 104.362238,201.827607 103.257669,201.827607 L9,201.827607 C7.8954305,201.827607 7,200.932177 7,199.827607 L7,29.3 C7,28.1954305 7.8954305,27.3 9,27.3 Z" id="Rectangle-12" fill="#FF0D6A"></path>
                            <path d="M19.3,172.2 L64.7,172.2 C68.0137085,172.2 70.7,174.886292 70.7,178.2 L70.7,182.3 C70.7,185.613708 68.0137085,188.3 64.7,188.3 L13.3,188.3 L13.3,178.2 C13.3,174.886292 15.9862915,172.2 19.3,172.2 Z" id="Rectangle" fill="#D12869"></path>
                            <path d="M19.3,82.6 L64.7,82.6 C68.0137085,82.6 70.7,85.2862915 70.7,88.6 L70.7,124.2 C70.7,127.513708 68.0137085,130.2 64.7,130.2 L13.3,130.2 L13.3,88.6 C13.3,85.2862915 15.9862915,82.6 19.3,82.6 Z" id="Rectangle-Copy-2" fill="#D12869"></path>
                            <path d="M92.6,135.1 C97.1287349,135.1 100.8,138.625758 100.8,142.975 L100.8,166.6 L51.6,166.6 C47.0712651,166.6 43.4,163.074242 43.4,158.725 L43.4,142.975 C43.4,138.625758 47.0712651,135.1 51.6,135.1 L92.6,135.1 Z" id="Rectangle-Copy-4" fill="#D12869"></path>
                            <path d="M92.6,61.6 C97.1287349,61.6 100.8,65.2041078 100.8,69.65 L100.8,77.7 L51.6,77.7 C47.0712651,77.7 43.4,74.0958922 43.4,69.65 C43.4,65.2041078 47.0712651,61.6 51.6,61.6 L92.6,61.6 Z" id="Rectangle-Copy-3" fill="#D12869"></path>
                            <g id="Group-4" transform="translate(12.600000, 32.200000)" fill="#D12869">
                                <circle id="Oval-9" cx="7" cy="7" r="7"></circle>
                                <path d="M18.2,10.15 L18.2,5.42344201 L25.289837,5.42344201 L25.289837,10.15 L18.2,10.15 Z M25.075,10.15 L25.075,5.42344201 L32.164837,5.42344201 L32.164837,10.15 L25.075,10.15 Z M31.95,10.15 L31.95,5.42344201 L39.039837,5.42344201 L39.039837,10.15 L31.95,10.15 Z M38.825,10.15 L38.825,5.42344201 L45.914837,5.42344201 L45.914837,10.15 L38.825,10.15 Z M45.7,10.15 L45.7,5.42344201 L52.789837,5.42344201 L52.789837,10.15 L45.7,10.15 Z M52.575,10.15 L52.575,5.42344201 L59.664837,5.42344201 L59.664837,10.15 L52.575,10.15 Z M59.45,10.15 L59.45,5.42344201 L66.539837,5.42344201 L66.539837,10.15 L59.45,10.15 Z M18.2,17.15 L18.2,12.423442 L25.289837,12.423442 L25.289837,17.15 L18.2,17.15 Z M25.075,17.15 L25.075,12.423442 L32.164837,12.423442 L32.164837,17.15 L25.075,17.15 Z M31.95,17.15 L31.95,12.423442 L39.039837,12.423442 L39.039837,17.15 L31.95,17.15 Z" id="Tycesoming" fill-rule="nonzero"></path>
                            </g>
                        </g>
                    </g>
                </g>
                <g id="Group-7" transform="translate(76.000000, 123.500000) rotate(-10.000000) translate(-76.000000, -123.500000) translate(20.000000, 9.000000)">
                    <g id="Group-3">
                        <g id="Rectangle-10">
                            <use fill="black" fill-opacity="1" filter="url(#filter-4)" xlink:href="#path-3"></use>
                            <use fill="#FFFFFF" fill-rule="evenodd" xlink:href="#path-3"></use>
                        </g>
                        <path d="M9,27.5 C8.17157288,27.5 7.5,28.1715729 7.5,29 L7.5,199.542683 C7.5,200.37111 8.17157288,201.042683 9,201.042683 L103,201.042683 C103.828427,201.042683 104.5,200.37111 104.5,199.542683 L104.5,29 C104.5,28.1715729 103.828427,27.5 103,27.5 L9,27.5 Z" id="Rectangle-12" stroke="#FF0D6A" fill="#FF0D6A"></path>
                        <g id="Group-8" transform="translate(17.000000, 91.000000)" fill="#D12869">
                            <rect id="Rectangle-3-Copy" x="0" y="0" width="19" height="19" rx="3"></rect>
                            <rect id="Rectangle-3-Copy" x="30" y="0" width="19" height="19" rx="3"></rect>
                            <rect id="Rectangle-3-Copy" x="60" y="0" width="19" height="19" rx="3"></rect>
                        </g>
                        <ellipse id="Oval-4" stroke="#EDF3F7" cx="55.762993" cy="214.740093" rx="8.76299304" ry="8.74009323"></ellipse>
                    </g>
                    <g id="Group-6" transform="translate(13.000000, 124.000000)">
                        <rect id="Rectangle-3-Copy" fill="#D12869" x="0" y="1" width="9" height="9" rx="2"></rect>
                        <path d="M14,5 L14,1.56250328 L19.1562451,1.56250328 L19.1562451,5 L14,5 Z M19,5 L19,1.56250328 L24.1562451,1.56250328 L24.1562451,5 L19,5 Z M24,5 L24,1.56250328 L29.1562451,1.56250328 L29.1562451,5 L24,5 Z M29,5 L29,1.56250328 L34.1562451,1.56250328 L34.1562451,5 L29,5 Z M34,5 L34,1.56250328 L39.1562451,1.56250328 L39.1562451,5 L34,5 Z" id="oming" fill="#D12869" fill-rule="nonzero"></path>
                        <path d="M14,10 L14,6.99219037 L18.5117144,6.99219037 L18.5117144,10 L14,10 Z M18.375,10 L18.375,6.99219037 L22.8867144,6.99219037 L22.8867144,10 L18.375,10 Z M22.75,10 L22.75,6.99219037 L27.2617144,6.99219037 L27.2617144,10 L22.75,10 Z M14,14 L14,10.9921904 L18.5117144,10.9921904 L18.5117144,14 L14,14 Z M18.375,14 L18.375,10.9921904 L22.8867144,10.9921904 L22.8867144,14 L18.375,14 Z M22.75,14 L22.75,10.9921904 L27.2617144,10.9921904 L27.2617144,14 L22.75,14 Z M27.125,14 L27.125,10.9921904 L31.6367144,10.9921904 L31.6367144,14 L27.125,14 Z M31.5,14 L31.5,10.9921904 L36.0117144,10.9921904 L36.0117144,14 L31.5,14 Z" id="Tysoming" fill="#D12869" fill-rule="nonzero"></path>
                        <rect id="Rectangle-3-Copy" fill="#D12869" x="0" y="20" width="9" height="9" rx="2"></rect>
                        <path d="M14,24 L14,20.5625033 L19.1562451,20.5625033 L19.1562451,24 L14,24 Z M19,24 L19,20.5625033 L24.1562451,20.5625033 L24.1562451,24 L19,24 Z M24,24 L24,20.5625033 L29.1562451,20.5625033 L29.1562451,24 L24,24 Z M29,24 L29,20.5625033 L34.1562451,20.5625033 L34.1562451,24 L29,24 Z M34,24 L34,20.5625033 L39.1562451,20.5625033 L39.1562451,24 L34,24 Z" id="oming" fill="#D12869" fill-rule="nonzero"></path>
                        <path d="M14,29 L14,25.9921904 L18.5117144,25.9921904 L18.5117144,29 L14,29 Z M18.375,29 L18.375,25.9921904 L22.8867144,25.9921904 L22.8867144,29 L18.375,29 Z M22.75,29 L22.75,25.9921904 L27.2617144,25.9921904 L27.2617144,29 L22.75,29 Z M14,33 L14,29.9921904 L18.5117144,29.9921904 L18.5117144,33 L14,33 Z M18.375,33 L18.375,29.9921904 L22.8867144,29.9921904 L22.8867144,33 L18.375,33 Z M22.75,33 L22.75,29.9921904 L27.2617144,29.9921904 L27.2617144,33 L22.75,33 Z M27.125,33 L27.125,29.9921904 L31.6367144,29.9921904 L31.6367144,33 L27.125,33 Z M31.5,33 L31.5,29.9921904 L36.0117144,29.9921904 L36.0117144,33 L31.5,33 Z" id="Tysoming" fill="#D12869" fill-rule="nonzero"></path>
                        <rect id="Rectangle-3-Copy" fill="#D12869" x="0" y="40" width="9" height="9" rx="2"></rect>
                        <path d="M14,44 L14,40.5625033 L19.1562451,40.5625033 L19.1562451,44 L14,44 Z M19,44 L19,40.5625033 L24.1562451,40.5625033 L24.1562451,44 L19,44 Z M24,44 L24,40.5625033 L29.1562451,40.5625033 L29.1562451,44 L24,44 Z M29,44 L29,40.5625033 L34.1562451,40.5625033 L34.1562451,44 L29,44 Z M34,44 L34,40.5625033 L39.1562451,40.5625033 L39.1562451,44 L34,44 Z" id="oming" fill="#D12869" fill-rule="nonzero"></path>
                        <path d="M14,49 L14,45.9921904 L18.5117144,45.9921904 L18.5117144,49 L14,49 Z M18.375,49 L18.375,45.9921904 L22.8867144,45.9921904 L22.8867144,49 L18.375,49 Z M22.75,49 L22.75,45.9921904 L27.2617144,45.9921904 L27.2617144,49 L22.75,49 Z M14,53 L14,49.9921904 L18.5117144,49.9921904 L18.5117144,53 L14,53 Z M18.375,53 L18.375,49.9921904 L22.8867144,49.9921904 L22.8867144,53 L18.375,53 Z M22.75,53 L22.75,49.9921904 L27.2617144,49.9921904 L27.2617144,53 L22.75,53 Z M27.125,53 L27.125,49.9921904 L31.6367144,49.9921904 L31.6367144,53 L27.125,53 Z M31.5,53 L31.5,49.9921904 L36.0117144,49.9921904 L36.0117144,53 L31.5,53 Z" id="Tysoming" fill="#D12869" fill-rule="nonzero"></path>
                        <path d="M0.590844131,35.5 L86.8072599,35.5" id="Line-Copy" stroke="#E72B6E" stroke-linecap="square"></path>
                        <path d="M0.590844131,14.5 L86.8072599,14.5" id="Line-Copy-2" stroke="#E72B6E" stroke-linecap="square"></path>
                    </g>
                    <path d="M9,27 L103,27 C104.104569,27 105,27.8954305 105,29 L105,81 L7,81 L7,29 C7,27.8954305 7.8954305,27 9,27 Z" id="Rectangle-15" fill="#E72B6E"></path>
                    <path d="M61.8036682,34.0469471 C59.7629435,34.0469471 58.3641612,35.3220359 57.1552435,36.9018294 L57.8716253,37.9482824 C58.9791029,36.4333288 60.1560729,35.2413694 61.8036682,35.2413694 C63.6961729,35.2413694 65.2698853,36.6131994 65.5604918,38.4027876 L60.8624612,38.4027876 L60.8624612,39.5972647 L66.77668,39.5972647 C66.8009264,39.3991068 66.8131788,39.1996593 66.8131788,39.0000235 C66.8131788,36.2688829 64.56592,34.0469471 61.8036682,34.0469471" id="Shape" fill="#BD2A67"></path>
                    <path d="M61.8036682,42.7585771 C59.7887612,42.7585771 58.4592665,41.0184006 56.7715618,38.4652012 C55.0838571,35.9120018 53.4908082,34.0469471 51.0199088,34.0469471 C48.2576088,34.0469471 46.0103506,36.2688829 46.0103506,39.0000235 C46.0103506,41.7311176 48.2576088,43.9530622 51.0199088,43.9530622 C53.0570265,43.9530622 54.45452,42.6823647 55.66195,41.10643 L54.9508141,40.0532535 C53.8436318,41.5675129 52.6669082,42.7585776 51.0199088,42.7585776 C48.9215612,42.7585776 47.2144676,41.0725065 47.2144676,39.0000241 C47.2144676,36.9275418 48.9215612,35.2413712 51.0199088,35.2413712 C53.0347671,35.2413712 54.29255,36.8929306 56.0482559,39.5305953 C57.8039618,42.16826 59.3327212,43.9530622 61.8036676,43.9530622 C63.8614541,43.9568723 65.7128736,42.7036012 66.4738553,40.7916894 L65.1481765,40.7916894 C64.4747475,42.0074918 63.1935182,42.7609768 61.8036706,42.7585776" id="Shape" fill="#BD2A67"></path>
                    <path d="M15,50 L98,50 C99.1045695,50 100,50.8954305 100,52 L100,63 C100,64.1045695 99.1045695,65 98,65 L15,65 C13.8954305,65 13,64.1045695 13,63 L13,52 C13,50.8954305 13.8954305,50 15,50 Z" id="Rectangle-2" fill="#FF0D6A"></path>
                    <text id="æpp-url" font-family="Helvetica" font-size="6" font-weight="normal" fill="#BD2A67">
                        <tspan x="18.2040327" y="59.6678959">æpp url</tspan>
                    </text>
                </g>
            </g>
        </g>
    </g>
</svg>
