<?xml version="1.0" encoding="UTF-8"?>
<svg width="252px" height="271px" viewBox="0 0 252 271" version="1.1" xmlns="http://www.w3.org/2000/svg" xmlns:xlink="http://www.w3.org/1999/xlink">
    <!-- Generator: sketchtool 48.2 (47327) - http://www.bohemiancoding.com/sketch -->
    <title>D0A89312-9546-47EF-8C0D-5D257368D936</title>
    <desc>Created with sketchtool.</desc>
    <defs>
        <linearGradient x1="50%" y1="100%" x2="50%" y2="0%" id="linearGradient-1">
            <stop stop-color="#EDEEF0" offset="0%"></stop>
            <stop stop-color="#EDEEF0" offset="85.9630623%"></stop>
            <stop stop-color="#EDEEF0" stop-opacity="0" offset="100%"></stop>
        </linearGradient>
    </defs>
    <g id="01.05-base-intro-minified-card" stroke="none" stroke-width="1" fill="none" fill-rule="evenodd" transform="translate(-62.000000, -108.000000)">
        <path d="M77.3903554,108 L77.3903554,314.552649 L298.498461,314.552649 L298.498461,108 L313.888816,108 L313.888816,344.747341 C313.888816,363.525023 298.666498,378.747341 279.888816,378.747341 L96,378.747341 C77.2223185,378.747341 62,363.525023 62,344.747341 L62,108 L77.3903554,108 Z M187.687902,362.827058 C198.45439,362.827058 207.182352,354.089811 207.182352,343.311871 C207.182352,332.533931 198.45439,323.796685 187.687902,323.796685 C176.921415,323.796685 168.193452,332.533931 168.193452,343.311871 C168.193452,354.089811 176.921415,362.827058 187.687902,362.827058 Z M187.687902,360.772827 C178.054729,360.772827 170.245499,352.955291 170.245499,343.311871 C170.245499,333.668451 178.054729,325.850915 187.687902,325.850915 C197.321075,325.850915 205.130305,333.668451 205.130305,343.311871 C205.130305,352.955291 197.321075,360.772827 187.687902,360.772827 Z" id="Combined-Shape" fill="url(#linearGradient-1)"></path>
    </g>
</svg>