<?xml version="1.0" encoding="UTF-8"?>
<svg width="256px" height="259px" viewBox="0 0 256 259" version="1.1" xmlns="http://www.w3.org/2000/svg" xmlns:xlink="http://www.w3.org/1999/xlink">
    <!-- Generator: sketchtool 48.2 (47327) - http://www.bohemiancoding.com/sketch -->
    <title>9DF8DA5D-39D9-4296-AD1C-2C9BAB0A0FF1</title>
    <desc>Created with sketchtool.</desc>
    <defs>
        <linearGradient x1="50%" y1="0%" x2="50%" y2="100%" id="linearGradient-1">
            <stop stop-color="#EDEEF0" offset="0%"></stop>
            <stop stop-color="#EDEEF0" offset="85.9630623%"></stop>
            <stop stop-color="#EDEEF0" stop-opacity="0" offset="100%"></stop>
        </linearGradient>
    </defs>
    <g id="01.04-base-intro-app-browser" stroke="none" stroke-width="1" fill="none" fill-rule="evenodd" transform="translate(-60.000000, -113.000000)">
        <path d="M77,372.304688 L61,372.304688 L61,309.430898 C60.4151169,309.223619 60,308.664331 60,308.00691 L60,272.509905 C60,271.847338 60.4172849,271.291956 61,271.085823 L61,261.430898 C60.4151169,261.223619 60,260.664331 60,260.00691 L60,224.509905 C60,223.847338 60.4172849,223.291956 61,223.085823 L61,199.970653 C60.4151169,199.76509 60,199.210432 60,198.558453 L60,180.497406 C60,179.851129 60.4172849,179.294132 61,179.086576 L61,147 C61,128.222319 76.2223185,113 95,113 L278.888816,113 C297.666498,113 312.888816,128.222319 312.888816,147 L312.888816,223.130254 C313.076319,223.046443 313.284184,223 313.502967,223 L313.575104,223 C314.410175,223 315.078071,223.676007 315.078071,224.509905 L315.078071,260.00691 C315.078071,260.848284 314.40517,261.516815 313.575104,261.516815 L313.502967,261.516815 C313.283703,261.516815 313.075965,261.47021 312.888816,261.386377 L312.888816,372.304688 L298.108106,372.304688 L298.108106,176 L77,176 L77,372.304688 Z M147.104095,150.216921 C149.370724,150.216921 151.20819,148.3775 151.20819,146.10846 C151.20819,143.83942 149.370724,142 147.104095,142 C144.837466,142 143,143.83942 143,146.10846 C143,148.3775 144.837466,150.216921 147.104095,150.216921 Z M187.565059,132.135575 C188.981702,132.135575 190.130118,130.985938 190.130118,129.567788 C190.130118,128.149638 188.981702,127 187.565059,127 C186.148416,127 185,128.149638 185,129.567788 C185,130.985938 186.148416,132.135575 187.565059,132.135575 Z M169.063353,144 C167.923795,144 167,144.9118 167,146.05423 C167,147.18875 167.914741,148.10846 169.063353,148.10846 L205.977595,148.10846 C207.117153,148.10846 208.040948,147.19666 208.040948,146.05423 C208.040948,144.91971 207.126207,144 205.977595,144 L169.063353,144 Z" id="Combined-Shape" fill="url(#linearGradient-1)"></path>
    </g>
</svg>