<?xml version="1.0" encoding="UTF-8"?>
<svg viewBox="0 0 183 198" version="1.1" xmlns="http://www.w3.org/2000/svg" xmlns:xlink="http://www.w3.org/1999/xlink">
    <!-- Generator: Sketch 55.1 (78136) - https://sketchapp.com -->
    <title>Group 3</title>
    <desc>Created with Sketch.</desc>
    <defs>
        <path d="M14,62 L145,62 C152.731986,62 159,68.2680135 159,76 L159,148 C159,155.731986 152.731986,162 145,162 L14,162 C6.2680135,162 9.46895252e-16,155.731986 0,148 L0,76 C-4.49960893e-15,68.2680135 6.2680135,62 14,62 Z" id="path-1"></path>
        <filter x="-8.5%" y="-13.5%" width="117.0%" height="127.0%" filterUnits="objectBoundingBox" id="filter-2">
            <feOffset dx="0" dy="0" in="SourceAlpha" result="shadowOffsetOuter1"></feOffset>
            <feGaussianBlur stdDeviation="4.5" in="shadowOffsetOuter1" result="shadowBlurOuter1"></feGaussianBlur>
            <feColorMatrix values="0 0 0 0 0.105882353   0 0 0 0 0.266666667   0 0 0 0 0.474509804  0 0 0 0.15 0" type="matrix" in="shadowBlurOuter1"></feColorMatrix>
        </filter>
        <path d="M4,0 L140,0 C142.209139,-4.05812251e-16 144,1.790861 144,4 L144,83 C144,85.209139 142.209139,87 140,87 L4,87 C1.790861,87 2.705415e-16,85.209139 0,83 L0,4 C-2.705415e-16,1.790861 1.790861,4.05812251e-16 4,0 Z" id="path-3"></path>
        <filter x="-16.7%" y="-27.6%" width="133.3%" height="155.2%" filterUnits="objectBoundingBox" id="filter-4">
            <feOffset dx="0" dy="0" in="SourceAlpha" result="shadowOffsetOuter1"></feOffset>
            <feGaussianBlur stdDeviation="8" in="shadowOffsetOuter1" result="shadowBlurOuter1"></feGaussianBlur>
            <feColorMatrix values="0 0 0 0 0.105882353   0 0 0 0 0.266666667   0 0 0 0 0.474509804  0 0 0 0.2 0" type="matrix" in="shadowBlurOuter1"></feColorMatrix>
        </filter>
        <path d="M4,0 L140,0 C142.209139,-4.05812251e-16 144,1.790861 144,4 L144,83 C144,85.209139 142.209139,87 140,87 L4,87 C1.790861,87 2.705415e-16,85.209139 0,83 L0,4 C-2.705415e-16,1.790861 1.790861,4.05812251e-16 4,0 Z" id="path-5"></path>
        <filter x="-16.7%" y="-27.6%" width="133.3%" height="155.2%" filterUnits="objectBoundingBox" id="filter-6">
            <feOffset dx="0" dy="0" in="SourceAlpha" result="shadowOffsetOuter1"></feOffset>
            <feGaussianBlur stdDeviation="8" in="shadowOffsetOuter1" result="shadowBlurOuter1"></feGaussianBlur>
            <feColorMatrix values="0 0 0 0 0.105882353   0 0 0 0 0.266666667   0 0 0 0 0.474509804  0 0 0 0.2 0" type="matrix" in="shadowBlurOuter1"></feColorMatrix>
        </filter>
        <path d="M4,0 L140,0 C142.209139,-4.05812251e-16 144,1.790861 144,4 L144,83 C144,85.209139 142.209139,87 140,87 L4,87 C1.790861,87 2.705415e-16,85.209139 0,83 L0,4 C-2.705415e-16,1.790861 1.790861,4.05812251e-16 4,0 Z" id="path-7"></path>
        <filter x="-16.7%" y="-27.6%" width="133.3%" height="155.2%" filterUnits="objectBoundingBox" id="filter-8">
            <feOffset dx="0" dy="0" in="SourceAlpha" result="shadowOffsetOuter1"></feOffset>
            <feGaussianBlur stdDeviation="8" in="shadowOffsetOuter1" result="shadowBlurOuter1"></feGaussianBlur>
            <feColorMatrix values="0 0 0 0 0.105882353   0 0 0 0 0.266666667   0 0 0 0 0.474509804  0 0 0 0.2 0" type="matrix" in="shadowBlurOuter1"></feColorMatrix>
        </filter>
        <path d="M4,0 L140,0 C142.209139,-4.05812251e-16 144,1.790861 144,4 L144,83 C144,85.209139 142.209139,87 140,87 L4,87 C1.790861,87 2.705415e-16,85.209139 0,83 L0,4 C-2.705415e-16,1.790861 1.790861,4.05812251e-16 4,0 Z" id="path-9"></path>
        <filter x="-16.7%" y="-27.6%" width="133.3%" height="155.2%" filterUnits="objectBoundingBox" id="filter-10">
            <feOffset dx="0" dy="0" in="SourceAlpha" result="shadowOffsetOuter1"></feOffset>
            <feGaussianBlur stdDeviation="8" in="shadowOffsetOuter1" result="shadowBlurOuter1"></feGaussianBlur>
            <feColorMatrix values="0 0 0 0 0.105882353   0 0 0 0 0.266666667   0 0 0 0 0.474509804  0 0 0 0.2 0" type="matrix" in="shadowBlurOuter1"></feColorMatrix>
        </filter>
        <path d="M71.0041041,102 C70.9952903,102.160853 70.9908257,102.322863 70.9908257,102.485915 C70.9908257,107.316462 74.909361,111.232394 79.7431193,111.232394 C84.5768775,111.232394 88.4954128,107.316462 88.4954128,102.485915 C88.4954128,102.322863 88.4909482,102.160853 88.4821345,102 L159,102 L159,161 C159,166.522847 154.522847,171 149,171 L10,171 C4.4771525,171 6.76353751e-16,166.522847 0,161 L0,102 L71.0041041,102 Z" id="path-11"></path>
        <filter x="-8.5%" y="-19.6%" width="117.0%" height="139.1%" filterUnits="objectBoundingBox" id="filter-12">
            <feOffset dx="0" dy="0" in="SourceAlpha" result="shadowOffsetOuter1"></feOffset>
            <feGaussianBlur stdDeviation="4.5" in="shadowOffsetOuter1" result="shadowBlurOuter1"></feGaussianBlur>
            <feColorMatrix values="0 0 0 0 0.105882353   0 0 0 0 0.266666667   0 0 0 0 0.474509804  0 0 0 0.15 0" type="matrix" in="shadowBlurOuter1"></feColorMatrix>
        </filter>
    </defs>
    <g id="BaseApp-0.6.x" stroke="none" stroke-width="1" fill="none" fill-rule="evenodd">
        <g id="v0.6.x-00.02-Onboarding" transform="translate(-96.000000, -126.000000)">
            <g id="Group-3" transform="translate(108.000000, 141.000000)">
                <g id="Rectangle-10">
                    <use fill="black" fill-opacity="1" filter="url(#filter-2)" xlink:href="#path-1"></use>
                    <use fill="#FFFFFF" fill-rule="evenodd" xlink:href="#path-1"></use>
                </g>
                <g id="Group-16" transform="translate(79.908090, 59.316272) rotate(-4.000000) translate(-79.908090, -59.316272) translate(7.908090, 5.816272)">
                    <g id="Rectangle-3-Copy-16">
                        <use fill="black" fill-opacity="1" filter="url(#filter-4)" xlink:href="#path-3"></use>
                        <use fill="#203040" fill-rule="evenodd" xlink:href="#path-3"></use>
                    </g>
                    <text id="···-···-···-···-···" font-family="BLOKKNeue-Regular, BLOKK Neue" font-size="12" font-weight="normal" line-spacing="12" fill="#4E5A66">
                        <tspan x="75.2258523" y="42.85">··· ··· </tspan>
                        <tspan x="112.772727" y="54.85">···</tspan>
                        <tspan x="75.2258523" y="66.85">··· ··· </tspan>
                        <tspan x="112.772727" y="78.85">···</tspan>
                        <tspan x="75.2258523" y="90.85">Q8R cgH </tspan>
                        <tspan x="112.772727" y="102.85">P1e</tspan>
                    </text>
                    <path d="M0,72.5 L144,72.5 L144,83 C144,85.209139 142.209139,87 140,87 L4,87 C1.790861,87 2.705415e-16,85.209139 0,83 L0,72.5 Z" id="Rectangle-3-Copy-25" fill="#001833"></path>
                    <ellipse id="Oval-9" fill="#4E5A66" cx="12.3636364" cy="12.325" rx="7.27272727" ry="7.25"></ellipse>
                    <path d="M26.5227273,17.5708333 L24.6392045,17.5708333 L24.6392045,11.7526515 L26.5823864,11.7526515 C27.1543589,11.7526515 27.6444108,11.8686541 28.0525568,12.1006629 C28.4607028,12.3326716 28.7741466,12.6650547 28.9928977,13.097822 C29.2116488,13.5305893 29.3210227,14.04905 29.3210227,14.6532197 C29.3210227,15.2592833 29.2111753,15.7801115 28.9914773,16.2157197 C28.7717792,16.6513279 28.4531271,16.9860784 28.0355114,17.2199811 C27.6178956,17.4538837 27.1136393,17.5708333 26.5227273,17.5708333 Z M25.5170455,16.8037879 L26.4744318,16.8037879 C27.1373139,16.8037879 27.6335211,16.6177102 27.9630682,16.2455492 C28.2926153,15.8733883 28.4573864,15.3426171 28.4573864,14.6532197 C28.4573864,13.9676102 28.2949827,13.4406268 27.9701705,13.0722538 C27.6453582,12.7038807 27.1647759,12.519697 26.5284091,12.519697 L25.5170455,12.519697 L25.5170455,16.8037879 Z M31.6136364,17.6674242 C31.3371198,17.6674242 31.0875958,17.6162884 30.8650568,17.5140152 C30.6425178,17.4117419 30.4659097,17.2616487 30.3352273,17.0637311 C30.2045448,16.8658134 30.1392045,16.6238651 30.1392045,16.3378788 C30.1392045,16.0897715 30.187026,15.886175 30.2826705,15.7270833 C30.3783149,15.5679916 30.5061545,15.4420459 30.6661932,15.3492424 C30.8262319,15.2564389 31.0056808,15.1868374 31.2045455,15.1404356 C31.4034101,15.0940339 31.6060596,15.0585229 31.8125,15.0339015 C32.0738649,15.0035983 32.2855106,14.9785039 32.4474432,14.9586174 C32.6093758,14.938731 32.7277458,14.9060608 32.8025568,14.8606061 C32.8773678,14.8151513 32.9147727,14.7412884 32.9147727,14.6390152 L32.9147727,14.6191288 C32.9147727,14.3710215 32.8451712,14.1787886 32.7059659,14.0424242 C32.5667607,13.9060599 32.3598499,13.8378788 32.0852273,13.8378788 C31.799241,13.8378788 31.5743379,13.9003782 31.4105114,14.0253788 C31.2466848,14.1503788 31.133523,14.2905295 31.0710227,14.4458333 L30.2727273,14.2640152 C30.4147734,13.8662859 30.651987,13.5812509 30.984375,13.4089015 C31.316763,13.2365522 31.6799223,13.1503788 32.0738636,13.1503788 C32.2481069,13.1503788 32.4327642,13.1707384 32.6278409,13.2114583 C32.8229176,13.2521782 33.0071014,13.3269881 33.1803977,13.4358902 C33.353694,13.5447922 33.4947911,13.6986732 33.6036932,13.8975379 C33.7125952,14.0964025 33.7670455,14.3549227 33.7670455,14.6731061 L33.7670455,17.5708333 L32.9375,17.5708333 L32.9375,16.9742424 L32.9034091,16.9742424 C32.8219693,17.137122 32.6770844,17.2933705 32.46875,17.4429924 C32.2604156,17.5926144 31.9753806,17.6674242 31.6136364,17.6674242 Z M31.7982955,16.9856061 C32.0350391,16.9856061 32.2367416,16.939205 32.4034091,16.8464015 C32.5700766,16.753598 32.6974427,16.6319136 32.7855114,16.4813447 C32.87358,16.3307758 32.9176136,16.169319 32.9176136,15.9969697 L32.9176136,15.4344697 C32.8778407,15.4742426 32.7907204,15.5092802 32.65625,15.5395833 C32.5217796,15.5698865 32.3797356,15.5954544 32.2301136,15.6162879 C32.0804917,15.6371213 31.9592808,15.6541666 31.8664773,15.6674242 C31.6202639,15.6996214 31.4095653,15.7644881 31.234375,15.8620265 C31.0591847,15.9595649 30.9715909,16.1219686 30.9715909,16.3492424 C30.9715909,16.5594707 31.0492416,16.7180866 31.2045455,16.8250947 C31.3598493,16.9321028 31.5577639,16.9856061 31.7982955,16.9856061 Z M34.8977273,17.5708333 L34.8977273,13.207197 L35.7471591,13.207197 L35.7471591,17.5708333 L34.8977273,17.5708333 Z M35.3267045,12.5481061 C35.1789765,12.5481061 35.0525573,12.4974437 34.9474432,12.3961174 C34.842329,12.2947912 34.7897727,12.1731068 34.7897727,12.0310606 C34.7897727,11.8890144 34.842329,11.7678035 34.9474432,11.6674242 C35.0525573,11.567045 35.1789765,11.5168561 35.3267045,11.5168561 C35.4725386,11.5168561 35.5984843,11.567045 35.7045455,11.6674242 C35.8106066,11.7678035 35.8636364,11.8890144 35.8636364,12.0310606 C35.8636364,12.1731068 35.8106066,12.2947912 35.7045455,12.3961174 C35.5984843,12.4974437 35.4725386,12.5481061 35.3267045,12.5481061 Z M37.7386364,11.7526515 L37.7386364,17.5708333 L36.8892045,17.5708333 L36.8892045,11.7526515 L37.7386364,11.7526515 Z M39.3863636,19.2668561 C39.2537872,19.2668561 39.1373111,19.2554925 39.0369318,19.2327652 C38.9365525,19.2100378 38.8636366,19.1882577 38.8181818,19.1674242 L39.0227273,18.4628788 C39.2575769,18.5253791 39.4540712,18.5301139 39.6122159,18.4770833 C39.7703606,18.4240528 39.9024616,18.2554938 40.0085227,17.9714015 L40.1335227,17.6276515 L38.5369318,13.207197 L39.4460227,13.207197 L40.5511364,16.5935606 L40.5965909,16.5935606 L41.7017045,13.207197 L42.6136364,13.207197 L40.7954545,18.207197 C40.6723479,18.5462138 40.4947928,18.8075748 40.2627841,18.9912879 C40.0307754,19.1750009 39.7386381,19.2668561 39.3863636,19.2668561 Z M46.0909091,17.5708333 L45.1590909,17.5708333 L47.2528409,11.7526515 L48.2670455,11.7526515 L50.3607955,17.5708333 L49.4289773,17.5708333 L48.8977273,16.0310606 L46.625,16.0310606 L46.0909091,17.5708333 Z M46.8806818,15.2924242 L48.6420455,15.2924242 L47.7840909,12.8094697 L47.7386364,12.8094697 L46.8806818,15.2924242 Z M52.96875,17.6589015 C52.5463994,17.6589015 52.1832402,17.5627851 51.8792614,17.3705492 C51.5752826,17.1783134 51.3418569,16.9126911 51.1789773,16.5736742 C51.0160977,16.2346574 50.9346591,15.8464037 50.9346591,15.4089015 C50.9346591,14.9638235 51.0179916,14.571782 51.1846591,14.2327652 C51.3513266,13.8937483 51.5866462,13.6285994 51.890625,13.4373106 C52.1946038,13.2460218 52.5511343,13.1503788 52.9602273,13.1503788 C53.2916683,13.1503788 53.5871199,13.2114577 53.8465909,13.3336174 C54.1060619,13.4557771 54.3158136,13.6267034 54.4758523,13.8464015 C54.635891,14.0660996 54.7310605,14.3227258 54.7613636,14.6162879 L53.9346591,14.6162879 C53.8892043,14.4117414 53.7855122,14.2356068 53.6235795,14.0878788 C53.4616469,13.9401508 53.2452665,13.8662879 52.9744318,13.8662879 C52.6202634,13.8662879 52.3347549,14.0031236 52.1178977,14.2767992 C51.9010406,14.5504749 51.7926136,14.9212098 51.7926136,15.3890152 C51.7926136,15.8643963 51.8996201,16.24176 52.1136364,16.5211174 C52.3276526,16.8004749 52.6145815,16.9401515 52.9744318,16.9401515 C53.2168573,16.9401515 53.4242416,16.8738643 53.5965909,16.7412879 C53.7689403,16.6087115 53.8816285,16.4250012 53.9346591,16.1901515 L54.7613636,16.1901515 C54.7310605,16.4723499 54.6392053,16.7242413 54.4857955,16.9458333 C54.3323856,17.1674254 54.1273687,17.341666 53.8707386,17.4685606 C53.6141086,17.5954552 53.3134487,17.6589015 52.96875,17.6589015 Z M57.5113636,17.6589015 C57.089013,17.6589015 56.7258538,17.5627851 56.421875,17.3705492 C56.1178962,17.1783134 55.8844705,16.9126911 55.7215909,16.5736742 C55.5587113,16.2346574 55.4772727,15.8464037 55.4772727,15.4089015 C55.4772727,14.9638235 55.5606052,14.571782 55.7272727,14.2327652 C55.8939402,13.8937483 56.1292598,13.6285994 56.4332386,13.4373106 C56.7372174,13.2460218 57.093748,13.1503788 57.5028409,13.1503788 C57.834282,13.1503788 58.1297336,13.2114577 58.3892045,13.3336174 C58.6486755,13.4557771 58.8584272,13.6267034 59.0184659,13.8464015 C59.1785046,14.0660996 59.2736741,14.3227258 59.3039773,14.6162879 L58.4772727,14.6162879 C58.431818,14.4117414 58.3281258,14.2356068 58.1661932,14.0878788 C58.0042606,13.9401508 57.7878801,13.8662879 57.5170455,13.8662879 C57.162877,13.8662879 56.8773685,14.0031236 56.6605114,14.2767992 C56.4436542,14.5504749 56.3352273,14.9212098 56.3352273,15.3890152 C56.3352273,15.8643963 56.4422338,16.24176 56.65625,16.5211174 C56.8702662,16.8004749 57.1571952,16.9401515 57.5170455,16.9401515 C57.7594709,16.9401515 57.9668552,16.8738643 58.1392045,16.7412879 C58.3115539,16.6087115 58.4242422,16.4250012 58.4772727,16.1901515 L59.3039773,16.1901515 C59.2736741,16.4723499 59.1818189,16.7242413 59.0284091,16.9458333 C58.8749992,17.1674254 58.6699823,17.341666 58.4133523,17.4685606 C58.1567222,17.5954552 57.8560623,17.6589015 57.5113636,17.6589015 Z M62.0539773,17.6589015 C61.6448843,17.6589015 61.2878803,17.5651525 60.9829545,17.3776515 C60.6780288,17.1901506 60.4412887,16.9273691 60.2727273,16.5892992 C60.1041658,16.2512294 60.0198864,15.8577674 60.0198864,15.4089015 C60.0198864,14.9562477 60.1041658,14.5604184 60.2727273,14.2214015 C60.4412887,13.8823847 60.6780288,13.6191297 60.9829545,13.4316288 C61.2878803,13.2441279 61.6448843,13.1503788 62.0539773,13.1503788 C62.4649642,13.1503788 62.8224417,13.2441279 63.1264205,13.4316288 C63.4303992,13.6191297 63.6666658,13.8823847 63.8352273,14.2214015 C64.0037887,14.5604184 64.0880682,14.9562477 64.0880682,15.4089015 C64.0880682,15.8577674 64.0037887,16.2512294 63.8352273,16.5892992 C63.6666658,16.9273691 63.4303992,17.1901506 63.1264205,17.3776515 C62.8224417,17.5651525 62.4649642,17.6589015 62.0539773,17.6589015 Z M62.0568182,16.9458333 C62.323865,16.9458333 62.5440332,16.8757583 62.7173295,16.7356061 C62.8906259,16.5954538 63.0194125,16.4084292 63.1036932,16.1745265 C63.1879739,15.9406238 63.2301136,15.6844711 63.2301136,15.4060606 C63.2301136,15.1276501 63.1879739,14.8710239 63.1036932,14.6361742 C63.0194125,14.4013246 62.8906259,14.213353 62.7173295,14.0722538 C62.5440332,13.9311546 62.323865,13.8606061 62.0568182,13.8606061 C61.7897714,13.8606061 61.5691297,13.9311546 61.3948864,14.0722538 C61.2206431,14.213353 61.0909095,14.4013246 61.0056818,14.6361742 C60.9204541,14.8710239 60.8778409,15.1276501 60.8778409,15.4060606 C60.8778409,15.6844711 60.9204541,15.9406238 61.0056818,16.1745265 C61.0909095,16.4084292 61.2206431,16.5954538 61.3948864,16.7356061 C61.5691297,16.8757583 61.7897714,16.9458333 62.0568182,16.9458333 Z M67.7982955,15.7611742 L67.7982955,13.207197 L68.6505682,13.207197 L68.6505682,17.5708333 L67.8153409,17.5708333 L67.8153409,16.8151515 L67.7698864,16.8151515 C67.6695071,17.0481072 67.5089973,17.2417606 67.2883523,17.3961174 C67.0677072,17.5504743 66.7935622,17.6276515 66.4659091,17.6276515 C66.0473464,17.6276515 65.7040733,17.4889218 65.4360795,17.2114583 C65.1680858,16.9339948 65.0340909,16.5244345 65.0340909,15.9827652 L65.0340909,13.207197 L65.8835227,13.207197 L65.8835227,15.8804924 C65.8835227,16.1778424 65.9659083,16.4145825 66.1306818,16.5907197 C66.2954554,16.7668569 66.5094684,16.8549242 66.7727273,16.8549242 C66.931819,16.8549242 67.0904348,16.8151519 67.2485795,16.7356061 C67.4067243,16.6560602 67.5383517,16.5353228 67.6434659,16.3733902 C67.7485801,16.2114575 67.8001894,16.0073876 67.7982955,15.7611742 Z M70.6392045,14.9799242 L70.6392045,17.5708333 L69.7897727,17.5708333 L69.7897727,13.207197 L70.6051136,13.207197 L70.6051136,13.9174242 L70.6590909,13.9174242 C70.7594702,13.6863625 70.9171391,13.5007583 71.1321023,13.3606061 C71.3470655,13.2204538 71.6183696,13.1503788 71.9460227,13.1503788 C72.3929947,13.1503788 72.7523661,13.2895819 73.0241477,13.5679924 C73.2959294,13.8464029 73.4318182,14.2554897 73.4318182,14.7952652 L73.4318182,17.5708333 L72.5823864,17.5708333 L72.5823864,14.8975379 C72.5823864,14.5812484 72.5000008,14.3336183 72.3352273,14.1546402 C72.1704537,13.975662 71.9441302,13.8861742 71.65625,13.8861742 C71.360794,13.8861742 71.1174252,13.9813437 70.9261364,14.1716856 C70.7348475,14.3620275 70.6392045,14.6314377 70.6392045,14.9799242 Z M76.6051136,13.207197 L76.6051136,13.8890152 L75.7102273,13.8890152 L75.7102273,16.2867424 C75.7102273,16.5329558 75.7627836,16.6915716 75.8678977,16.7625947 C75.9730119,16.8336178 76.0946963,16.8691288 76.2329545,16.8691288 C76.3011367,16.8691288 76.3607952,16.864394 76.4119318,16.8549242 C76.4630684,16.8454545 76.5028408,16.8378788 76.53125,16.832197 L76.6846591,17.5339015 C76.6354164,17.552841 76.5648679,17.5722537 76.4730114,17.5921402 C76.3811548,17.6120266 76.2679931,17.6229167 76.1335227,17.6248106 C75.9100368,17.6285985 75.701232,17.5883527 75.5071023,17.504072 C75.3129725,17.4197912 75.1567241,17.2910047 75.0383523,17.1177083 C74.9199805,16.944412 74.8607955,16.7261377 74.8607955,16.4628788 L74.8607955,13.8890152 L74.2215909,13.8890152 L74.2215909,13.207197 L74.8607955,13.207197 L74.8607955,12.1617424 L75.7102273,12.1617424 L75.7102273,13.207197 L76.6051136,13.207197 Z" id="Daily-Account" fill="#76818C"></path>
                    <path d="M121.522727,15.4479167 L121.522727,10.7213587 L128.612564,10.7213587 L128.612564,15.4479167 L121.522727,15.4479167 Z M128.397727,15.4479167 L128.397727,10.7213587 L135.487564,10.7213587 L135.487564,15.4479167 L128.397727,15.4479167 Z M128.397727,22.4479167 L128.397727,17.7213587 L135.487564,17.7213587 L135.487564,22.4479167 L128.397727,22.4479167 Z" id="Tng" fill="#4E5A66"></path>
                    <text id="Tng-Copy" font-family="BLOKKNeue-Regular, BLOKK Neue" font-size="11" font-weight="normal" fill="#4E5A66">
                        <tspan x="10.25" y="65.4729167">Tn</tspan>
                        <tspan x="17.125" y="72.4729167">g</tspan>
                    </text>
                </g>
                <g id="Group-16" transform="translate(82.091910, 85.316272) rotate(1.000000) translate(-82.091910, -85.316272) translate(10.091910, 31.816272)">
                    <g id="Rectangle-3-Copy-16">
                        <use fill="black" fill-opacity="1" filter="url(#filter-6)" xlink:href="#path-5"></use>
                        <use fill="#14CCB7" fill-rule="evenodd" xlink:href="#path-5"></use>
                    </g>
                    <text id="···-···-···-···-···" font-family="BLOKKNeue-Regular, BLOKK Neue" font-size="12" font-weight="normal" line-spacing="12" fill="#02BDAA">
                        <tspan x="75.2258523" y="42.85">··· ··· </tspan>
                        <tspan x="112.772727" y="54.85">···</tspan>
                        <tspan x="75.2258523" y="66.85">··· ··· </tspan>
                        <tspan x="112.772727" y="78.85">···</tspan>
                        <tspan x="75.2258523" y="90.85">Q8R cgH </tspan>
                        <tspan x="112.772727" y="102.85">P1e</tspan>
                    </text>
                    <path d="M0,72.5 L144,72.5 L144,83 C144,85.209139 142.209139,87 140,87 L4,87 C1.790861,87 2.705415e-16,85.209139 0,83 L0,72.5 Z" id="Rectangle-3-Copy-25" fill="#D12869"></path>
                    <ellipse id="Oval-9" fill="#05ADA8" cx="12.3636364" cy="12.325" rx="7.27272727" ry="7.25"></ellipse>
                    <path d="M25.1477273,11.7526515 L26.7670455,16.4912879 L26.8323864,16.4912879 L28.4517045,11.7526515 L29.4005682,11.7526515 L27.3068182,17.5708333 L26.2926136,17.5708333 L24.1988636,11.7526515 L25.1477273,11.7526515 Z M31.4403409,17.6674242 C31.1638244,17.6674242 30.9143004,17.6162884 30.6917614,17.5140152 C30.4692224,17.4117419 30.2926143,17.2616487 30.1619318,17.0637311 C30.0312493,16.8658134 29.9659091,16.6238651 29.9659091,16.3378788 C29.9659091,16.0897715 30.0137306,15.886175 30.109375,15.7270833 C30.2050194,15.5679916 30.332859,15.4420459 30.4928977,15.3492424 C30.6529364,15.2564389 30.8323854,15.1868374 31.03125,15.1404356 C31.2301146,15.0940339 31.4327641,15.0585229 31.6392045,15.0339015 C31.9005695,15.0035983 32.1122151,14.9785039 32.2741477,14.9586174 C32.4360804,14.938731 32.5544504,14.9060608 32.6292614,14.8606061 C32.7040723,14.8151513 32.7414773,14.7412884 32.7414773,14.6390152 L32.7414773,14.6191288 C32.7414773,14.3710215 32.6718757,14.1787886 32.5326705,14.0424242 C32.3934652,13.9060599 32.1865544,13.8378788 31.9119318,13.8378788 C31.6259455,13.8378788 31.4010425,13.9003782 31.2372159,14.0253788 C31.0733893,14.1503788 30.9602276,14.2905295 30.8977273,14.4458333 L30.0994318,14.2640152 C30.241478,13.8662859 30.4786915,13.5812509 30.8110795,13.4089015 C31.1434676,13.2365522 31.5066268,13.1503788 31.9005682,13.1503788 C32.0748115,13.1503788 32.2594687,13.1707384 32.4545455,13.2114583 C32.6496222,13.2521782 32.833806,13.3269881 33.0071023,13.4358902 C33.1803986,13.5447922 33.3214957,13.6986732 33.4303977,13.8975379 C33.5392998,14.0964025 33.59375,14.3549227 33.59375,14.6731061 L33.59375,17.5708333 L32.7642045,17.5708333 L32.7642045,16.9742424 L32.7301136,16.9742424 C32.6486738,17.137122 32.5037889,17.2933705 32.2954545,17.4429924 C32.0871202,17.5926144 31.8020851,17.6674242 31.4403409,17.6674242 Z M31.625,16.9856061 C31.8617436,16.9856061 32.0634461,16.939205 32.2301136,16.8464015 C32.3967811,16.753598 32.5241473,16.6319136 32.6122159,16.4813447 C32.7002845,16.3307758 32.7443182,16.169319 32.7443182,15.9969697 L32.7443182,15.4344697 C32.7045453,15.4742426 32.6174249,15.5092802 32.4829545,15.5395833 C32.3484842,15.5698865 32.2064401,15.5954544 32.0568182,15.6162879 C31.9071962,15.6371213 31.7859853,15.6541666 31.6931818,15.6674242 C31.4469685,15.6996214 31.2362698,15.7644881 31.0610795,15.8620265 C30.8858893,15.9595649 30.7982955,16.1219686 30.7982955,16.3492424 C30.7982955,16.5594707 30.8759462,16.7180866 31.03125,16.8250947 C31.1865538,16.9321028 31.3844685,16.9856061 31.625,16.9856061 Z M37.4886364,15.7611742 L37.4886364,13.207197 L38.3409091,13.207197 L38.3409091,17.5708333 L37.5056818,17.5708333 L37.5056818,16.8151515 L37.4602273,16.8151515 C37.359848,17.0481072 37.1993382,17.2417606 36.9786932,17.3961174 C36.7580481,17.5504743 36.4839032,17.6276515 36.15625,17.6276515 C35.7376873,17.6276515 35.3944142,17.4889218 35.1264205,17.2114583 C34.8584267,16.9339948 34.7244318,16.5244345 34.7244318,15.9827652 L34.7244318,13.207197 L35.5738636,13.207197 L35.5738636,15.8804924 C35.5738636,16.1778424 35.6562492,16.4145825 35.8210227,16.5907197 C35.9857963,16.7668569 36.1998093,16.8549242 36.4630682,16.8549242 C36.6221599,16.8549242 36.7807757,16.8151519 36.9389205,16.7356061 C37.0970652,16.6560602 37.2286927,16.5353228 37.3338068,16.3733902 C37.438921,16.2114575 37.4905303,16.0073876 37.4886364,15.7611742 Z M40.3295455,11.7526515 L40.3295455,17.5708333 L39.4801136,17.5708333 L39.4801136,11.7526515 L40.3295455,11.7526515 Z M43.5085227,13.207197 L43.5085227,13.8890152 L42.6136364,13.8890152 L42.6136364,16.2867424 C42.6136364,16.5329558 42.6661927,16.6915716 42.7713068,16.7625947 C42.876421,16.8336178 42.9981054,16.8691288 43.1363636,16.8691288 C43.2045458,16.8691288 43.2642043,16.864394 43.3153409,16.8549242 C43.3664775,16.8454545 43.4062499,16.8378788 43.4346591,16.832197 L43.5880682,17.5339015 C43.5388255,17.552841 43.468277,17.5722537 43.3764205,17.5921402 C43.2845639,17.6120266 43.1714022,17.6229167 43.0369318,17.6248106 C42.8134459,17.6285985 42.6046411,17.5883527 42.4105114,17.504072 C42.2163816,17.4197912 42.0601332,17.2910047 41.9417614,17.1177083 C41.8233896,16.944412 41.7642045,16.7261377 41.7642045,16.4628788 L41.7642045,13.8890152 L41.125,13.8890152 L41.125,13.207197 L41.7642045,13.207197 L41.7642045,12.1617424 L42.6136364,12.1617424 L42.6136364,13.207197 L43.5085227,13.207197 Z M47.1619318,17.5708333 L46.2301136,17.5708333 L48.3238636,11.7526515 L49.3380682,11.7526515 L51.4318182,17.5708333 L50.5,17.5708333 L49.96875,16.0310606 L47.6960227,16.0310606 L47.1619318,17.5708333 Z M47.9517045,15.2924242 L49.7130682,15.2924242 L48.8551136,12.8094697 L48.8096591,12.8094697 L47.9517045,15.2924242 Z M54.0397727,17.6589015 C53.6174221,17.6589015 53.2542629,17.5627851 52.9502841,17.3705492 C52.6463053,17.1783134 52.4128796,16.9126911 52.25,16.5736742 C52.0871204,16.2346574 52.0056818,15.8464037 52.0056818,15.4089015 C52.0056818,14.9638235 52.0890143,14.571782 52.2556818,14.2327652 C52.4223493,13.8937483 52.6576689,13.6285994 52.9616477,13.4373106 C53.2656265,13.2460218 53.622157,13.1503788 54.03125,13.1503788 C54.3626911,13.1503788 54.6581426,13.2114577 54.9176136,13.3336174 C55.1770846,13.4557771 55.3868363,13.6267034 55.546875,13.8464015 C55.7069137,14.0660996 55.8020832,14.3227258 55.8323864,14.6162879 L55.0056818,14.6162879 C54.960227,14.4117414 54.8565349,14.2356068 54.6946023,14.0878788 C54.5326696,13.9401508 54.3162892,13.8662879 54.0454545,13.8662879 C53.6912861,13.8662879 53.4057776,14.0031236 53.1889205,14.2767992 C52.9720633,14.5504749 52.8636364,14.9212098 52.8636364,15.3890152 C52.8636364,15.8643963 52.9706429,16.24176 53.1846591,16.5211174 C53.3986753,16.8004749 53.6856043,16.9401515 54.0454545,16.9401515 C54.28788,16.9401515 54.4952643,16.8738643 54.6676136,16.7412879 C54.839963,16.6087115 54.9526513,16.4250012 55.0056818,16.1901515 L55.8323864,16.1901515 C55.8020832,16.4723499 55.710228,16.7242413 55.5568182,16.9458333 C55.4034083,17.1674254 55.1983914,17.341666 54.9417614,17.4685606 C54.6851313,17.5954552 54.3844714,17.6589015 54.0397727,17.6589015 Z M58.5823864,17.6589015 C58.1600358,17.6589015 57.7968765,17.5627851 57.4928977,17.3705492 C57.1889189,17.1783134 56.9554932,16.9126911 56.7926136,16.5736742 C56.629734,16.2346574 56.5482955,15.8464037 56.5482955,15.4089015 C56.5482955,14.9638235 56.631628,14.571782 56.7982955,14.2327652 C56.964963,13.8937483 57.2002826,13.6285994 57.5042614,13.4373106 C57.8082402,13.2460218 58.1647707,13.1503788 58.5738636,13.1503788 C58.9053047,13.1503788 59.2007563,13.2114577 59.4602273,13.3336174 C59.7196983,13.4557771 59.92945,13.6267034 60.0894886,13.8464015 C60.2495273,14.0660996 60.3446968,14.3227258 60.375,14.6162879 L59.5482955,14.6162879 C59.5028407,14.4117414 59.3991485,14.2356068 59.2372159,14.0878788 C59.0752833,13.9401508 58.8589029,13.8662879 58.5880682,13.8662879 C58.2338997,13.8662879 57.9483912,14.0031236 57.7315341,14.2767992 C57.5146769,14.5504749 57.40625,14.9212098 57.40625,15.3890152 C57.40625,15.8643963 57.5132565,16.24176 57.7272727,16.5211174 C57.9412889,16.8004749 58.2282179,16.9401515 58.5880682,16.9401515 C58.8304936,16.9401515 59.0378779,16.8738643 59.2102273,16.7412879 C59.3825766,16.6087115 59.4952649,16.4250012 59.5482955,16.1901515 L60.375,16.1901515 C60.3446968,16.4723499 60.2528417,16.7242413 60.0994318,16.9458333 C59.946022,17.1674254 59.7410051,17.341666 59.484375,17.4685606 C59.2277449,17.5954552 58.9270851,17.6589015 58.5823864,17.6589015 Z M63.125,17.6589015 C62.715907,17.6589015 62.358903,17.5651525 62.0539773,17.3776515 C61.7490515,17.1901506 61.5123114,16.9273691 61.34375,16.5892992 C61.1751886,16.2512294 61.0909091,15.8577674 61.0909091,15.4089015 C61.0909091,14.9562477 61.1751886,14.5604184 61.34375,14.2214015 C61.5123114,13.8823847 61.7490515,13.6191297 62.0539773,13.4316288 C62.358903,13.2441279 62.715907,13.1503788 63.125,13.1503788 C63.5359869,13.1503788 63.8934644,13.2441279 64.1974432,13.4316288 C64.501422,13.6191297 64.7376886,13.8823847 64.90625,14.2214015 C65.0748114,14.5604184 65.1590909,14.9562477 65.1590909,15.4089015 C65.1590909,15.8577674 65.0748114,16.2512294 64.90625,16.5892992 C64.7376886,16.9273691 64.501422,17.1901506 64.1974432,17.3776515 C63.8934644,17.5651525 63.5359869,17.6589015 63.125,17.6589015 Z M63.1278409,16.9458333 C63.3948877,16.9458333 63.615056,16.8757583 63.7883523,16.7356061 C63.9616486,16.5954538 64.0904352,16.4084292 64.1747159,16.1745265 C64.2589966,15.9406238 64.3011364,15.6844711 64.3011364,15.4060606 C64.3011364,15.1276501 64.2589966,14.8710239 64.1747159,14.6361742 C64.0904352,14.4013246 63.9616486,14.213353 63.7883523,14.0722538 C63.615056,13.9311546 63.3948877,13.8606061 63.1278409,13.8606061 C62.8607941,13.8606061 62.6401524,13.9311546 62.4659091,14.0722538 C62.2916658,14.213353 62.1619322,14.4013246 62.0767045,14.6361742 C61.9914768,14.8710239 61.9488636,15.1276501 61.9488636,15.4060606 C61.9488636,15.6844711 61.9914768,15.9406238 62.0767045,16.1745265 C62.1619322,16.4084292 62.2916658,16.5954538 62.4659091,16.7356061 C62.6401524,16.8757583 62.8607941,16.9458333 63.1278409,16.9458333 Z M68.8693182,15.7611742 L68.8693182,13.207197 L69.7215909,13.207197 L69.7215909,17.5708333 L68.8863636,17.5708333 L68.8863636,16.8151515 L68.8409091,16.8151515 C68.7405298,17.0481072 68.58002,17.2417606 68.359375,17.3961174 C68.13873,17.5504743 67.864585,17.6276515 67.5369318,17.6276515 C67.1183691,17.6276515 66.775096,17.4889218 66.5071023,17.2114583 C66.2391085,16.9339948 66.1051136,16.5244345 66.1051136,15.9827652 L66.1051136,13.207197 L66.9545455,13.207197 L66.9545455,15.8804924 C66.9545455,16.1778424 67.036931,16.4145825 67.2017045,16.5907197 C67.3664781,16.7668569 67.5804911,16.8549242 67.84375,16.8549242 C68.0028417,16.8549242 68.1614575,16.8151519 68.3196023,16.7356061 C68.477747,16.6560602 68.6093745,16.5353228 68.7144886,16.3733902 C68.8196028,16.2114575 68.8712121,16.0073876 68.8693182,15.7611742 Z M71.7102273,14.9799242 L71.7102273,17.5708333 L70.8607955,17.5708333 L70.8607955,13.207197 L71.6761364,13.207197 L71.6761364,13.9174242 L71.7301136,13.9174242 C71.8304929,13.6863625 71.9881618,13.5007583 72.203125,13.3606061 C72.4180882,13.2204538 72.6893923,13.1503788 73.0170455,13.1503788 C73.4640174,13.1503788 73.8233888,13.2895819 74.0951705,13.5679924 C74.3669521,13.8464029 74.5028409,14.2554897 74.5028409,14.7952652 L74.5028409,17.5708333 L73.6534091,17.5708333 L73.6534091,14.8975379 C73.6534091,14.5812484 73.5710236,14.3336183 73.40625,14.1546402 C73.2414764,13.975662 73.015153,13.8861742 72.7272727,13.8861742 C72.4318167,13.8861742 72.1884479,13.9813437 71.9971591,14.1716856 C71.8058703,14.3620275 71.7102273,14.6314377 71.7102273,14.9799242 Z M77.6761364,13.207197 L77.6761364,13.8890152 L76.78125,13.8890152 L76.78125,16.2867424 C76.78125,16.5329558 76.8338063,16.6915716 76.9389205,16.7625947 C77.0440346,16.8336178 77.165719,16.8691288 77.3039773,16.8691288 C77.3721594,16.8691288 77.4318179,16.864394 77.4829545,16.8549242 C77.5340912,16.8454545 77.5738635,16.8378788 77.6022727,16.832197 L77.7556818,17.5339015 C77.7064391,17.552841 77.6358906,17.5722537 77.5440341,17.5921402 C77.4521776,17.6120266 77.3390158,17.6229167 77.2045455,17.6248106 C76.9810595,17.6285985 76.7722548,17.5883527 76.578125,17.504072 C76.3839952,17.4197912 76.2277468,17.2910047 76.109375,17.1177083 C75.9910032,16.944412 75.9318182,16.7261377 75.9318182,16.4628788 L75.9318182,13.8890152 L75.2926136,13.8890152 L75.2926136,13.207197 L75.9318182,13.207197 L75.9318182,12.1617424 L76.78125,12.1617424 L76.78125,13.207197 L77.6761364,13.207197 Z" id="Vault-Account" fill="#099C9D"></path>
                    <path d="M121.522727,15.4479167 L121.522727,10.7213587 L128.612564,10.7213587 L128.612564,15.4479167 L121.522727,15.4479167 Z M128.397727,15.4479167 L128.397727,10.7213587 L135.487564,10.7213587 L135.487564,15.4479167 L128.397727,15.4479167 Z M128.397727,22.4479167 L128.397727,17.7213587 L135.487564,17.7213587 L135.487564,22.4479167 L128.397727,22.4479167 Z" id="Tng" fill="#05ADA8"></path>
                    <text id="Tng-Copy" font-family="BLOKKNeue-Regular, BLOKK Neue" font-size="11" font-weight="normal" fill="#D12869">
                        <tspan x="10.25" y="65.4729167">Tn</tspan>
                        <tspan x="17.125" y="72.4729167">g</tspan>
                    </text>
                </g>
                <g id="Group-16" transform="translate(78.871557, 109.461947) rotate(-5.000000) translate(-78.871557, -109.461947) translate(6.871557, 55.961947)">
                    <g id="Rectangle-3-Copy-16">
                        <use fill="black" fill-opacity="1" filter="url(#filter-8)" xlink:href="#path-7"></use>
                        <use fill="#6948A1" fill-rule="evenodd" xlink:href="#path-7"></use>
                    </g>
                    <text id="···-···-···-···-···" font-family="BLOKKNeue-Regular, BLOKK Neue" font-size="12" font-weight="normal" line-spacing="12" fill="#E72B6E">
                        <tspan x="75.2258523" y="42.85">··· ··· </tspan>
                        <tspan x="112.772727" y="54.85">···</tspan>
                        <tspan x="75.2258523" y="66.85">··· ··· </tspan>
                        <tspan x="112.772727" y="78.85">···</tspan>
                        <tspan x="75.2258523" y="90.85">Q8R cgH </tspan>
                        <tspan x="112.772727" y="102.85">P1e</tspan>
                    </text>
                    <path d="M0,72.5 L144,72.5 L144,83 C144,85.209139 142.209139,87 140,87 L4,87 C1.790861,87 2.705415e-16,85.209139 0,83 L0,72.5 Z" id="Rectangle-3-Copy-25" fill="#D12869"></path>
                    <ellipse id="Oval-9" fill="#513482" cx="12.3636364" cy="12.325" rx="7.27272727" ry="7.25"></ellipse>
                    <path d="M28.5738636,13.5907197 C28.4621207,13.246021 28.2779369,12.9737699 28.0213068,12.7739583 C27.7646767,12.5741467 27.4431837,12.4742424 27.0568182,12.4742424 C26.729165,12.4742424 26.4341869,12.5585219 26.171875,12.7270833 C25.9095631,12.8956448 25.7026523,13.1423279 25.5511364,13.4671402 C25.3996205,13.7919524 25.3238636,14.1892022 25.3238636,14.6589015 C25.3238636,15.1304948 25.4000939,15.529165 25.5525568,15.8549242 C25.7050197,16.1806834 25.9147714,16.4278401 26.1818182,16.5964015 C26.448865,16.764963 26.7528392,16.8492424 27.09375,16.8492424 C27.5426159,16.8492424 27.9124038,16.7128802 28.203125,16.4401515 C28.4938462,16.1674229 28.6448863,15.7933736 28.65625,15.3179924 L27.2301136,15.3179924 L27.2301136,14.5935606 L29.5170455,14.5935606 L29.5170455,15.2554924 C29.5170455,15.7441312 29.4128798,16.1678959 29.2045455,16.5267992 C28.9962111,16.8857026 28.7097556,17.1626884 28.3451705,17.3577652 C27.9805853,17.5528419 27.5625024,17.6503788 27.0909091,17.6503788 C26.5662853,17.6503788 26.1060626,17.5296414 25.7102273,17.2881629 C25.314392,17.0466844 25.0056829,16.7024644 24.7840909,16.2554924 C24.5624989,15.8085205 24.4517045,15.2782228 24.4517045,14.6645833 C24.4517045,14.0452621 24.5634459,13.5121234 24.7869318,13.0651515 C25.0104178,12.6181796 25.3181799,12.274433 25.7102273,12.0339015 C26.1022747,11.79337 26.5492399,11.6731061 27.0511364,11.6731061 C27.4696991,11.6731061 27.8499036,11.7540712 28.1917614,11.9160038 C28.5336191,12.0779364 28.8172337,12.3028395 29.0426136,12.5907197 C29.2679936,12.8785999 29.4128785,13.2119299 29.4772727,13.5907197 L28.5738636,13.5907197 Z M32.4005682,17.6589015 C31.9914752,17.6589015 31.6344712,17.5651525 31.3295455,17.3776515 C31.0246197,17.1901506 30.7878796,16.9273691 30.6193182,16.5892992 C30.4507567,16.2512294 30.3664773,15.8577674 30.3664773,15.4089015 C30.3664773,14.9562477 30.4507567,14.5604184 30.6193182,14.2214015 C30.7878796,13.8823847 31.0246197,13.6191297 31.3295455,13.4316288 C31.6344712,13.2441279 31.9914752,13.1503788 32.4005682,13.1503788 C32.8115551,13.1503788 33.1690326,13.2441279 33.4730114,13.4316288 C33.7769902,13.6191297 34.0132567,13.8823847 34.1818182,14.2214015 C34.3503796,14.5604184 34.4346591,14.9562477 34.4346591,15.4089015 C34.4346591,15.8577674 34.3503796,16.2512294 34.1818182,16.5892992 C34.0132567,16.9273691 33.7769902,17.1901506 33.4730114,17.3776515 C33.1690326,17.5651525 32.8115551,17.6589015 32.4005682,17.6589015 Z M32.4034091,16.9458333 C32.6704559,16.9458333 32.8906241,16.8757583 33.0639205,16.7356061 C33.2372168,16.5954538 33.3660034,16.4084292 33.4502841,16.1745265 C33.5345648,15.9406238 33.5767045,15.6844711 33.5767045,15.4060606 C33.5767045,15.1276501 33.5345648,14.8710239 33.4502841,14.6361742 C33.3660034,14.4013246 33.2372168,14.213353 33.0639205,14.0722538 C32.8906241,13.9311546 32.6704559,13.8606061 32.4034091,13.8606061 C32.1363623,13.8606061 31.9157206,13.9311546 31.7414773,14.0722538 C31.567234,14.213353 31.4375004,14.4013246 31.3522727,14.6361742 C31.267045,14.8710239 31.2244318,15.1276501 31.2244318,15.4060606 C31.2244318,15.6844711 31.267045,15.9406238 31.3522727,16.1745265 C31.4375004,16.4084292 31.567234,16.5954538 31.7414773,16.7356061 C31.9157206,16.8757583 32.1363623,16.9458333 32.4034091,16.9458333 Z M39.1136364,13.207197 L37.53125,17.5708333 L36.6221591,17.5708333 L35.0369318,13.207197 L35.9488636,13.207197 L37.0539773,16.5651515 L37.0994318,16.5651515 L38.2017045,13.207197 L39.1136364,13.207197 Z M41.7926136,17.6589015 C41.3645812,17.6589015 40.9952667,17.5660994 40.6846591,17.3804924 C40.3740515,17.1948854 40.134944,16.9339979 39.9673295,16.597822 C39.7997151,16.261646 39.7159091,15.8681841 39.7159091,15.4174242 C39.7159091,14.9704523 39.7997151,14.5765169 39.9673295,14.2356061 C40.134944,13.8946953 40.3697902,13.6285994 40.671875,13.4373106 C40.9739598,13.2460218 41.3276495,13.1503788 41.7329545,13.1503788 C42.0625016,13.1503788 42.374525,13.2237682 42.6690341,13.3705492 C42.9635431,13.5173303 43.2031241,13.7512295 43.3877841,14.0722538 C43.5724441,14.3932781 43.6647727,14.8170428 43.6647727,15.3435606 L43.6647727,15.644697 L40.5625,15.644697 C40.5738637,16.0651536 40.6922337,16.389014 40.9176136,16.6162879 C41.1429936,16.8435617 41.4374982,16.957197 41.8011364,16.957197 C42.0435618,16.957197 42.25284,16.9051142 42.4289773,16.800947 C42.6051145,16.6967798 42.7310602,16.5414783 42.8068182,16.3350379 L43.6107955,16.4799242 C43.5142041,16.8340927 43.3058728,17.1191277 42.9857955,17.3350379 C42.6657181,17.550948 42.2679948,17.6589015 41.7926136,17.6589015 Z M40.5653409,15.0083333 L42.8323864,15.0083333 C42.8304924,14.6749983 42.7301146,14.3989594 42.53125,14.1802083 C42.3323854,13.9614572 42.0681835,13.8520833 41.7386364,13.8520833 C41.5094686,13.8520833 41.3091865,13.9055866 41.1377841,14.0125947 C40.9663817,14.1196028 40.8309664,14.2606999 40.7315341,14.4358902 C40.6321018,14.6110804 40.5767046,14.8018929 40.5653409,15.0083333 Z M44.6107955,17.5708333 L44.6107955,13.207197 L45.4318182,13.207197 L45.4318182,13.9003788 L45.4772727,13.9003788 C45.5568186,13.6655291 45.6969687,13.4803984 45.8977273,13.3449811 C46.0984859,13.2095637 46.3276502,13.1418561 46.5852273,13.1418561 C46.7045461,13.1418561 46.8115526,13.1560605 46.90625,13.1844697 C47.0009474,13.2128789 47.0842799,13.2517043 47.15625,13.300947 L46.8835227,14.0111742 C46.8323861,13.984659 46.7746215,13.9638258 46.7102273,13.9486742 C46.645833,13.9335227 46.5719701,13.925947 46.4886364,13.925947 C46.1950743,13.925947 45.9502851,14.0182756 45.7542614,14.2029356 C45.5582377,14.3875956 45.4602273,14.6219683 45.4602273,14.9060606 L45.4602273,17.5708333 L44.6107955,17.5708333 Z M48.6477273,14.9799242 L48.6477273,17.5708333 L47.7982955,17.5708333 L47.7982955,13.207197 L48.6136364,13.207197 L48.6136364,13.9174242 L48.6676136,13.9174242 C48.7679929,13.6863625 48.9256618,13.5007583 49.140625,13.3606061 C49.3555882,13.2204538 49.6268923,13.1503788 49.9545455,13.1503788 C50.4015174,13.1503788 50.7608888,13.2895819 51.0326705,13.5679924 C51.3044521,13.8464029 51.4403409,14.2554897 51.4403409,14.7952652 L51.4403409,17.5708333 L50.5909091,17.5708333 L50.5909091,14.8975379 C50.5909091,14.5812484 50.5085236,14.3336183 50.34375,14.1546402 C50.1789764,13.975662 49.952653,13.8861742 49.6647727,13.8861742 C49.3693167,13.8861742 49.1259479,13.9813437 48.9346591,14.1716856 C48.7433703,14.3620275 48.6477273,14.6314377 48.6477273,14.9799242 Z M53.8465909,17.6674242 C53.5700744,17.6674242 53.3205504,17.6162884 53.0980114,17.5140152 C52.8754724,17.4117419 52.6988643,17.2616487 52.5681818,17.0637311 C52.4374993,16.8658134 52.3721591,16.6238651 52.3721591,16.3378788 C52.3721591,16.0897715 52.4199806,15.886175 52.515625,15.7270833 C52.6112694,15.5679916 52.739109,15.4420459 52.8991477,15.3492424 C53.0591864,15.2564389 53.2386354,15.1868374 53.4375,15.1404356 C53.6363646,15.0940339 53.8390141,15.0585229 54.0454545,15.0339015 C54.3068195,15.0035983 54.5184651,14.9785039 54.6803977,14.9586174 C54.8423304,14.938731 54.9607004,14.9060608 55.0355114,14.8606061 C55.1103223,14.8151513 55.1477273,14.7412884 55.1477273,14.6390152 L55.1477273,14.6191288 C55.1477273,14.3710215 55.0781257,14.1787886 54.9389205,14.0424242 C54.7997152,13.9060599 54.5928044,13.8378788 54.3181818,13.8378788 C54.0321955,13.8378788 53.8072925,13.9003782 53.6434659,14.0253788 C53.4796393,14.1503788 53.3664776,14.2905295 53.3039773,14.4458333 L52.5056818,14.2640152 C52.647728,13.8662859 52.8849415,13.5812509 53.2173295,13.4089015 C53.5497176,13.2365522 53.9128768,13.1503788 54.3068182,13.1503788 C54.4810615,13.1503788 54.6657187,13.1707384 54.8607955,13.2114583 C55.0558722,13.2521782 55.240056,13.3269881 55.4133523,13.4358902 C55.5866486,13.5447922 55.7277457,13.6986732 55.8366477,13.8975379 C55.9455498,14.0964025 56,14.3549227 56,14.6731061 L56,17.5708333 L55.1704545,17.5708333 L55.1704545,16.9742424 L55.1363636,16.9742424 C55.0549238,17.137122 54.9100389,17.2933705 54.7017045,17.4429924 C54.4933702,17.5926144 54.2083351,17.6674242 53.8465909,17.6674242 Z M54.03125,16.9856061 C54.2679936,16.9856061 54.4696961,16.939205 54.6363636,16.8464015 C54.8030311,16.753598 54.9303973,16.6319136 55.0184659,16.4813447 C55.1065345,16.3307758 55.1505682,16.169319 55.1505682,15.9969697 L55.1505682,15.4344697 C55.1107953,15.4742426 55.0236749,15.5092802 54.8892045,15.5395833 C54.7547342,15.5698865 54.6126901,15.5954544 54.4630682,15.6162879 C54.3134462,15.6371213 54.1922353,15.6541666 54.0994318,15.6674242 C53.8532185,15.6996214 53.6425198,15.7644881 53.4673295,15.8620265 C53.2921393,15.9595649 53.2045455,16.1219686 53.2045455,16.3492424 C53.2045455,16.5594707 53.2821962,16.7180866 53.4375,16.8250947 C53.5928038,16.9321028 53.7907185,16.9856061 54.03125,16.9856061 Z M57.9801136,14.9799242 L57.9801136,17.5708333 L57.1306818,17.5708333 L57.1306818,13.207197 L57.9460227,13.207197 L57.9460227,13.9174242 L58,13.9174242 C58.1003793,13.6863625 58.2580482,13.5007583 58.4730114,13.3606061 C58.6879746,13.2204538 58.9592787,13.1503788 59.2869318,13.1503788 C59.7339037,13.1503788 60.0932752,13.2895819 60.3650568,13.5679924 C60.6368385,13.8464029 60.7727273,14.2554897 60.7727273,14.7952652 L60.7727273,17.5708333 L59.9232955,17.5708333 L59.9232955,14.8975379 C59.9232955,14.5812484 59.8409099,14.3336183 59.6761364,14.1546402 C59.5113628,13.975662 59.2850393,13.8861742 58.9971591,13.8861742 C58.7017031,13.8861742 58.4583343,13.9813437 58.2670455,14.1716856 C58.0757566,14.3620275 57.9801136,14.6314377 57.9801136,14.9799242 Z M63.7471591,17.6589015 C63.3248085,17.6589015 62.9616492,17.5627851 62.6576705,17.3705492 C62.3536917,17.1783134 62.120266,16.9126911 61.9573864,16.5736742 C61.7945068,16.2346574 61.7130682,15.8464037 61.7130682,15.4089015 C61.7130682,14.9638235 61.7964007,14.571782 61.9630682,14.2327652 C62.1297357,13.8937483 62.3650553,13.6285994 62.6690341,13.4373106 C62.9730129,13.2460218 63.3295434,13.1503788 63.7386364,13.1503788 C64.0700774,13.1503788 64.365529,13.2114577 64.625,13.3336174 C64.884471,13.4557771 65.0942227,13.6267034 65.2542614,13.8464015 C65.4143,14.0660996 65.5094695,14.3227258 65.5397727,14.6162879 L64.7130682,14.6162879 C64.6676134,14.4117414 64.5639213,14.2356068 64.4019886,14.0878788 C64.240056,13.9401508 64.0236756,13.8662879 63.7528409,13.8662879 C63.3986725,13.8662879 63.113164,14.0031236 62.8963068,14.2767992 C62.6794497,14.5504749 62.5710227,14.9212098 62.5710227,15.3890152 C62.5710227,15.8643963 62.6780292,16.24176 62.8920455,16.5211174 C63.1060617,16.8004749 63.3929906,16.9401515 63.7528409,16.9401515 C63.9952664,16.9401515 64.2026507,16.8738643 64.375,16.7412879 C64.5473493,16.6087115 64.6600376,16.4250012 64.7130682,16.1901515 L65.5397727,16.1901515 C65.5094695,16.4723499 65.4176144,16.7242413 65.2642045,16.9458333 C65.1107947,17.1674254 64.9057778,17.341666 64.6491477,17.4685606 C64.3925177,17.5954552 64.0918578,17.6589015 63.7471591,17.6589015 Z M68.3323864,17.6589015 C67.9043539,17.6589015 67.5350394,17.5660994 67.2244318,17.3804924 C66.9138242,17.1948854 66.6747167,16.9339979 66.5071023,16.597822 C66.3394878,16.261646 66.2556818,15.8681841 66.2556818,15.4174242 C66.2556818,14.9704523 66.3394878,14.5765169 66.5071023,14.2356061 C66.6747167,13.8946953 66.9095629,13.6285994 67.2116477,13.4373106 C67.5137326,13.2460218 67.8674222,13.1503788 68.2727273,13.1503788 C68.6022744,13.1503788 68.9142978,13.2237682 69.2088068,13.3705492 C69.5033159,13.5173303 69.7428968,13.7512295 69.9275568,14.0722538 C70.1122168,14.3932781 70.2045455,14.8170428 70.2045455,15.3435606 L70.2045455,15.644697 L67.1022727,15.644697 C67.1136364,16.0651536 67.2320064,16.389014 67.4573864,16.6162879 C67.6827663,16.8435617 67.9772709,16.957197 68.3409091,16.957197 C68.5833345,16.957197 68.7926128,16.9051142 68.96875,16.800947 C69.1448872,16.6967798 69.270833,16.5414783 69.3465909,16.3350379 L70.1505682,16.4799242 C70.0539768,16.8340927 69.8456455,17.1191277 69.5255682,17.3350379 C69.2054908,17.550948 68.8077675,17.6589015 68.3323864,17.6589015 Z M67.1051136,15.0083333 L69.3721591,15.0083333 C69.3702651,14.6749983 69.2698874,14.3989594 69.0710227,14.1802083 C68.8721581,13.9614572 68.6079562,13.8520833 68.2784091,13.8520833 C68.0492413,13.8520833 67.8489592,13.9055866 67.6775568,14.0125947 C67.5061544,14.1196028 67.3707391,14.2606999 67.2713068,14.4358902 C67.1718745,14.6110804 67.1164773,14.8018929 67.1051136,15.0083333 Z M73.8295455,17.5708333 L72.8977273,17.5708333 L74.9914773,11.7526515 L76.0056818,11.7526515 L78.0994318,17.5708333 L77.1676136,17.5708333 L76.6363636,16.0310606 L74.3636364,16.0310606 L73.8295455,17.5708333 Z M74.6193182,15.2924242 L76.3806818,15.2924242 L75.5227273,12.8094697 L75.4772727,12.8094697 L74.6193182,15.2924242 Z M80.7073864,17.6589015 C80.2850358,17.6589015 79.9218765,17.5627851 79.6178977,17.3705492 C79.3139189,17.1783134 79.0804932,16.9126911 78.9176136,16.5736742 C78.754734,16.2346574 78.6732955,15.8464037 78.6732955,15.4089015 C78.6732955,14.9638235 78.756628,14.571782 78.9232955,14.2327652 C79.089963,13.8937483 79.3252826,13.6285994 79.6292614,13.4373106 C79.9332402,13.2460218 80.2897707,13.1503788 80.6988636,13.1503788 C81.0303047,13.1503788 81.3257563,13.2114577 81.5852273,13.3336174 C81.8446983,13.4557771 82.05445,13.6267034 82.2144886,13.8464015 C82.3745273,14.0660996 82.4696968,14.3227258 82.5,14.6162879 L81.6732955,14.6162879 C81.6278407,14.4117414 81.5241485,14.2356068 81.3622159,14.0878788 C81.2002833,13.9401508 80.9839029,13.8662879 80.7130682,13.8662879 C80.3588997,13.8662879 80.0733912,14.0031236 79.8565341,14.2767992 C79.6396769,14.5504749 79.53125,14.9212098 79.53125,15.3890152 C79.53125,15.8643963 79.6382565,16.24176 79.8522727,16.5211174 C80.0662889,16.8004749 80.3532179,16.9401515 80.7130682,16.9401515 C80.9554936,16.9401515 81.1628779,16.8738643 81.3352273,16.7412879 C81.5075766,16.6087115 81.6202649,16.4250012 81.6732955,16.1901515 L82.5,16.1901515 C82.4696968,16.4723499 82.3778417,16.7242413 82.2244318,16.9458333 C82.071022,17.1674254 81.8660051,17.341666 81.609375,17.4685606 C81.3527449,17.5954552 81.0520851,17.6589015 80.7073864,17.6589015 Z M85.25,17.6589015 C84.8276494,17.6589015 84.4644902,17.5627851 84.1605114,17.3705492 C83.8565326,17.1783134 83.6231069,16.9126911 83.4602273,16.5736742 C83.2973477,16.2346574 83.2159091,15.8464037 83.2159091,15.4089015 C83.2159091,14.9638235 83.2992416,14.571782 83.4659091,14.2327652 C83.6325766,13.8937483 83.8678962,13.6285994 84.171875,13.4373106 C84.4758538,13.2460218 84.8323843,13.1503788 85.2414773,13.1503788 C85.5729183,13.1503788 85.8683699,13.2114577 86.1278409,13.3336174 C86.3873119,13.4557771 86.5970636,13.6267034 86.7571023,13.8464015 C86.917141,14.0660996 87.0123105,14.3227258 87.0426136,14.6162879 L86.2159091,14.6162879 C86.1704543,14.4117414 86.0667622,14.2356068 85.9048295,14.0878788 C85.7428969,13.9401508 85.5265165,13.8662879 85.2556818,13.8662879 C84.9015134,13.8662879 84.6160049,14.0031236 84.3991477,14.2767992 C84.1822906,14.5504749 84.0738636,14.9212098 84.0738636,15.3890152 C84.0738636,15.8643963 84.1808701,16.24176 84.3948864,16.5211174 C84.6089026,16.8004749 84.8958315,16.9401515 85.2556818,16.9401515 C85.4981073,16.9401515 85.7054916,16.8738643 85.8778409,16.7412879 C86.0501903,16.6087115 86.1628785,16.4250012 86.2159091,16.1901515 L87.0426136,16.1901515 C87.0123105,16.4723499 86.9204553,16.7242413 86.7670455,16.9458333 C86.6136356,17.1674254 86.4086187,17.341666 86.1519886,17.4685606 C85.8953586,17.5954552 85.5946987,17.6589015 85.25,17.6589015 Z M89.7926136,17.6589015 C89.3835207,17.6589015 89.0265167,17.5651525 88.7215909,17.3776515 C88.4166651,17.1901506 88.1799251,16.9273691 88.0113636,16.5892992 C87.8428022,16.2512294 87.7585227,15.8577674 87.7585227,15.4089015 C87.7585227,14.9562477 87.8428022,14.5604184 88.0113636,14.2214015 C88.1799251,13.8823847 88.4166651,13.6191297 88.7215909,13.4316288 C89.0265167,13.2441279 89.3835207,13.1503788 89.7926136,13.1503788 C90.2036005,13.1503788 90.561078,13.2441279 90.8650568,13.4316288 C91.1690356,13.6191297 91.4053022,13.8823847 91.5738636,14.2214015 C91.7424251,14.5604184 91.8267045,14.9562477 91.8267045,15.4089015 C91.8267045,15.8577674 91.7424251,16.2512294 91.5738636,16.5892992 C91.4053022,16.9273691 91.1690356,17.1901506 90.8650568,17.3776515 C90.561078,17.5651525 90.2036005,17.6589015 89.7926136,17.6589015 Z M89.7954545,16.9458333 C90.0625013,16.9458333 90.2826696,16.8757583 90.4559659,16.7356061 C90.6292622,16.5954538 90.7580488,16.4084292 90.8423295,16.1745265 C90.9266103,15.9406238 90.96875,15.6844711 90.96875,15.4060606 C90.96875,15.1276501 90.9266103,14.8710239 90.8423295,14.6361742 C90.7580488,14.4013246 90.6292622,14.213353 90.4559659,14.0722538 C90.2826696,13.9311546 90.0625013,13.8606061 89.7954545,13.8606061 C89.5284078,13.8606061 89.307766,13.9311546 89.1335227,14.0722538 C88.9592794,14.213353 88.8295459,14.4013246 88.7443182,14.6361742 C88.6590905,14.8710239 88.6164773,15.1276501 88.6164773,15.4060606 C88.6164773,15.6844711 88.6590905,15.9406238 88.7443182,16.1745265 C88.8295459,16.4084292 88.9592794,16.5954538 89.1335227,16.7356061 C89.307766,16.8757583 89.5284078,16.9458333 89.7954545,16.9458333 Z M95.5369318,15.7611742 L95.5369318,13.207197 L96.3892045,13.207197 L96.3892045,17.5708333 L95.5539773,17.5708333 L95.5539773,16.8151515 L95.5085227,16.8151515 C95.4081434,17.0481072 95.2476337,17.2417606 95.0269886,17.3961174 C94.8063436,17.5504743 94.5321986,17.6276515 94.2045455,17.6276515 C93.7859828,17.6276515 93.4427097,17.4889218 93.1747159,17.2114583 C92.9067221,16.9339948 92.7727273,16.5244345 92.7727273,15.9827652 L92.7727273,13.207197 L93.6221591,13.207197 L93.6221591,15.8804924 C93.6221591,16.1778424 93.7045446,16.4145825 93.8693182,16.5907197 C94.0340917,16.7668569 94.2481047,16.8549242 94.5113636,16.8549242 C94.6704553,16.8549242 94.8290712,16.8151519 94.9872159,16.7356061 C95.1453606,16.6560602 95.2769881,16.5353228 95.3821023,16.3733902 C95.4872164,16.2114575 95.5388258,16.0073876 95.5369318,15.7611742 Z M98.3778409,14.9799242 L98.3778409,17.5708333 L97.5284091,17.5708333 L97.5284091,13.207197 L98.34375,13.207197 L98.34375,13.9174242 L98.3977273,13.9174242 C98.4981066,13.6863625 98.6557754,13.5007583 98.8707386,13.3606061 C99.0857018,13.2204538 99.3570059,13.1503788 99.6846591,13.1503788 C100.131631,13.1503788 100.491002,13.2895819 100.762784,13.5679924 C101.034566,13.8464029 101.170455,14.2554897 101.170455,14.7952652 L101.170455,17.5708333 L100.321023,17.5708333 L100.321023,14.8975379 C100.321023,14.5812484 100.238637,14.3336183 100.073864,14.1546402 C99.9090901,13.975662 99.6827666,13.8861742 99.3948864,13.8861742 C99.0994303,13.8861742 98.8560616,13.9813437 98.6647727,14.1716856 C98.4734839,14.3620275 98.3778409,14.6314377 98.3778409,14.9799242 Z M104.34375,13.207197 L104.34375,13.8890152 L103.448864,13.8890152 L103.448864,16.2867424 C103.448864,16.5329558 103.50142,16.6915716 103.606534,16.7625947 C103.711648,16.8336178 103.833333,16.8691288 103.971591,16.8691288 C104.039773,16.8691288 104.099432,16.864394 104.150568,16.8549242 C104.201705,16.8454545 104.241477,16.8378788 104.269886,16.832197 L104.423295,17.5339015 C104.374053,17.552841 104.303504,17.5722537 104.211648,17.5921402 C104.119791,17.6120266 104.006629,17.6229167 103.872159,17.6248106 C103.648673,17.6285985 103.439868,17.5883527 103.245739,17.504072 C103.051609,17.4197912 102.89536,17.2910047 102.776989,17.1177083 C102.658617,16.944412 102.599432,16.7261377 102.599432,16.4628788 L102.599432,13.8890152 L101.960227,13.8890152 L101.960227,13.207197 L102.599432,13.207197 L102.599432,12.1617424 L103.448864,12.1617424 L103.448864,13.207197 L104.34375,13.207197 Z" id="Governance-Account" fill="#442873"></path>
                    <path d="M121.522727,15.4479167 L121.522727,10.7213587 L128.612564,10.7213587 L128.612564,15.4479167 L121.522727,15.4479167 Z M128.397727,15.4479167 L128.397727,10.7213587 L135.487564,10.7213587 L135.487564,15.4479167 L128.397727,15.4479167 Z M128.397727,22.4479167 L128.397727,17.7213587 L135.487564,17.7213587 L135.487564,22.4479167 L128.397727,22.4479167 Z" id="Tng" fill="#513482"></path>
                    <text id="Tng-Copy" font-family="BLOKKNeue-Regular, BLOKK Neue" font-size="11" font-weight="normal" fill="#D12869">
                        <tspan x="10.25" y="65.4729167">Tn</tspan>
                        <tspan x="17.125" y="72.4729167">g</tspan>
                    </text>
                </g>
                <g id="Group-16" transform="translate(7.000000, 80.000000)">
                    <g id="Rectangle-3-Copy-16">
                        <use fill="black" fill-opacity="1" filter="url(#filter-10)" xlink:href="#path-9"></use>
                        <use fill="#FF0D6A" fill-rule="evenodd" xlink:href="#path-9"></use>
                    </g>
                    <path d="M0,72.5 L144,72.5 L144,83 C144,85.209139 142.209139,87 140,87 L4,87 C1.790861,87 2.705415e-16,85.209139 0,83 L0,72.5 Z" id="Rectangle-3-Copy-25" fill="#D12869"></path>
                    <ellipse id="Oval-9" fill="#D12869" cx="12.3636364" cy="12.325" rx="7.27272727" ry="7.25"></ellipse>
                    <path d="M24.6392045,11.7526515 L25.7045455,11.7526515 L27.5568182,16.2753788 L27.625,16.2753788 L29.4772727,11.7526515 L30.5426136,11.7526515 L30.5426136,17.5708333 L29.7073864,17.5708333 L29.7073864,13.3606061 L29.6534091,13.3606061 L27.9375,17.5623106 L27.2443182,17.5623106 L25.5284091,13.3577652 L25.4744318,13.3577652 L25.4744318,17.5708333 L24.6392045,17.5708333 L24.6392045,11.7526515 Z M33.1676136,17.6674242 C32.8910971,17.6674242 32.6415731,17.6162884 32.4190341,17.5140152 C32.1964951,17.4117419 32.019887,17.2616487 31.8892045,17.0637311 C31.7585221,16.8658134 31.6931818,16.6238651 31.6931818,16.3378788 C31.6931818,16.0897715 31.7410033,15.886175 31.8366477,15.7270833 C31.9322921,15.5679916 32.0601318,15.4420459 32.2201705,15.3492424 C32.3802091,15.2564389 32.5596581,15.1868374 32.7585227,15.1404356 C32.9573874,15.0940339 33.1600368,15.0585229 33.3664773,15.0339015 C33.6278422,15.0035983 33.8394878,14.9785039 34.0014205,14.9586174 C34.1633531,14.938731 34.2817231,14.9060608 34.3565341,14.8606061 C34.4313451,14.8151513 34.46875,14.7412884 34.46875,14.6390152 L34.46875,14.6191288 C34.46875,14.3710215 34.3991484,14.1787886 34.2599432,14.0424242 C34.1207379,13.9060599 33.9138271,13.8378788 33.6392045,13.8378788 C33.3532183,13.8378788 33.1283152,13.9003782 32.9644886,14.0253788 C32.8006621,14.1503788 32.6875003,14.2905295 32.625,14.4458333 L31.8267045,14.2640152 C31.9687507,13.8662859 32.2059642,13.5812509 32.5383523,13.4089015 C32.8707403,13.2365522 33.2338995,13.1503788 33.6278409,13.1503788 C33.8020842,13.1503788 33.9867414,13.1707384 34.1818182,13.2114583 C34.3768949,13.2521782 34.5610787,13.3269881 34.734375,13.4358902 C34.9076713,13.5447922 35.0487684,13.6986732 35.1576705,13.8975379 C35.2665725,14.0964025 35.3210227,14.3549227 35.3210227,14.6731061 L35.3210227,17.5708333 L34.4914773,17.5708333 L34.4914773,16.9742424 L34.4573864,16.9742424 C34.3759466,17.137122 34.2310616,17.2933705 34.0227273,17.4429924 C33.8143929,17.5926144 33.5293579,17.6674242 33.1676136,17.6674242 Z M33.3522727,16.9856061 C33.5890163,16.9856061 33.7907189,16.939205 33.9573864,16.8464015 C34.1240539,16.753598 34.25142,16.6319136 34.3394886,16.4813447 C34.4275573,16.3307758 34.4715909,16.169319 34.4715909,15.9969697 L34.4715909,15.4344697 C34.431818,15.4742426 34.3446976,15.5092802 34.2102273,15.5395833 C34.0757569,15.5698865 33.9337129,15.5954544 33.7840909,15.6162879 C33.6344689,15.6371213 33.513258,15.6541666 33.4204545,15.6674242 C33.1742412,15.6996214 32.9635425,15.7644881 32.7883523,15.8620265 C32.613162,15.9595649 32.5255682,16.1219686 32.5255682,16.3492424 C32.5255682,16.5594707 32.6032189,16.7180866 32.7585227,16.8250947 C32.9138265,16.9321028 33.1117412,16.9856061 33.3522727,16.9856061 Z M36.4517045,17.5708333 L36.4517045,13.207197 L37.3011364,13.207197 L37.3011364,17.5708333 L36.4517045,17.5708333 Z M36.8806818,12.5481061 C36.7329538,12.5481061 36.6065346,12.4974437 36.5014205,12.3961174 C36.3963063,12.2947912 36.34375,12.1731068 36.34375,12.0310606 C36.34375,11.8890144 36.3963063,11.7678035 36.5014205,11.6674242 C36.6065346,11.567045 36.7329538,11.5168561 36.8806818,11.5168561 C37.0265159,11.5168561 37.1524616,11.567045 37.2585227,11.6674242 C37.3645839,11.7678035 37.4176136,11.8890144 37.4176136,12.0310606 C37.4176136,12.1731068 37.3645839,12.2947912 37.2585227,12.3961174 C37.1524616,12.4974437 37.0265159,12.5481061 36.8806818,12.5481061 Z M39.2926136,14.9799242 L39.2926136,17.5708333 L38.4431818,17.5708333 L38.4431818,13.207197 L39.2585227,13.207197 L39.2585227,13.9174242 L39.3125,13.9174242 C39.4128793,13.6863625 39.5705482,13.5007583 39.7855114,13.3606061 C40.0004746,13.2204538 40.2717787,13.1503788 40.5994318,13.1503788 C41.0464037,13.1503788 41.4057752,13.2895819 41.6775568,13.5679924 C41.9493385,13.8464029 42.0852273,14.2554897 42.0852273,14.7952652 L42.0852273,17.5708333 L41.2357955,17.5708333 L41.2357955,14.8975379 C41.2357955,14.5812484 41.1534099,14.3336183 40.9886364,14.1546402 C40.8238628,13.975662 40.5975393,13.8861742 40.3096591,13.8861742 C40.0142031,13.8861742 39.7708343,13.9813437 39.5795455,14.1716856 C39.3882566,14.3620275 39.2926136,14.6314377 39.2926136,14.9799242 Z M45.9005682,17.5708333 L44.96875,17.5708333 L47.0625,11.7526515 L48.0767045,11.7526515 L50.1704545,17.5708333 L49.2386364,17.5708333 L48.7073864,16.0310606 L46.4346591,16.0310606 L45.9005682,17.5708333 Z M46.6903409,15.2924242 L48.4517045,15.2924242 L47.59375,12.8094697 L47.5482955,12.8094697 L46.6903409,15.2924242 Z M52.7784091,17.6589015 C52.3560585,17.6589015 51.9928992,17.5627851 51.6889205,17.3705492 C51.3849417,17.1783134 51.151516,16.9126911 50.9886364,16.5736742 C50.8257568,16.2346574 50.7443182,15.8464037 50.7443182,15.4089015 C50.7443182,14.9638235 50.8276507,14.571782 50.9943182,14.2327652 C51.1609857,13.8937483 51.3963053,13.6285994 51.7002841,13.4373106 C52.0042629,13.2460218 52.3607934,13.1503788 52.7698864,13.1503788 C53.1013274,13.1503788 53.396779,13.2114577 53.65625,13.3336174 C53.915721,13.4557771 54.1254727,13.6267034 54.2855114,13.8464015 C54.44555,14.0660996 54.5407195,14.3227258 54.5710227,14.6162879 L53.7443182,14.6162879 C53.6988634,14.4117414 53.5951713,14.2356068 53.4332386,14.0878788 C53.271306,13.9401508 53.0549256,13.8662879 52.7840909,13.8662879 C52.4299225,13.8662879 52.144414,14.0031236 51.9275568,14.2767992 C51.7106997,14.5504749 51.6022727,14.9212098 51.6022727,15.3890152 C51.6022727,15.8643963 51.7092792,16.24176 51.9232955,16.5211174 C52.1373117,16.8004749 52.4242406,16.9401515 52.7840909,16.9401515 C53.0265164,16.9401515 53.2339007,16.8738643 53.40625,16.7412879 C53.5785993,16.6087115 53.6912876,16.4250012 53.7443182,16.1901515 L54.5710227,16.1901515 C54.5407195,16.4723499 54.4488644,16.7242413 54.2954545,16.9458333 C54.1420447,17.1674254 53.9370278,17.341666 53.6803977,17.4685606 C53.4237677,17.5954552 53.1231078,17.6589015 52.7784091,17.6589015 Z M57.3210227,17.6589015 C56.8986721,17.6589015 56.5355129,17.5627851 56.2315341,17.3705492 C55.9275553,17.1783134 55.6941296,16.9126911 55.53125,16.5736742 C55.3683704,16.2346574 55.2869318,15.8464037 55.2869318,15.4089015 C55.2869318,14.9638235 55.3702643,14.571782 55.5369318,14.2327652 C55.7035993,13.8937483 55.9389189,13.6285994 56.2428977,13.4373106 C56.5468765,13.2460218 56.903407,13.1503788 57.3125,13.1503788 C57.6439411,13.1503788 57.9393926,13.2114577 58.1988636,13.3336174 C58.4583346,13.4557771 58.6680863,13.6267034 58.828125,13.8464015 C58.9881637,14.0660996 59.0833332,14.3227258 59.1136364,14.6162879 L58.2869318,14.6162879 C58.241477,14.4117414 58.1377849,14.2356068 57.9758523,14.0878788 C57.8139196,13.9401508 57.5975392,13.8662879 57.3267045,13.8662879 C56.9725361,13.8662879 56.6870276,14.0031236 56.4701705,14.2767992 C56.2533133,14.5504749 56.1448864,14.9212098 56.1448864,15.3890152 C56.1448864,15.8643963 56.2518929,16.24176 56.4659091,16.5211174 C56.6799253,16.8004749 56.9668543,16.9401515 57.3267045,16.9401515 C57.56913,16.9401515 57.7765143,16.8738643 57.9488636,16.7412879 C58.121213,16.6087115 58.2339012,16.4250012 58.2869318,16.1901515 L59.1136364,16.1901515 C59.0833332,16.4723499 58.991478,16.7242413 58.8380682,16.9458333 C58.6846583,17.1674254 58.4796414,17.341666 58.2230114,17.4685606 C57.9663813,17.5954552 57.6657214,17.6589015 57.3210227,17.6589015 Z M61.8636364,17.6589015 C61.4545434,17.6589015 61.0975394,17.5651525 60.7926136,17.3776515 C60.4876879,17.1901506 60.2509478,16.9273691 60.0823864,16.5892992 C59.9138249,16.2512294 59.8295455,15.8577674 59.8295455,15.4089015 C59.8295455,14.9562477 59.9138249,14.5604184 60.0823864,14.2214015 C60.2509478,13.8823847 60.4876879,13.6191297 60.7926136,13.4316288 C61.0975394,13.2441279 61.4545434,13.1503788 61.8636364,13.1503788 C62.2746233,13.1503788 62.6321008,13.2441279 62.9360795,13.4316288 C63.2400583,13.6191297 63.4763249,13.8823847 63.6448864,14.2214015 C63.8134478,14.5604184 63.8977273,14.9562477 63.8977273,15.4089015 C63.8977273,15.8577674 63.8134478,16.2512294 63.6448864,16.5892992 C63.4763249,16.9273691 63.2400583,17.1901506 62.9360795,17.3776515 C62.6321008,17.5651525 62.2746233,17.6589015 61.8636364,17.6589015 Z M61.8664773,16.9458333 C62.1335241,16.9458333 62.3536923,16.8757583 62.5269886,16.7356061 C62.700285,16.5954538 62.8290715,16.4084292 62.9133523,16.1745265 C62.997633,15.9406238 63.0397727,15.6844711 63.0397727,15.4060606 C63.0397727,15.1276501 62.997633,14.8710239 62.9133523,14.6361742 C62.8290715,14.4013246 62.700285,14.213353 62.5269886,14.0722538 C62.3536923,13.9311546 62.1335241,13.8606061 61.8664773,13.8606061 C61.5994305,13.8606061 61.3787888,13.9311546 61.2045455,14.0722538 C61.0303022,14.213353 60.9005686,14.4013246 60.8153409,14.6361742 C60.7301132,14.8710239 60.6875,15.1276501 60.6875,15.4060606 C60.6875,15.6844711 60.7301132,15.9406238 60.8153409,16.1745265 C60.9005686,16.4084292 61.0303022,16.5954538 61.2045455,16.7356061 C61.3787888,16.8757583 61.5994305,16.9458333 61.8664773,16.9458333 Z M67.6079545,15.7611742 L67.6079545,13.207197 L68.4602273,13.207197 L68.4602273,17.5708333 L67.625,17.5708333 L67.625,16.8151515 L67.5795455,16.8151515 C67.4791662,17.0481072 67.3186564,17.2417606 67.0980114,17.3961174 C66.8773663,17.5504743 66.6032213,17.6276515 66.2755682,17.6276515 C65.8570055,17.6276515 65.5137324,17.4889218 65.2457386,17.2114583 C64.9777449,16.9339948 64.84375,16.5244345 64.84375,15.9827652 L64.84375,13.207197 L65.6931818,13.207197 L65.6931818,15.8804924 C65.6931818,16.1778424 65.7755674,16.4145825 65.9403409,16.5907197 C66.1051145,16.7668569 66.3191275,16.8549242 66.5823864,16.8549242 C66.7414781,16.8549242 66.9000939,16.8151519 67.0582386,16.7356061 C67.2163834,16.6560602 67.3480108,16.5353228 67.453125,16.3733902 C67.5582392,16.2114575 67.6098485,16.0073876 67.6079545,15.7611742 Z M70.4488636,14.9799242 L70.4488636,17.5708333 L69.5994318,17.5708333 L69.5994318,13.207197 L70.4147727,13.207197 L70.4147727,13.9174242 L70.46875,13.9174242 C70.5691293,13.6863625 70.7267982,13.5007583 70.9417614,13.3606061 C71.1567246,13.2204538 71.4280287,13.1503788 71.7556818,13.1503788 C72.2026537,13.1503788 72.5620252,13.2895819 72.8338068,13.5679924 C73.1055885,13.8464029 73.2414773,14.2554897 73.2414773,14.7952652 L73.2414773,17.5708333 L72.3920455,17.5708333 L72.3920455,14.8975379 C72.3920455,14.5812484 72.3096599,14.3336183 72.1448864,14.1546402 C71.9801128,13.975662 71.7537893,13.8861742 71.4659091,13.8861742 C71.1704531,13.8861742 70.9270843,13.9813437 70.7357955,14.1716856 C70.5445066,14.3620275 70.4488636,14.6314377 70.4488636,14.9799242 Z M76.4147727,13.207197 L76.4147727,13.8890152 L75.5198864,13.8890152 L75.5198864,16.2867424 C75.5198864,16.5329558 75.5724427,16.6915716 75.6775568,16.7625947 C75.782671,16.8336178 75.9043554,16.8691288 76.0426136,16.8691288 C76.1107958,16.8691288 76.1704543,16.864394 76.2215909,16.8549242 C76.2727275,16.8454545 76.3124999,16.8378788 76.3409091,16.832197 L76.4943182,17.5339015 C76.4450755,17.552841 76.374527,17.5722537 76.2826705,17.5921402 C76.1908139,17.6120266 76.0776522,17.6229167 75.9431818,17.6248106 C75.7196959,17.6285985 75.5108911,17.5883527 75.3167614,17.504072 C75.1226316,17.4197912 74.9663832,17.2910047 74.8480114,17.1177083 C74.7296396,16.944412 74.6704545,16.7261377 74.6704545,16.4628788 L74.6704545,13.8890152 L74.03125,13.8890152 L74.03125,13.207197 L74.6704545,13.207197 L74.6704545,12.1617424 L75.5198864,12.1617424 L75.5198864,13.207197 L76.4147727,13.207197 Z" id="Main-Account" fill="#BD2A67"></path>
                    <path d="M121.522727,15.4479167 L121.522727,10.7213587 L128.612564,10.7213587 L128.612564,15.4479167 L121.522727,15.4479167 Z M128.397727,15.4479167 L128.397727,10.7213587 L135.487564,10.7213587 L135.487564,15.4479167 L128.397727,15.4479167 Z M128.397727,22.4479167 L128.397727,17.7213587 L135.487564,17.7213587 L135.487564,22.4479167 L128.397727,22.4479167 Z" id="Tng" fill="#D12869"></path>
                    <text id="Tng-Copy" font-family="BLOKKNeue-Regular, BLOKK Neue" font-size="11" font-weight="normal" fill="#D12869">
                        <tspan x="10.25" y="65.4729167">Tn</tspan>
                        <tspan x="17.125" y="72.4729167">g</tspan>
                    </text>
                </g>
                <g id="Rectangle-10">
                    <use fill="black" fill-opacity="1" filter="url(#filter-12)" xlink:href="#path-11"></use>
                    <use fill="#FFFFFF" fill-rule="evenodd" xlink:href="#path-11"></use>
                </g>
            </g>
        </g>
    </g>
</svg>
