<svg xmlns="http://www.w3.org/2000/svg" xmlns:xlink="http://www.w3.org/1999/xlink" width="183" height="198" viewBox="0 0 183 198">
    <defs>
        <path id="b" d="M14 62h131c7.732 0 14 6.268 14 14v72c0 7.732-6.268 14-14 14H14c-7.732 0-14-6.268-14-14V76c0-7.732 6.268-14 14-14z"/>
        <filter id="a" width="117%" height="127%" x="-8.5%" y="-13.5%" filterUnits="objectBoundingBox">
            <feOffset in="SourceAlpha" result="shadowOffsetOuter1"/>
            <feGaussianBlur in="shadowOffsetOuter1" result="shadowBlurOuter1" stdDeviation="4.5"/>
            <feColorMatrix in="shadowBlurOuter1" values="0 0 0 0 0.105882353 0 0 0 0 0.266666667 0 0 0 0 0.474509804 0 0 0 0.15 0"/>
        </filter>
        <path id="d" d="M4 0h136a4 4 0 0 1 4 4v79a4 4 0 0 1-4 4H4a4 4 0 0 1-4-4V4a4 4 0 0 1 4-4z"/>
        <filter id="c" width="133.3%" height="155.2%" x="-16.7%" y="-27.6%" filterUnits="objectBoundingBox">
            <feOffset in="SourceAlpha" result="shadowOffsetOuter1"/>
            <feGaussianBlur in="shadowOffsetOuter1" result="shadowBlurOuter1" stdDeviation="8"/>
            <feColorMatrix in="shadowBlurOuter1" values="0 0 0 0 0.105882353 0 0 0 0 0.266666667 0 0 0 0 0.474509804 0 0 0 0.2 0"/>
        </filter>
        <path id="f" d="M4 0h136a4 4 0 0 1 4 4v79a4 4 0 0 1-4 4H4a4 4 0 0 1-4-4V4a4 4 0 0 1 4-4z"/>
        <filter id="e" width="133.3%" height="155.2%" x="-16.7%" y="-27.6%" filterUnits="objectBoundingBox">
            <feOffset in="SourceAlpha" result="shadowOffsetOuter1"/>
            <feGaussianBlur in="shadowOffsetOuter1" result="shadowBlurOuter1" stdDeviation="8"/>
            <feColorMatrix in="shadowBlurOuter1" values="0 0 0 0 0.105882353 0 0 0 0 0.266666667 0 0 0 0 0.474509804 0 0 0 0.2 0"/>
        </filter>
        <path id="h" d="M4 0h136a4 4 0 0 1 4 4v79a4 4 0 0 1-4 4H4a4 4 0 0 1-4-4V4a4 4 0 0 1 4-4z"/>
        <filter id="g" width="133.3%" height="155.2%" x="-16.7%" y="-27.6%" filterUnits="objectBoundingBox">
            <feOffset in="SourceAlpha" result="shadowOffsetOuter1"/>
            <feGaussianBlur in="shadowOffsetOuter1" result="shadowBlurOuter1" stdDeviation="8"/>
            <feColorMatrix in="shadowBlurOuter1" values="0 0 0 0 0.105882353 0 0 0 0 0.266666667 0 0 0 0 0.474509804 0 0 0 0.2 0"/>
        </filter>
        <path id="j" d="M4 0h136a4 4 0 0 1 4 4v79a4 4 0 0 1-4 4H4a4 4 0 0 1-4-4V4a4 4 0 0 1 4-4z"/>
        <filter id="i" width="133.3%" height="155.2%" x="-16.7%" y="-27.6%" filterUnits="objectBoundingBox">
            <feOffset in="SourceAlpha" result="shadowOffsetOuter1"/>
            <feGaussianBlur in="shadowOffsetOuter1" result="shadowBlurOuter1" stdDeviation="8"/>
            <feColorMatrix in="shadowBlurOuter1" values="0 0 0 0 0.105882353 0 0 0 0 0.266666667 0 0 0 0 0.474509804 0 0 0 0.2 0"/>
        </filter>
        <path id="l" d="M71.004 102a8.88 8.88 0 0 0-.013.486c0 4.83 3.918 8.746 8.752 8.746 4.834 0 8.752-3.916 8.752-8.746a8.88 8.88 0 0 0-.013-.486H159v59c0 5.523-4.477 10-10 10H10c-5.523 0-10-4.477-10-10v-59h71.004z"/>
        <filter id="k" width="117%" height="139.1%" x="-8.5%" y="-19.6%" filterUnits="objectBoundingBox">
            <feOffset in="SourceAlpha" result="shadowOffsetOuter1"/>
            <feGaussianBlur in="shadowOffsetOuter1" result="shadowBlurOuter1" stdDeviation="4.5"/>
            <feColorMatrix in="shadowBlurOuter1" values="0 0 0 0 0.105882353 0 0 0 0 0.266666667 0 0 0 0 0.474509804 0 0 0 0.15 0"/>
        </filter>
    </defs>
    <g fill="none" fill-rule="evenodd">
        <g transform="translate(12 15)">
            <use fill="#000" filter="url(#a)" xlink:href="#b"/>
            <use fill="#FFF" xlink:href="#b"/>
        </g>
        <g transform="rotate(-4 380.004 -221.138)">
            <use fill="#000" filter="url(#c)" xlink:href="#d"/>
            <use fill="#203040" xlink:href="#d"/>
            <text fill="#4E5A66" font-family="BLOKKNeue-Regular, BLOKK Neue" font-size="12">
                <tspan x="75.226" y="42.85">··· ··· </tspan> <tspan x="112.773" y="54.85">···</tspan> <tspan x="75.226" y="66.85">··· ··· </tspan> <tspan x="112.773" y="78.85">···</tspan> <tspan x="75.226" y="90.85">Q8R cgH </tspan> <tspan x="112.773" y="102.85">P1e</tspan>
            </text>
            <path fill="#001833" d="M0 72.5h144V83a4 4 0 0 1-4 4H4a4 4 0 0 1-4-4V72.5z"/>
            <ellipse cx="12.364" cy="12.325" fill="#4E5A66" rx="7.273" ry="7.25"/>
            <text fill="#76818C" font-family="InterUI-Medium, Inter UI" font-size="8" font-weight="400">
                <tspan x="24" y="15.571">Daily Account</tspan>
            </text>
            <text fill="#4E5A66" font-family="BLOKKNeue-Regular, BLOKK Neue" font-size="11">
                <tspan x="121.523" y="15.448">Tn</tspan> <tspan x="128.398" y="22.448">g</tspan>
            </text>
            <text fill="#4E5A66" font-family="BLOKKNeue-Regular, BLOKK Neue" font-size="11">
                <tspan x="10.25" y="65.473">Tn</tspan> <tspan x="17.125" y="72.473">g</tspan>
            </text>
        </g>
        <g transform="rotate(1 -2599.26 1342.65)">
            <use fill="#000" filter="url(#e)" xlink:href="#f"/>
            <use fill="#14CCB7" xlink:href="#f"/>
            <text fill="#02BDAA" font-family="BLOKKNeue-Regular, BLOKK Neue" font-size="12">
                <tspan x="75.226" y="42.85">··· ··· </tspan> <tspan x="112.773" y="54.85">···</tspan> <tspan x="75.226" y="66.85">··· ··· </tspan> <tspan x="112.773" y="78.85">···</tspan> <tspan x="75.226" y="90.85">Q8R cgH </tspan> <tspan x="112.773" y="102.85">P1e</tspan>
            </text>
            <path fill="#D12869" d="M0 72.5h144V83a4 4 0 0 1-4 4H4a4 4 0 0 1-4-4V72.5z"/>
            <ellipse cx="12.364" cy="12.325" fill="#05ADA8" rx="7.273" ry="7.25"/>
            <text fill="#099C9D" font-family="InterUI-Medium, Inter UI" font-size="8" font-weight="400">
                <tspan x="24" y="15.571">Vault Account</tspan>
            </text>
            <text fill="#05ADA8" font-family="BLOKKNeue-Regular, BLOKK Neue" font-size="11">
                <tspan x="121.523" y="15.448">Tn</tspan> <tspan x="128.398" y="22.448">g</tspan>
            </text>
            <text fill="#D12869" font-family="BLOKKNeue-Regular, BLOKK Neue" font-size="11">
                <tspan x="10.25" y="65.473">Tn</tspan> <tspan x="17.125" y="72.473">g</tspan>
            </text>
        </g>
        <g transform="rotate(-5 894.084 -127.134)">
            <use fill="#000" filter="url(#g)" xlink:href="#h"/>
            <use fill="#6948A1" xlink:href="#h"/>
            <text fill="#E72B6E" font-family="BLOKKNeue-Regular, BLOKK Neue" font-size="12">
                <tspan x="75.226" y="42.85">··· ··· </tspan> <tspan x="112.773" y="54.85">···</tspan> <tspan x="75.226" y="66.85">··· ··· </tspan> <tspan x="112.773" y="78.85">···</tspan> <tspan x="75.226" y="90.85">Q8R cgH </tspan> <tspan x="112.773" y="102.85">P1e</tspan>
            </text>
            <path fill="#D12869" d="M0 72.5h144V83a4 4 0 0 1-4 4H4a4 4 0 0 1-4-4V72.5z"/>
            <ellipse cx="12.364" cy="12.325" fill="#513482" rx="7.273" ry="7.25"/>
            <text fill="#442873" font-family="InterUI-Medium, Inter UI" font-size="8" font-weight="400">
                <tspan x="24" y="15.571">Governance Account</tspan>
            </text>
            <text fill="#513482" font-family="BLOKKNeue-Regular, BLOKK Neue" font-size="11">
                <tspan x="121.523" y="15.448">Tn</tspan> <tspan x="128.398" y="22.448">g</tspan>
            </text>
            <text fill="#D12869" font-family="BLOKKNeue-Regular, BLOKK Neue" font-size="11">
                <tspan x="10.25" y="65.473">Tn</tspan> <tspan x="17.125" y="72.473">g</tspan>
            </text>
        </g>
        <g transform="translate(19 95)">
            <use fill="#000" filter="url(#i)" xlink:href="#j"/>
            <use fill="#FF0D6A" xlink:href="#j"/>
            <path fill="#D12869" d="M0 72.5h144V83a4 4 0 0 1-4 4H4a4 4 0 0 1-4-4V72.5z"/>
            <ellipse cx="12.364" cy="12.325" fill="#D12869" rx="7.273" ry="7.25"/>
            <text fill="#BD2A67" font-family="InterUI-Medium, Inter UI" font-size="8" font-weight="400">
                <tspan x="24" y="15.571">Main Account</tspan>
            </text>
            <text fill="#D12869" font-family="BLOKKNeue-Regular, BLOKK Neue" font-size="11">
                <tspan x="121.523" y="15.448">Tn</tspan> <tspan x="128.398" y="22.448">g</tspan>
            </text>
            <text fill="#D12869" font-family="BLOKKNeue-Regular, BLOKK Neue" font-size="11">
                <tspan x="10.25" y="65.473">Tn</tspan> <tspan x="17.125" y="72.473">g</tspan>
            </text>
        </g>
        <g transform="translate(12 15)">
            <use fill="#000" filter="url(#k)" xlink:href="#l"/>
            <use fill="#FFF" xlink:href="#l"/>
        </g>
    </g>
</svg>
