<?xml version="1.0" encoding="UTF-8"?>
<svg viewBox="0 0 217 268" version="1.1" xmlns="http://www.w3.org/2000/svg" xmlns:xlink="http://www.w3.org/1999/xlink">
    <!-- Generator: Sketch 55.1 (78136) - https://sketchapp.com -->
    <title>Group 10</title>
    <desc>Created with Sketch.</desc>
    <defs>
        <path d="M16,0 L96,0 C104.836556,6.22518934e-15 112,7.163444 112,16 L112,212.809816 C112,221.646372 104.836556,228.809816 96,228.809816 L16,228.809816 C7.163444,228.809816 1.082166e-15,221.646372 0,212.809816 L0,16 C-1.082166e-15,7.163444 7.163444,1.623249e-15 16,0 Z" id="path-1"></path>
        <filter x="-21.4%" y="-10.5%" width="142.9%" height="121.0%" filterUnits="objectBoundingBox" id="filter-2">
            <feOffset dx="0" dy="0" in="SourceAlpha" result="shadowOffsetOuter1"></feOffset>
            <feGaussianBlur stdDeviation="8" in="shadowOffsetOuter1" result="shadowBlurOuter1"></feGaussianBlur>
            <feColorMatrix values="0 0 0 0 0.105882353   0 0 0 0 0.266666667   0 0 0 0 0.474509804  0 0 0 0.15 0" type="matrix" in="shadowBlurOuter1"></feColorMatrix>
        </filter>
        <rect id="path-3" x="0" y="0" width="185" height="144" rx="2"></rect>
        <filter x="-13.0%" y="-16.7%" width="125.9%" height="133.3%" filterUnits="objectBoundingBox" id="filter-4">
            <feOffset dx="0" dy="0" in="SourceAlpha" result="shadowOffsetOuter1"></feOffset>
            <feGaussianBlur stdDeviation="8" in="shadowOffsetOuter1" result="shadowBlurOuter1"></feGaussianBlur>
            <feColorMatrix values="0 0 0 0 0.105882353   0 0 0 0 0.266666667   0 0 0 0 0.474509804  0 0 0 0.15 0" type="matrix" in="shadowBlurOuter1"></feColorMatrix>
        </filter>
        <rect id="path-5" x="1.33333333" y="1.33333333" width="13.3333333" height="13.3333333" rx="6.66666667"></rect>
        <filter x="-180.0%" y="-180.0%" width="460.0%" height="460.0%" filterUnits="objectBoundingBox" id="filter-6">
            <feOffset dx="0" dy="0" in="SourceAlpha" result="shadowOffsetOuter1"></feOffset>
            <feGaussianBlur stdDeviation="8" in="shadowOffsetOuter1" result="shadowBlurOuter1"></feGaussianBlur>
            <feColorMatrix values="0 0 0 0 0.105882353   0 0 0 0 0.266666667   0 0 0 0 0.474509804  0 0 0 0.15 0" type="matrix" in="shadowBlurOuter1"></feColorMatrix>
        </filter>
        <rect id="path-7" x="1.33333333" y="1.33333333" width="13.3333333" height="13.3333333" rx="6.66666667"></rect>
        <filter x="-180.0%" y="-180.0%" width="460.0%" height="460.0%" filterUnits="objectBoundingBox" id="filter-8">
            <feOffset dx="0" dy="0" in="SourceAlpha" result="shadowOffsetOuter1"></feOffset>
            <feGaussianBlur stdDeviation="8" in="shadowOffsetOuter1" result="shadowBlurOuter1"></feGaussianBlur>
            <feColorMatrix values="0 0 0 0 0.105882353   0 0 0 0 0.266666667   0 0 0 0 0.474509804  0 0 0 0.15 0" type="matrix" in="shadowBlurOuter1"></feColorMatrix>
        </filter>
    </defs>
    <g id="BaseApp-0.6.x" stroke="none" stroke-width="1" fill="none" fill-rule="evenodd">
        <g id="v0.6.x-00.04-Onboarding" transform="translate(-79.000000, -101.000000)">
            <g id="Group-10" transform="translate(95.000000, 117.000000)">
                <g id="Group-5" transform="translate(37.000000, 0.000000)">
                    <rect id="Rectangle" stroke="#979797" fill="#D8D8D8" x="50.2" y="74" width="5.3" height="1"></rect>
                    <g id="Group-9">
                        <g id="Group-3">
                            <g id="Rectangle-10">
                                <use fill="black" fill-opacity="1" filter="url(#filter-2)" xlink:href="#path-1"></use>
                                <use fill="#FFFFFF" fill-rule="evenodd" xlink:href="#path-1"></use>
                            </g>
                            <path d="M9,27.3 L103.257669,27.3 C104.362238,27.3 105.257669,28.1954305 105.257669,29.3 L105.257669,199.827607 C105.257669,200.932177 104.362238,201.827607 103.257669,201.827607 L9,201.827607 C7.8954305,201.827607 7,200.932177 7,199.827607 L7,29.3 C7,28.1954305 7.8954305,27.3 9,27.3 Z" id="Rectangle-12" fill="#FF0D6A"></path>
                            <path d="M19.3,172.2 L64.7,172.2 C68.0137085,172.2 70.7,174.886292 70.7,178.2 L70.7,182.3 C70.7,185.613708 68.0137085,188.3 64.7,188.3 L13.3,188.3 L13.3,178.2 C13.3,174.886292 15.9862915,172.2 19.3,172.2 Z" id="Rectangle" fill="#D12869"></path>
                            <path d="M19.3,82.6 L64.7,82.6 C68.0137085,82.6 70.7,85.2862915 70.7,88.6 L70.7,124.2 C70.7,127.513708 68.0137085,130.2 64.7,130.2 L13.3,130.2 L13.3,88.6 C13.3,85.2862915 15.9862915,82.6 19.3,82.6 Z" id="Rectangle-Copy-2" fill="#D12869"></path>
                            <path d="M92.6,135.1 C97.1287349,135.1 100.8,138.625758 100.8,142.975 L100.8,166.6 L51.6,166.6 C47.0712651,166.6 43.4,163.074242 43.4,158.725 L43.4,142.975 C43.4,138.625758 47.0712651,135.1 51.6,135.1 L92.6,135.1 Z" id="Rectangle-Copy-4" fill="#D12869"></path>
                            <path d="M92.6,61.6 C97.1287349,61.6 100.8,65.2041078 100.8,69.65 L100.8,77.7 L51.6,77.7 C47.0712651,77.7 43.4,74.0958922 43.4,69.65 C43.4,65.2041078 47.0712651,61.6 51.6,61.6 L92.6,61.6 Z" id="Rectangle-Copy-3" fill="#D12869"></path>
                            <g id="Group-4" transform="translate(12.600000, 32.200000)" fill="#D12869">
                                <circle id="Oval-9" cx="7" cy="7" r="7"></circle>
                                <path d="M18.2,10.15 L18.2,5.42344201 L25.289837,5.42344201 L25.289837,10.15 L18.2,10.15 Z M25.075,10.15 L25.075,5.42344201 L32.164837,5.42344201 L32.164837,10.15 L25.075,10.15 Z M31.95,10.15 L31.95,5.42344201 L39.039837,5.42344201 L39.039837,10.15 L31.95,10.15 Z M38.825,10.15 L38.825,5.42344201 L45.914837,5.42344201 L45.914837,10.15 L38.825,10.15 Z M45.7,10.15 L45.7,5.42344201 L52.789837,5.42344201 L52.789837,10.15 L45.7,10.15 Z M52.575,10.15 L52.575,5.42344201 L59.664837,5.42344201 L59.664837,10.15 L52.575,10.15 Z M59.45,10.15 L59.45,5.42344201 L66.539837,5.42344201 L66.539837,10.15 L59.45,10.15 Z M18.2,17.15 L18.2,12.423442 L25.289837,12.423442 L25.289837,17.15 L18.2,17.15 Z M25.075,17.15 L25.075,12.423442 L32.164837,12.423442 L32.164837,17.15 L25.075,17.15 Z M31.95,17.15 L31.95,12.423442 L39.039837,12.423442 L39.039837,17.15 L31.95,17.15 Z" id="Tycesoming" fill-rule="nonzero"></path>
                            </g>
                        </g>
                    </g>
                </g>
                <g id="Group-8" transform="translate(0.000000, 92.000000)">
                    <g id="Group-6">
                        <g id="Rectangle-12-Copy">
                            <use fill="black" fill-opacity="1" filter="url(#filter-4)" xlink:href="#path-3"></use>
                            <use fill="#FFFFFF" fill-rule="evenodd" xlink:href="#path-3"></use>
                        </g>
                        <path d="M6,73 L177,73" id="Line-Copy-4" stroke="#EDF3F7" stroke-width="2" stroke-linecap="square"></path>
                        <path d="M6,37 L177,37" id="Line-Copy" stroke="#EDF3F7" stroke-width="2" stroke-linecap="square"></path>
                        <path d="M6,109 L177,109" id="Line-Copy-5" stroke="#EDF3F7" stroke-width="2" stroke-linecap="square"></path>
                        <g id="Group-5" transform="translate(161.000000, 118.000000)">
                            <g id="Group">
                                <rect id="Rectangle-3" fill="#FF0D6A" x="0" y="0" width="16" height="16" rx="8"></rect>
                                <rect id="Rectangle-3-Copy-2" x="1.33333333" y="1.33333333" width="13.3333333" height="13.3333333" rx="6.66666667"></rect>
                            </g>
                            <polygon id="✓" fill="#FFFFFF" points="11.9141727 6.00663387 6.97099564 10.9214019 4.17270285 8.13731365 5.11020196 7.18561002 6.97099564 9.03219916 10.9624691 5.06913476"></polygon>
                        </g>
                        <g id="Group-5-Copy" transform="translate(161.000000, 12.000000)">
                            <g id="Group">
                                <rect id="Rectangle-3" fill="#FF0D6A" x="0" y="0" width="16" height="16" rx="8"></rect>
                                <rect id="Rectangle-3-Copy-2" x="1.33333333" y="1.33333333" width="13.3333333" height="13.3333333" rx="6.66666667"></rect>
                            </g>
                            <polygon id="✓" fill="#FFFFFF" points="11.9141727 6.00663387 6.97099564 10.9214019 4.17270285 8.13731365 5.11020196 7.18561002 6.97099564 9.03219916 10.9624691 5.06913476"></polygon>
                        </g>
                        <g id="Group-Copy" transform="translate(161.000000, 83.000000)">
                            <rect id="Rectangle-3" fill="#D3DCE6" x="0" y="0" width="16" height="16" rx="8"></rect>
                            <g id="Rectangle-3-Copy-2">
                                <use fill="black" fill-opacity="1" filter="url(#filter-6)" xlink:href="#path-5"></use>
                                <use fill="#FFFFFF" fill-rule="evenodd" xlink:href="#path-5"></use>
                            </g>
                        </g>
                        <g id="Group-Copy-2" transform="translate(161.000000, 47.000000)">
                            <rect id="Rectangle-3" fill="#D3DCE6" x="0" y="0" width="16" height="16" rx="8"></rect>
                            <g id="Rectangle-3-Copy-2">
                                <use fill="black" fill-opacity="1" filter="url(#filter-8)" xlink:href="#path-7"></use>
                                <use fill="#FFFFFF" fill-rule="evenodd" xlink:href="#path-7"></use>
                            </g>
                        </g>
                        <text id="Daily-Account" font-family="Helvetica" font-size="10" font-weight="normal" line-spacing="16" fill="#203040">
                            <tspan x="33" y="22">Daily Account</tspan>
                        </text>
                        <text id="Vault-Account" font-family="Helvetica" font-size="10" font-weight="normal" line-spacing="16" fill="#203040">
                            <tspan x="33" y="58">Vault Account</tspan>
                        </text>
                        <text id="Governace-Account" font-family="Helvetica" font-size="10" font-weight="normal" line-spacing="16" fill="#203040">
                            <tspan x="33" y="94">Governace Account</tspan>
                        </text>
                        <text id="Main-Account" font-family="Helvetica" font-size="10" font-weight="normal" line-spacing="16" fill="#203040">
                            <tspan x="33" y="129">Main  Account</tspan>
                        </text>
                    </g>
                    <g id="Group-7" transform="translate(7.000000, 13.000000)">
                        <rect id="Rectangle-16" fill="#203040" x="0" y="0" width="20" height="15" rx="2"></rect>
                        <rect id="Rectangle-16-Copy" fill="#14CCB7" x="0" y="36" width="20" height="15" rx="2"></rect>
                        <rect id="Rectangle-17" fill="#4E5A66" x="2" y="4" width="9" height="3"></rect>
                        <rect id="Rectangle-17-Copy" fill="#05ADA8" x="2" y="40" width="9" height="3"></rect>
                        <rect id="Rectangle-16-Copy-2" fill="#6948A1" x="0" y="72" width="20" height="15" rx="2"></rect>
                        <rect id="Rectangle-17-Copy-2" fill="#513482" x="2" y="76" width="9" height="3"></rect>
                        <rect id="Rectangle-16-Copy-3" fill="#FF0D6A" x="0" y="108" width="20" height="15" rx="2"></rect>
                        <rect id="Rectangle-17-Copy-3" fill="#E72B6E" x="2" y="112" width="9" height="3"></rect>
                    </g>
                </g>
            </g>
        </g>
    </g>
</svg>
