<svg xmlns="http://www.w3.org/2000/svg" xmlns:xlink="http://www.w3.org/1999/xlink" width="217" height="268" viewBox="0 0 217 268">
    <defs>
        <path id="b" d="M16 0h80c8.837 0 16 7.163 16 16v196.81c0 8.836-7.163 16-16 16H16c-8.837 0-16-7.164-16-16V16C0 7.163 7.163 0 16 0z"/>
        <filter id="a" width="142.9%" height="121%" x="-21.4%" y="-10.5%" filterUnits="objectBoundingBox">
            <feOffset in="SourceAlpha" result="shadowOffsetOuter1"/>
            <feGaussianBlur in="shadowOffsetOuter1" result="shadowBlurOuter1" stdDeviation="8"/>
            <feColorMatrix in="shadowBlurOuter1" values="0 0 0 0 0.105882353 0 0 0 0 0.266666667 0 0 0 0 0.474509804 0 0 0 0.15 0"/>
        </filter>
        <rect id="d" width="185" height="144" rx="2"/>
        <filter id="c" width="125.9%" height="133.3%" x="-13%" y="-16.7%" filterUnits="objectBoundingBox">
            <feOffset in="SourceAlpha" result="shadowOffsetOuter1"/>
            <feGaussianBlur in="shadowOffsetOuter1" result="shadowBlurOuter1" stdDeviation="8"/>
            <feColorMatrix in="shadowBlurOuter1" values="0 0 0 0 0.105882353 0 0 0 0 0.266666667 0 0 0 0 0.474509804 0 0 0 0.15 0"/>
        </filter>
        <rect id="f" width="13.333" height="13.333" x="1.333" y="1.333" rx="6.667"/>
        <filter id="e" width="460%" height="460%" x="-180%" y="-180%" filterUnits="objectBoundingBox">
            <feOffset in="SourceAlpha" result="shadowOffsetOuter1"/>
            <feGaussianBlur in="shadowOffsetOuter1" result="shadowBlurOuter1" stdDeviation="8"/>
            <feColorMatrix in="shadowBlurOuter1" values="0 0 0 0 0.105882353 0 0 0 0 0.266666667 0 0 0 0 0.474509804 0 0 0 0.15 0"/>
        </filter>
        <rect id="h" width="13.333" height="13.333" x="1.333" y="1.333" rx="6.667"/>
        <filter id="g" width="460%" height="460%" x="-180%" y="-180%" filterUnits="objectBoundingBox">
            <feOffset in="SourceAlpha" result="shadowOffsetOuter1"/>
            <feGaussianBlur in="shadowOffsetOuter1" result="shadowBlurOuter1" stdDeviation="8"/>
            <feColorMatrix in="shadowBlurOuter1" values="0 0 0 0 0.105882353 0 0 0 0 0.266666667 0 0 0 0 0.474509804 0 0 0 0.15 0"/>
        </filter>
    </defs>
    <g fill="none" fill-rule="evenodd">
        <path fill="#D8D8D8" stroke="#979797" d="M103.2 90h5.3v1h-5.3z"/>
        <g transform="translate(53 16)">
            <use fill="#000" filter="url(#a)" xlink:href="#b"/>
            <use fill="#FFF" xlink:href="#b"/>
        </g>
        <path fill="#FF0D6A" d="M62 43.3h94.258a2 2 0 0 1 2 2v170.528a2 2 0 0 1-2 2H62a2 2 0 0 1-2-2V45.3a2 2 0 0 1 2-2z"/>
        <path fill="#D12869" d="M72.3 188.2h45.4a6 6 0 0 1 6 6v4.1a6 6 0 0 1-6 6H66.3v-10.1a6 6 0 0 1 6-6zM72.3 98.6h45.4a6 6 0 0 1 6 6v35.6a6 6 0 0 1-6 6H66.3v-41.6a6 6 0 0 1 6-6zM145.6 151.1c4.529 0 8.2 3.526 8.2 7.875V182.6h-49.2c-4.529 0-8.2-3.526-8.2-7.875v-15.75c0-4.35 3.671-7.875 8.2-7.875h41zM145.6 77.6c4.529 0 8.2 3.604 8.2 8.05v8.05h-49.2c-4.529 0-8.2-3.604-8.2-8.05 0-4.446 3.671-8.05 8.2-8.05h41z"/>
        <g fill="#D12869" transform="translate(65.6 48.2)">
            <circle cx="7" cy="7" r="7"/>
            <text font-family="BLOKKNeue-Regular, BLOKK Neue" font-size="11">
                <tspan x="18.2" y="10.15">Tycesom</tspan> <tspan x="18.2" y="17.15">ing</tspan>
            </text>
        </g>
        <g>
            <g transform="translate(16 108)">
                <use fill="#000" filter="url(#c)" xlink:href="#d"/>
                <use fill="#FFF" xlink:href="#d"/>
            </g>
            <path stroke="#EDF3F7" stroke-linecap="square" stroke-width="2" d="M22 181h171M22 145h171M22 217h171"/>
            <g transform="translate(177 226)">
                <rect width="16" height="16" fill="#FF0D6A" rx="8"/>
                <rect width="13.333" height="13.333" x="1.333" y="1.333" rx="6.667"/>
            </g>
            <path fill="#FFF" d="M188.914 232.007l-4.943 4.914-2.798-2.784.937-.951 1.861 1.846 3.991-3.963z"/>
            <g transform="translate(177 120)">
                <rect width="16" height="16" fill="#FF0D6A" rx="8"/>
                <rect width="13.333" height="13.333" x="1.333" y="1.333" rx="6.667"/>
            </g>
            <path fill="#FFF" d="M188.914 126.007l-4.943 4.914-2.798-2.784.937-.951 1.861 1.846 3.991-3.963z"/>
            <g transform="translate(177 191)">
                <rect width="16" height="16" fill="#D3DCE6" rx="8"/>
                <use fill="#000" filter="url(#e)" xlink:href="#f"/>
                <use fill="#FFF" xlink:href="#f"/>
            </g>
            <g transform="translate(177 155)">
                <rect width="16" height="16" fill="#D3DCE6" rx="8"/>
                <use fill="#000" filter="url(#g)" xlink:href="#h"/>
                <use fill="#FFF" xlink:href="#h"/>
            </g>
            <path fill="#203040" d="M52.11 132h-2.347v-7.273h2.415c.708 0 1.315.145 1.822.435.507.29.895.706 1.167 1.247.27.54.406 1.189.406 1.944 0 .758-.137 1.409-.41 1.953a2.906 2.906 0 0 1-1.184 1.255c-.516.293-1.139.439-1.868.439zm.004-6.286H50.89v5.299h1.161c.808 0 1.411-.229 1.812-.686.4-.457.6-1.115.6-1.974 0-.852-.198-1.505-.593-1.958-.396-.454-.98-.68-1.755-.68zM59.96 132v-.678h-.05a1.485 1.485 0 0 1-.282.358 1.55 1.55 0 0 1-.496.311c-.203.084-.45.126-.738.126-.336 0-.642-.064-.916-.193a1.567 1.567 0 0 1-.657-.567c-.164-.248-.245-.549-.245-.902 0-.38.096-.685.289-.912.193-.228.453-.398.78-.51.326-.112.687-.19 1.083-.233.208-.026.404-.048.587-.065.184-.018.333-.05.448-.096.115-.046.172-.124.172-.233v-.046c0-.353-.09-.605-.272-.758-.18-.153-.415-.23-.701-.23-.336 0-.606.077-.81.23-.203.153-.34.325-.412.517l-1.033-.238c.114-.332.285-.601.513-.808.229-.207.493-.359.792-.455.3-.096.614-.144.943-.144.22 0 .45.026.69.079.24.052.466.146.677.282.21.136.382.328.513.577.132.249.197.57.197.962V132H59.96zm-.025-1.903v-.743c-.04.048-.135.09-.284.125-.15.035-.308.064-.478.087-.169.022-.305.04-.406.055-.327.04-.595.122-.805.245-.21.123-.314.325-.314.607 0 .246.09.434.272.563.18.129.413.193.697.193.408 0 .73-.115.965-.346.235-.23.353-.493.353-.786zm3.026-4.177a.668.668 0 0 1-.494-.191.629.629 0 0 1 0-.902.655.655 0 0 1 .494-.2c.2 0 .365.067.493.2a.629.629 0 0 1 0 .902.668.668 0 0 1-.493.191zm.55.625V132h-1.094v-5.455h1.094zm2.482-1.818V132h-1.094v-7.273h1.094zm2.838 7.667l.149-.398-2.007-5.45h1.154l1.36 3.99h.064l1.36-3.99h1.155l-2.326 6.303a2.171 2.171 0 0 1-.622.914c-.277.238-.638.357-1.083.357-.147 0-.279-.012-.396-.035a1.452 1.452 0 0 1-.282-.082l.256-.902c.317.08.564.074.742-.018.177-.092.336-.322.476-.689zm7.773-.394H75.41l2.674-7.273h1.182L81.94 132h-1.196l-.611-1.761h-2.92l-.61 1.761zm2.028-5.831l-1.083 3.118h2.251l-1.083-3.118h-.085zm8.764 2.06l-1.048.092a1.304 1.304 0 0 0-.387-.65c-.194-.18-.46-.27-.795-.27-.452 0-.805.17-1.058.512-.254.34-.38.794-.38 1.36 0 .575.125 1.037.376 1.385.25.348.605.522 1.062.522.303 0 .556-.079.758-.236.202-.158.34-.374.414-.649l1.054.086c-.09.502-.332.915-.726 1.24-.394.326-.894.49-1.5.49-.516 0-.961-.122-1.335-.363a2.373 2.373 0 0 1-.865-1.003c-.203-.428-.304-.918-.304-1.472 0-.545.103-1.028.307-1.45.205-.42.494-.75.867-.99.373-.239.812-.359 1.32-.359.593 0 1.094.16 1.501.48.407.32.654.744.739 1.275zm5.6 0l-1.048.092a1.304 1.304 0 0 0-.387-.65c-.194-.18-.459-.27-.795-.27-.452 0-.805.17-1.058.512-.254.34-.38.794-.38 1.36 0 .575.125 1.037.376 1.385.251.348.605.522 1.062.522.303 0 .556-.079.758-.236.202-.158.34-.374.414-.649l1.054.086c-.09.502-.332.915-.726 1.24-.394.326-.894.49-1.5.49-.516 0-.961-.122-1.335-.363a2.373 2.373 0 0 1-.865-1.003c-.202-.428-.304-.918-.304-1.472 0-.545.103-1.028.308-1.45.204-.42.493-.75.866-.99.373-.239.813-.359 1.32-.359.593 0 1.094.16 1.501.48.408.32.654.744.739 1.275zm3.37 3.881c-.507 0-.948-.118-1.323-.355a2.365 2.365 0 0 1-.872-.989c-.206-.423-.308-.914-.308-1.476 0-.56.102-1.052.308-1.475.206-.423.497-.752.872-.987.375-.236.816-.354 1.323-.354s.947.118 1.321.354c.374.235.665.564.872.987.207.423.31.914.31 1.475 0 .562-.103 1.053-.31 1.476a2.381 2.381 0 0 1-.872.989c-.374.237-.814.355-1.32.355zm0-.93c.331 0 .604-.086.817-.256.213-.17.37-.399.47-.685.101-.287.151-.603.151-.949 0-.343-.05-.658-.15-.944a1.495 1.495 0 0 0-.471-.687c-.213-.172-.486-.258-.817-.258-.334 0-.607.086-.818.258a1.5 1.5 0 0 0-.47.687c-.1.286-.15.601-.15.944 0 .346.05.662.15.949.101.286.258.515.47.685.211.17.484.256.818.256zm7.014-1.467v-3.168h1.09V132h-1.051v-.707h-.057a1.984 1.984 0 0 1-.606.54c-.261.159-.583.238-.964.238-.277 0-.553-.07-.827-.211a1.702 1.702 0 0 1-.684-.668c-.18-.304-.271-.704-.271-1.198v-3.449h1.093v3.43c0 .365.1.645.3.839.2.194.454.291.762.291.206 0 .402-.05.588-.153a1.16 1.16 0 0 0 .453-.46c.116-.204.174-.464.174-.779zm3.554-.834V132h-1.094v-5.455h1.052v.814h.056c.138-.254.338-.464.602-.632.264-.169.587-.253.968-.253.33 0 .629.073.898.217.27.144.485.37.645.675.16.305.24.7.24 1.186V132h-1.09v-3.391c0-.365-.1-.65-.3-.858-.2-.207-.455-.31-.762-.31-.206 0-.402.054-.588.163-.186.109-.337.27-.453.483-.116.213-.174.477-.174.792zm7.198-2.334v.895h-1.065v2.948c0 .308.065.503.195.586.13.083.28.124.448.124a1.388 1.388 0 0 0 .358-.043l.196.899a2.045 2.045 0 0 1-.28.074c-.133.029-.3.043-.501.043-.254 0-.496-.056-.727-.167a1.401 1.401 0 0 1-.564-.493c-.146-.218-.219-.487-.219-.807v-3.164h-.756v-.895h.756v-1.164h1.094v1.164h1.065zM50.449 160.727l2.038 5.831h.085l2.042-5.83h1.183L53.123 168H51.94l-2.674-7.273h1.183zM59.902 168v-.678h-.05a1.485 1.485 0 0 1-.282.358 1.55 1.55 0 0 1-.495.311c-.204.084-.45.126-.74.126-.335 0-.64-.064-.915-.193a1.567 1.567 0 0 1-.657-.567c-.164-.248-.245-.549-.245-.902 0-.38.096-.685.29-.912.192-.228.452-.398.779-.51.326-.112.687-.19 1.083-.233.208-.026.404-.048.587-.065.184-.018.333-.05.448-.096.115-.046.172-.124.172-.233v-.046c0-.353-.09-.605-.272-.758-.18-.153-.414-.23-.7-.23-.337 0-.607.077-.81.23-.204.153-.341.325-.412.517l-1.034-.238c.114-.332.285-.601.513-.808.229-.207.493-.359.792-.455.3-.096.614-.144.943-.144.22 0 .45.026.69.079.241.052.467.146.677.282.21.136.382.328.513.577.132.249.197.57.197.962V168h-1.072zm-.025-1.903v-.743c-.04.048-.135.09-.284.125-.15.035-.308.064-.478.087-.169.022-.304.04-.406.055-.327.04-.595.122-.805.245-.209.123-.314.325-.314.607 0 .246.09.434.272.563.181.129.414.193.698.193.407 0 .728-.115.964-.346.235-.23.353-.493.353-.786zm5.835-.384v-3.168h1.09V168H65.75v-.707h-.057a1.984 1.984 0 0 1-.606.54c-.261.159-.583.238-.964.238-.277 0-.553-.07-.827-.211a1.702 1.702 0 0 1-.684-.668c-.18-.304-.271-.704-.271-1.198v-3.449h1.093v3.43c0 .365.1.645.3.839.2.194.454.291.762.291.206 0 .402-.05.588-.153a1.16 1.16 0 0 0 .453-.46c.116-.204.174-.464.174-.779zm3.554-4.986V168h-1.093v-7.273h1.093zm3.832 1.818v.895h-1.065v2.948c0 .308.065.503.195.586.13.083.28.124.447.124a1.388 1.388 0 0 0 .36-.043l.194.899a2.045 2.045 0 0 1-.28.074c-.133.029-.3.043-.5.043-.254 0-.496-.056-.727-.167a1.401 1.401 0 0 1-.565-.493c-.145-.218-.218-.487-.218-.807v-3.164h-.756v-.895h.756v-1.164h1.094v1.164h1.065zM77.8 168h-1.193l2.674-7.273h1.182L83.137 168H81.94l-.61-1.761h-2.92L77.8 168zm2.027-5.831l-1.083 3.118h2.252l-1.083-3.118h-.086zm8.765 2.06l-1.048.092a1.304 1.304 0 0 0-.387-.65c-.194-.18-.46-.27-.795-.27-.453 0-.805.17-1.059.512-.253.34-.38.794-.38 1.36 0 .575.126 1.037.377 1.385.25.348.605.522 1.062.522.303 0 .555-.079.758-.236.202-.158.34-.374.413-.649l1.055.086c-.09.502-.332.915-.726 1.24-.394.326-.894.49-1.5.49-.517 0-.962-.122-1.336-.363a2.373 2.373 0 0 1-.864-1.003c-.203-.428-.304-.918-.304-1.472 0-.545.102-1.028.307-1.45.205-.42.494-.75.867-.99.372-.239.812-.359 1.319-.359.594 0 1.095.16 1.502.48.407.32.653.744.739 1.275zm5.6 0l-1.048.092a1.304 1.304 0 0 0-.387-.65c-.194-.18-.46-.27-.795-.27-.453 0-.805.17-1.059.512-.253.34-.38.794-.38 1.36 0 .575.126 1.037.377 1.385.25.348.605.522 1.062.522.303 0 .555-.079.758-.236.202-.158.34-.374.414-.649l1.054.086c-.09.502-.332.915-.726 1.24-.394.326-.894.49-1.5.49-.516 0-.962-.122-1.336-.363a2.373 2.373 0 0 1-.864-1.003c-.203-.428-.304-.918-.304-1.472 0-.545.102-1.028.307-1.45.205-.42.494-.75.867-.99.373-.239.812-.359 1.319-.359.594 0 1.095.16 1.502.48.407.32.654.744.739 1.275zm3.37 3.881c-.507 0-.948-.118-1.323-.355a2.365 2.365 0 0 1-.872-.989c-.206-.423-.309-.914-.309-1.476 0-.56.103-1.052.31-1.475.205-.423.496-.752.871-.987.375-.236.816-.354 1.323-.354.506 0 .947.118 1.32.354.375.235.665.564.873.987.207.423.31.914.31 1.475 0 .562-.103 1.053-.31 1.476a2.381 2.381 0 0 1-.872.989c-.374.237-.815.355-1.321.355zm0-.93c.331 0 .603-.086.817-.256.213-.17.37-.399.47-.685.1-.287.151-.603.151-.949 0-.343-.05-.658-.15-.944a1.495 1.495 0 0 0-.471-.687c-.214-.172-.486-.258-.817-.258-.334 0-.607.086-.819.258a1.5 1.5 0 0 0-.468.687c-.101.286-.151.601-.151.944 0 .346.05.662.15.949.101.286.257.515.47.685.211.17.484.256.818.256zm7.013-1.467v-3.168h1.09V168h-1.05v-.707h-.057a1.984 1.984 0 0 1-.606.54c-.262.159-.583.238-.964.238-.277 0-.553-.07-.827-.211a1.702 1.702 0 0 1-.684-.668c-.181-.304-.272-.704-.272-1.198v-3.449h1.094v3.43c0 .365.1.645.3.839.2.194.454.291.762.291.206 0 .402-.05.588-.153a1.16 1.16 0 0 0 .452-.46c.116-.204.174-.464.174-.779zm3.555-.834V168h-1.094v-5.455h1.051v.814h.057c.137-.254.338-.464.602-.632.264-.169.587-.253.968-.253.329 0 .628.073.898.217.27.144.485.37.645.675.16.305.24.7.24 1.186V168h-1.09v-3.391c0-.365-.1-.65-.3-.858-.2-.207-.455-.31-.763-.31-.206 0-.401.054-.587.163-.186.109-.337.27-.453.483-.116.213-.174.477-.174.792zm7.198-2.334v.895h-1.065v2.948c0 .308.065.503.195.586.13.083.28.124.448.124a1.388 1.388 0 0 0 .358-.043l.196.899a2.045 2.045 0 0 1-.281.074c-.133.029-.3.043-.5.043-.254 0-.496-.056-.727-.167a1.401 1.401 0 0 1-.565-.493c-.145-.218-.218-.487-.218-.807v-3.164h-.756v-.895h.756v-1.164h1.094v1.164h1.065zM55.754 200.3v.92c0 .584-.132 1.092-.396 1.523-.264.43-.62.765-1.07 1.001-.45.237-.956.355-1.517.355-.625 0-1.18-.149-1.665-.447-.486-.298-.867-.726-1.145-1.284-.279-.557-.418-1.224-.418-2 0-.78.138-1.448.414-2.005.276-.558.654-.986 1.135-1.286.48-.3 1.025-.45 1.633-.45.715 0 1.336.205 1.863.613.526.409.899.985 1.117 1.728l-1.14.075c-.15-.46-.39-.805-.721-1.036a1.911 1.911 0 0 0-1.119-.346c-.386 0-.735.1-1.047.3-.313.2-.562.5-.746.9-.185.4-.277.902-.277 1.506s.093 1.105.279 1.504c.185.399.438.698.758.897.32.199.68.298 1.08.298.364 0 .688-.077.972-.23.284-.155.508-.37.671-.649.164-.278.246-.6.246-.968h-1.659v-.92h2.752zm3.534 3.81c-.507 0-.948-.118-1.323-.355a2.365 2.365 0 0 1-.872-.989c-.206-.423-.309-.914-.309-1.476 0-.56.103-1.052.309-1.475.206-.423.497-.752.872-.987.375-.236.816-.354 1.323-.354.506 0 .947.118 1.32.354.375.235.665.564.872.987.208.423.311.914.311 1.475 0 .562-.103 1.053-.31 1.476a2.381 2.381 0 0 1-.872.989c-.374.237-.815.355-1.321.355zm0-.93c.331 0 .603-.086.816-.256.213-.17.37-.399.47-.685.102-.287.152-.603.152-.949 0-.343-.05-.658-.151-.944a1.495 1.495 0 0 0-.47-.687c-.214-.172-.486-.258-.817-.258-.334 0-.607.086-.819.258a1.5 1.5 0 0 0-.469.687c-.1.286-.15.601-.15.944 0 .346.05.662.15.949.101.286.257.515.47.685.211.17.484.256.818.256zm8.345-4.635L65.619 204H64.55l-2.01-5.455h1.155l1.367 4.042h.057l1.36-4.042h1.154zm3.338 5.565c-.533 0-.993-.114-1.38-.343a2.28 2.28 0 0 1-.893-.967c-.208-.417-.312-.907-.312-1.47 0-.56.101-1.053.305-1.481.204-.429.494-.765.87-1.009.377-.244.823-.366 1.339-.366.419 0 .81.092 1.174.274.363.182.656.47.88.863.224.393.336.907.336 1.541v.458h-3.832c.043.504.193.892.451 1.163s.61.407 1.058.407c.332 0 .6-.073.803-.219.203-.145.35-.341.44-.587l1.009.277c-.076.26-.21.501-.405.724a2.08 2.08 0 0 1-.753.534c-.308.134-.671.201-1.09.201zm-.075-4.709c-.371 0-.682.121-.93.362-.249.242-.41.582-.483 1.02h2.741c0-.396-.118-.725-.355-.988-.236-.262-.56-.394-.973-.394zm6.751-.745l-.352.976a1.25 1.25 0 0 0-.186-.073.978.978 0 0 0-.3-.04c-.26 0-.485.069-.675.207-.19.139-.336.315-.44.53a1.528 1.528 0 0 0-.16.658V204H74.44v-5.455h1.08v.86h.064c.078-.27.245-.494.5-.673a1.41 1.41 0 0 1 1.236-.21c.133.04.242.084.327.134zm1.875 2.223V204h-1.094v-5.455h1.051v.814h.057c.138-.254.338-.464.602-.632.264-.169.587-.253.968-.253.329 0 .628.073.898.217.27.144.485.37.645.675.16.305.24.7.24 1.186V204h-1.09v-3.391c0-.365-.1-.65-.3-.858-.2-.207-.455-.31-.762-.31-.206 0-.402.054-.588.163-.186.109-.337.27-.453.483-.116.213-.174.477-.174.792zM87.416 204v-.678h-.05a1.485 1.485 0 0 1-.282.358 1.55 1.55 0 0 1-.495.311c-.204.084-.45.126-.739.126-.336 0-.641-.064-.916-.193a1.567 1.567 0 0 1-.657-.567c-.163-.248-.245-.549-.245-.902 0-.38.096-.685.29-.912.192-.228.452-.398.779-.51.327-.112.688-.19 1.083-.233.208-.026.404-.048.588-.065.183-.018.332-.05.447-.096.115-.046.172-.124.172-.233v-.046c0-.353-.09-.605-.271-.758-.181-.153-.415-.23-.702-.23-.336 0-.606.077-.81.23-.203.153-.34.325-.411.517l-1.034-.238c.114-.332.285-.601.513-.808.229-.207.493-.359.792-.455.3-.096.614-.144.943-.144.22 0 .45.026.69.079.241.052.467.146.677.282.211.136.382.328.514.577.13.249.197.57.197.962V204h-1.073zm-.025-1.903v-.743c-.04.048-.135.09-.284.125-.149.035-.308.064-.477.087-.17.022-.305.04-.407.055-.327.04-.595.122-.804.245-.21.123-.315.325-.315.607 0 .246.091.434.272.563.181.129.414.193.698.193.407 0 .728-.115.964-.346.236-.23.353-.493.353-.786zm6.971-1.868l-1.047.092a1.304 1.304 0 0 0-.387-.65c-.195-.18-.46-.27-.796-.27-.452 0-.805.17-1.058.512-.253.34-.38.794-.38 1.36 0 .575.125 1.037.376 1.385.251.348.605.522 1.062.522.303 0 .556-.079.758-.236.203-.158.34-.374.414-.649l1.055.086c-.09.502-.332.915-.727 1.24-.394.326-.894.49-1.5.49-.516 0-.961-.122-1.335-.363a2.373 2.373 0 0 1-.865-1.003c-.202-.428-.303-.918-.303-1.472 0-.545.102-1.028.307-1.45.205-.42.493-.75.866-.99.373-.239.813-.359 1.32-.359.594 0 1.094.16 1.502.48.407.32.653.744.738 1.275zm3.452 3.881c-.533 0-.993-.114-1.38-.343a2.28 2.28 0 0 1-.893-.967c-.208-.417-.312-.907-.312-1.47 0-.56.101-1.053.305-1.481.204-.429.494-.765.87-1.009.377-.244.823-.366 1.339-.366.419 0 .81.092 1.174.274.363.182.657.47.88.863.224.393.336.907.336 1.541v.458H96.3c.043.504.193.892.451 1.163s.61.407 1.058.407c.332 0 .6-.073.803-.219.204-.145.35-.341.44-.587l1.009.277c-.076.26-.21.501-.405.724a2.08 2.08 0 0 1-.753.534c-.308.134-.671.201-1.09.201zm-.075-4.709c-.371 0-.681.121-.93.362-.249.242-.41.582-.483 1.02h2.741c0-.396-.118-.725-.355-.988-.236-.262-.56-.394-.973-.394zm7.103 4.599h-1.194l2.674-7.273h1.183l2.674 7.273h-1.197l-.61-1.761h-2.92l-.61 1.761zm2.027-5.831l-1.083 3.118h2.252l-1.083-3.118h-.086zm8.765 2.06l-1.048.092a1.304 1.304 0 0 0-.387-.65c-.194-.18-.46-.27-.796-.27-.452 0-.805.17-1.058.512-.253.34-.38.794-.38 1.36 0 .575.126 1.037.377 1.385.25.348.604.522 1.061.522.303 0 .556-.079.759-.236.202-.158.34-.374.413-.649l1.055.086c-.09.502-.332.915-.726 1.24-.394.326-.895.49-1.5.49-.517 0-.962-.122-1.336-.363a2.373 2.373 0 0 1-.865-1.003c-.202-.428-.303-.918-.303-1.472 0-.545.102-1.028.307-1.45.205-.42.494-.75.867-.99.372-.239.812-.359 1.319-.359.594 0 1.095.16 1.502.48.407.32.653.744.739 1.275zm5.6 0l-1.048.092a1.304 1.304 0 0 0-.387-.65c-.194-.18-.46-.27-.795-.27-.453 0-.805.17-1.059.512-.253.34-.38.794-.38 1.36 0 .575.126 1.037.377 1.385.25.348.605.522 1.062.522.303 0 .555-.079.758-.236.202-.158.34-.374.413-.649l1.055.086c-.09.502-.332.915-.726 1.24-.394.326-.894.49-1.5.49-.517 0-.962-.122-1.336-.363a2.373 2.373 0 0 1-.864-1.003c-.203-.428-.304-.918-.304-1.472 0-.545.102-1.028.307-1.45.205-.42.494-.75.867-.99.373-.239.812-.359 1.319-.359.594 0 1.095.16 1.502.48.407.32.653.744.739 1.275zm3.37 3.881c-.507 0-.948-.118-1.323-.355a2.365 2.365 0 0 1-.872-.989c-.206-.423-.309-.914-.309-1.476 0-.56.103-1.052.31-1.475.205-.423.496-.752.87-.987.376-.236.817-.354 1.324-.354.506 0 .947.118 1.32.354.375.235.665.564.873.987.207.423.31.914.31 1.475 0 .562-.103 1.053-.31 1.476a2.381 2.381 0 0 1-.872.989c-.374.237-.815.355-1.321.355zm0-.93c.331 0 .603-.086.816-.256.214-.17.37-.399.471-.685.1-.287.15-.603.15-.949 0-.343-.05-.658-.15-.944a1.495 1.495 0 0 0-.47-.687c-.214-.172-.486-.258-.817-.258-.334 0-.607.086-.819.258a1.5 1.5 0 0 0-.469.687c-.1.286-.15.601-.15.944 0 .346.05.662.15.949.101.286.257.515.47.685.211.17.484.256.818.256zm7.013-1.467v-3.168h1.09V204h-1.05v-.707h-.058a1.984 1.984 0 0 1-.605.54c-.262.159-.583.238-.964.238-.277 0-.553-.07-.828-.211a1.702 1.702 0 0 1-.683-.668c-.181-.304-.272-.704-.272-1.198v-3.449h1.094v3.43c0 .365.1.645.3.839.2.194.454.291.762.291.206 0 .402-.05.587-.153a1.16 1.16 0 0 0 .453-.46c.116-.204.174-.464.174-.779zm3.555-.834V204h-1.094v-5.455h1.051v.814h.057c.137-.254.338-.464.602-.632.264-.169.587-.253.968-.253.329 0 .628.073.898.217.27.144.485.37.645.675.16.305.24.7.24 1.186V204h-1.09v-3.391c0-.365-.1-.65-.3-.858-.201-.207-.455-.31-.763-.31-.206 0-.402.054-.587.163-.186.109-.337.27-.453.483-.116.213-.174.477-.174.792zm7.198-2.334v.895h-1.065v2.948c0 .308.065.503.195.586.13.083.28.124.447.124a1.388 1.388 0 0 0 .36-.043l.194.899a2.045 2.045 0 0 1-.28.074c-.133.029-.3.043-.5.043-.254 0-.496-.056-.727-.167a1.401 1.401 0 0 1-.565-.493c-.145-.218-.218-.487-.218-.807v-3.164h-.756v-.895h.756v-1.164h1.094v1.164h1.065zM49.763 231.727h1.346l2.287 5.53h.086l2.265-5.53h1.35V239H56.01v-5.224h-.068l-2.066 5.15h-.895l-2.063-5.157h-.068V239h-1.087v-7.273zM61.703 239v-.678h-.05a1.485 1.485 0 0 1-.283.358 1.55 1.55 0 0 1-.495.311c-.204.084-.45.126-.739.126-.336 0-.641-.064-.916-.193a1.567 1.567 0 0 1-.657-.567c-.163-.248-.245-.549-.245-.902 0-.38.097-.685.29-.912.193-.228.452-.398.78-.51.326-.112.687-.19 1.082-.233.209-.026.404-.048.588-.065.183-.018.333-.05.447-.096.115-.046.173-.124.173-.233v-.046c0-.353-.091-.605-.272-.758-.181-.153-.415-.23-.701-.23-.337 0-.607.077-.81.23-.204.153-.341.325-.412.517l-1.033-.238c.113-.332.284-.601.513-.808.228-.207.492-.359.792-.455.3-.096.613-.144.942-.144.22 0 .45.026.691.079.24.052.466.146.677.282.21.136.381.328.513.577.131.249.197.57.197.962V239h-1.073zm-.025-1.903v-.743c-.04.048-.135.09-.285.125-.149.035-.308.064-.477.087-.17.022-.305.04-.407.055-.326.04-.595.122-.804.245-.21.123-.314.325-.314.607 0 .246.09.434.271.563.181.129.414.193.698.193.407 0 .729-.115.964-.346.236-.23.354-.493.354-.786zm3.025-4.177a.668.668 0 0 1-.493-.191.629.629 0 0 1 0-.902.655.655 0 0 1 .493-.2c.201 0 .366.067.494.2a.629.629 0 0 1 0 .902.668.668 0 0 1-.494.191zm.55.625V239H64.16v-5.455h1.094zm2.483 2.334V239h-1.094v-5.455h1.051v.814h.057c.137-.254.338-.464.602-.632.264-.169.586-.253.968-.253.329 0 .628.073.898.217.27.144.485.37.645.675.16.305.24.7.24 1.186V239h-1.09v-3.391c0-.365-.1-.65-.301-.858-.2-.207-.454-.31-.762-.31-.206 0-.402.054-.587.163-.186.109-.337.27-.453.483-.116.213-.174.477-.174.792zM78.816 239h-1.194l2.674-7.273h1.183L84.153 239h-1.197l-.61-1.761h-2.92l-.61 1.761zm2.027-5.831l-1.083 3.118h2.251l-1.083-3.118h-.085zm8.764 2.06l-1.047.092a1.304 1.304 0 0 0-.387-.65c-.195-.18-.46-.27-.796-.27-.452 0-.805.17-1.058.512-.253.34-.38.794-.38 1.36 0 .575.125 1.037.376 1.385.251.348.605.522 1.062.522.303 0 .556-.079.758-.236.203-.158.34-.374.414-.649l1.055.086c-.09.502-.332.915-.727 1.24-.394.326-.894.49-1.5.49-.516 0-.961-.122-1.335-.363a2.373 2.373 0 0 1-.865-1.003c-.202-.428-.303-.918-.303-1.472 0-.545.102-1.028.307-1.45.205-.42.493-.75.866-.99.373-.239.813-.359 1.32-.359.594 0 1.094.16 1.502.48.407.32.653.744.738 1.275zm5.6 0l-1.047.092a1.304 1.304 0 0 0-.387-.65c-.194-.18-.46-.27-.796-.27-.452 0-.805.17-1.058.512-.253.34-.38.794-.38 1.36 0 .575.126 1.037.376 1.385.251.348.605.522 1.062.522.303 0 .556-.079.758-.236.203-.158.34-.374.414-.649l1.055.086c-.09.502-.332.915-.726 1.24-.395.326-.895.49-1.5.49-.517 0-.962-.122-1.336-.363a2.373 2.373 0 0 1-.865-1.003c-.202-.428-.303-.918-.303-1.472 0-.545.102-1.028.307-1.45.205-.42.494-.75.866-.99.373-.239.813-.359 1.32-.359.594 0 1.095.16 1.502.48.407.32.653.744.738 1.275zm3.37 3.881c-.506 0-.947-.118-1.322-.355a2.365 2.365 0 0 1-.872-.989c-.206-.423-.31-.914-.31-1.476 0-.56.104-1.052.31-1.475.206-.423.496-.752.872-.987.375-.236.816-.354 1.322-.354.507 0 .947.118 1.321.354.374.235.665.564.872.987.207.423.311.914.311 1.475 0 .562-.104 1.053-.31 1.476a2.381 2.381 0 0 1-.873.989c-.374.237-.814.355-1.32.355zm0-.93c.332 0 .604-.086.817-.256.213-.17.37-.399.47-.685.101-.287.152-.603.152-.949 0-.343-.05-.658-.151-.944a1.495 1.495 0 0 0-.47-.687c-.214-.172-.486-.258-.818-.258-.333 0-.606.086-.818.258a1.5 1.5 0 0 0-.469.687c-.1.286-.15.601-.15.944 0 .346.05.662.15.949.1.286.257.515.469.685.212.17.485.256.818.256zm7.014-1.467v-3.168h1.09V239h-1.051v-.707h-.057a1.984 1.984 0 0 1-.605.54c-.262.159-.583.238-.964.238-.277 0-.553-.07-.828-.211a1.702 1.702 0 0 1-.683-.668c-.182-.304-.272-.704-.272-1.198v-3.449h1.094v3.43c0 .365.1.645.3.839.2.194.454.291.761.291.206 0 .402-.05.588-.153a1.16 1.16 0 0 0 .453-.46c.116-.204.174-.464.174-.779zm3.555-.834V239h-1.094v-5.455h1.051v.814h.057c.137-.254.338-.464.602-.632.264-.169.586-.253.967-.253.33 0 .629.073.899.217.27.144.485.37.644.675.16.305.24.7.24 1.186V239h-1.09v-3.391c0-.365-.1-.65-.3-.858-.2-.207-.454-.31-.762-.31-.206 0-.402.054-.588.163-.185.109-.336.27-.452.483-.116.213-.174.477-.174.792zm7.198-2.334v.895h-1.066v2.948c0 .308.066.503.196.586.13.083.28.124.447.124a1.388 1.388 0 0 0 .359-.043l.195.899a2.045 2.045 0 0 1-.28.074c-.133.029-.3.043-.501.043-.253 0-.495-.056-.726-.167a1.401 1.401 0 0 1-.565-.493c-.146-.218-.218-.487-.218-.807v-3.164h-.757v-.895h.757v-1.164h1.093v1.164h1.066z"/>
            <g transform="translate(23 121)">
                <rect width="20" height="15" fill="#203040" rx="2"/>
                <rect width="20" height="15" y="36" fill="#14CCB7" rx="2"/>
                <path fill="#4E5A66" d="M2 4h9v3H2z"/>
                <path fill="#05ADA8" d="M2 40h9v3H2z"/>
                <rect width="20" height="15" y="72" fill="#6948A1" rx="2"/>
                <path fill="#513482" d="M2 76h9v3H2z"/>
                <rect width="20" height="15" y="108" fill="#FF0D6A" rx="2"/>
                <path fill="#E72B6E" d="M2 112h9v3H2z"/>
            </g>
        </g>
    </g>
</svg>
