<svg xmlns="http://www.w3.org/2000/svg" xmlns:xlink="http://www.w3.org/1999/xlink" width="75" height="75" viewBox="0 0 75 75">
    <defs>
        <linearGradient id="a" x1="0%" x2="93.054%" y1="100%" y2="6.875%">
            <stop offset="0%" stop-color="#FF0D6A"/>
            <stop offset="100%" stop-color="#FA96B7"/>
        </linearGradient>
        <linearGradient id="c" x1="76.758%" x2="28.499%" y1="22%" y2="74.454%">
            <stop offset="0%" stop-opacity="0"/>
            <stop offset="100%"/>
        </linearGradient>
        <path id="b" d="M13.55 5.681C7.797 3.373 12.016-.812 6.6 1.864 1.186 4.539-.126 6.018 1.444 12.318c.56 2.248 1.076 4.82 3.585 5.941l19.788 7.128c.168.06.334.11.499.151l7.8 2.81c8.522 3.73 14.592-1.386 13.02-7.686-.56-2.248-2.24-3.998-4.498-4.892L30.23 11.66c-.237-.085-.47-.16-.7-.224L13.55 5.68z"/>
    </defs>
    <g fill="none" fill-rule="evenodd">
        <path fill="url(#a)" d="M25.959 0h22.539c7.475 0 11.211 0 15.235 1.272a15.813 15.813 0 0 1 9.452 9.452c1.272 4.023 1.272 7.76 1.272 15.235v22.539c0 7.475 0 11.211-1.272 15.235a15.81 15.81 0 0 1-9.452 9.45c-4.024 1.274-7.76 1.274-15.235 1.274h-22.54c-7.474 0-11.211 0-15.234-1.273a15.81 15.81 0 0 1-9.452-9.451C0 59.709 0 55.973 0 48.498v-22.54c0-7.474 0-11.211 1.272-15.234a15.813 15.813 0 0 1 9.452-9.452C14.747 0 18.484 0 25.959 0"/>
        <g transform="matrix(0 1 1 0 27.888 13.5)">
            <use fill="#FFBFD7" xlink:href="#b"/>
            <use fill="url(#c)" fill-opacity=".6" style="mix-blend-mode:overlay" xlink:href="#b"/>
        </g>
        <path fill="#FFBFD7" d="M41.148 27.083c2.308-5.752 3.997-7.958 5.54-7.04-1.715-5.718-6.926-7.55-13.226-5.98-2.247.56-3.77 1.99-4.892 4.5L21.443 38.35c-.06.168-.111.334-.152.498l-2.81 7.802c-3.73 8.52 1.386 14.59 7.686 13.02 2.248-.56 3.998-2.241 4.893-4.5l4.108-11.406c.085-.237.16-.471.224-.701l5.756-15.98z"/>
    </g>
</svg>
