<svg xmlns="http://www.w3.org/2000/svg" width="47" height="44" viewBox="0 0 47 44">
    <path fill="#FFF" fill-rule="evenodd" d="M33.876.007c-6.808-.072-12.402 5.354-12.537 12.16l-.012.25a8.91 8.91 0 1 1-17.822-.014c.127-4.942 4.06-8.83 8.914-8.896a8.885 8.885 0 0 1 3.868.88 1.75 1.75 0 0 0 2.234-.577c.287-.425.376-.954.244-1.45a1.698 1.698 0 0 0-.887-1.09C11.724-1.747 4.288.796 1.27 6.95a12.403 12.403 0 0 0-1.21 4.28 12.304 12.304 0 0 0 3.18 9.538 12.387 12.387 0 0 0 15.15 2.52l.225-.111a8.917 8.917 0 0 1 13.367 7.974 9.02 9.02 0 0 1-8.65 8.648 8.921 8.921 0 0 1-9.167-8.906 1.606 1.606 0 0 0-1.58-1.632 1.731 1.731 0 0 0-1.366.408 1.62 1.62 0 0 0-.554 1.224c.007 6.849 5.556 12.4 12.405 12.41.165 0 .33-.003.496-.008 6.459-.28 11.632-5.453 11.912-11.912a12.31 12.31 0 0 0-3.461-9.088 12.5 12.5 0 0 0-2.543-2.022l-.206-.144a8.953 8.953 0 0 1-4.443-7.712 8.92 8.92 0 0 1 8.91-8.91 9.06 9.06 0 0 1 8.885 8.217 8.903 8.903 0 0 1-4.785 8.609 1.753 1.753 0 0 0 .136 3.203c.204.082.422.124.64.124.264 0 .524-.062.758-.181a12.344 12.344 0 0 0 6.714-12.326A12.544 12.544 0 0 0 33.876.007z"/>
</svg>
