<svg xmlns="http://www.w3.org/2000/svg" width="23" height="20" viewBox="0 0 23 20">
    <path fill="#FFF" fill-rule="nonzero" d="M8.76 4.576c-3.6 0-5.835 2.414-5.835 5.474 0 1.485 1.185 4.831 9.195 8.656.421.195 1.096.66 2.761.66h3.87c0-1.591-1.41-1.546-4.5-1.605-.016-4.23-.855-6.75-3.645-9.45l-1.186.12c4.23 1.95 5.58 4.484 5.58 7.8l4.426-3.33-3.105-3.436c-.93-1.26-3.166-4.889-7.56-4.889H8.76zM5.189 17.07c-.81.03-1.44.495-1.44 1.546 0 0 3.09.03 5.28-.63L6.81 16.8a5.403 5.403 0 0 1-1.62.27zm12.285-8.19l1.456-.569c-.9-3.796-2.806-6.63-5.596-8.31 0 2.775 1.41 5.79 4.14 8.88zM19.634 0c-1.215 2.355-1.215 5.1 0 7.29 1.186-2.19 1.186-4.935 0-7.29zm-4.44 10.516l4.23 2.4c1.425 0 3.076-.18 3.076-1.29 0-1.784-2.655-3.944-4.59-3.314l-2.715 2.204zM0 10.44c0 3.06 4.71 3.06 4.71 0C4.71 7.5 0 7.5 0 10.44z"/>
</svg>
