<svg xmlns="http://www.w3.org/2000/svg" xmlns:xlink="http://www.w3.org/1999/xlink" width="39" height="33" viewBox="0 0 39 33">
    <defs>
        <path id="a" d="M48.75 15.999a2.75 2.75 0 0 1 2.75 2.75v22a2.75 2.75 0 0 1-2.75 2.788H36.944a4.714 4.714 0 0 0 2.071 1.832c.918.478 1.724.954 1.834 1.834a1.834 1.834 0 0 1-.624 1.52.912.912 0 0 1-.641.276H24.916a.915.915 0 0 1-.732-.311 1.831 1.831 0 0 1-.624-1.521c.184-.844.99-1.32 1.834-1.834a4.718 4.718 0 0 0 2.071-1.834H15.75a2.75 2.75 0 0 1-2.75-2.75v-22a2.75 2.75 0 0 1 2.75-2.75h33zm-33 1.834a.916.916 0 0 0-.916.916v19.25h34.832v-19.25a.917.917 0 0 0-.916-.916h-33zm22.404 29.095a5.604 5.604 0 0 1-3.044-3.43h-5.701a5.61 5.61 0 0 1-3.063 3.43h.002l-.404.239h12.614l-.404-.24zm10.596-5.261a.919.919 0 0 0 .916-.918l.002-.916H14.834v.916c0 .507.409.918.916.918h33z"/>
    </defs>
    <use fill="#F7296E" fill-rule="evenodd" transform="translate(-13 -16)" xlink:href="#a"/>
</svg>
