<svg xmlns="http://www.w3.org/2000/svg" width="28" height="14" viewBox="0 0 28 14">
    <path fill="#FFF" fill-rule="evenodd" d="M21.677 3.987c1.559.587-4.06 6.06-8.955 6.821-.834.13-1.683.186-2.514.186-4.448 0-8.423-1.623-7.433-2.391C5.557 6.446 5.128.725 11.973.03c.201-.02.4-.03.594-.03 3.146-.001 5.364 2.573 9.11 3.987zM2.361 10.06c.426.34 1.165.737 2.48 1.118.195.057.395.11.597.16-.101.07-.316.144-.694.224-1.65.35-4.746.396-4.744-.116.001-.248.674-.838 1.726-1.176.258-.082.464-.153.635-.21zm14.032.488a19.041 19.041 0 0 0 2.743-1.666s1.38 1.585 1.616 4.193c.064.705-.083.7-.51.723-1.215.064-2.558.189-2.93 0-.33-.17-.462-.25-.459-.803.005-.614-.052-1.376-.2-1.837-.149-.462-.26-.574-.26-.61zm-10.394.922c1.129.244 2.34.394 3.536.435.333.395.422.938.26 1.519a.705.705 0 0 1-.636.484c-.967.021-1.94.043-2.767-.167-.782-.197-.632-1.574-.42-2.206.008-.023.018-.044.027-.065zm17.85-8.345c1.128-.75 2.558.072 3.278 1.445.819 1.557.127 2.44-1.247 3.14-1.543.784-3.058.985-4.769.87-.284-.019-.903-.232-1.098-.376 1.035-.85 2.713-2.41 2.843-3.666.017-.158.01-.31-.019-.453.305-.356.622-.7 1.011-.96z"/>
</svg>
