<svg version="1.0" xmlns="http://www.w3.org/2000/svg" viewBox="0 0 500 500">
  <g transform="translate(43 43) scale(0.83)">
    <path fill="#fff" d="M111.5 17.6c-9.4 1.7-21.6 4.9-26.2 7-1.8.8-5 2.1-7 3-19.2 8-42.7 27.4-55 45.6-2.9 4.3-5.3 8-5.3 8.2 0 .3-1 2.2-2.2 4.3C9.4 96.4 4.1 112.8 1.1 131c-1 5.7-.7 32.2.3 37.5 6 30 16.6 51 35.9 71.2 17.1 17.9 43.6 32.8 66.4 37.3 2.6.5 5.9 1.2 7.3 1.6 5.2 1.3 34.5 1.1 42.5-.2 12.7-2.2 26.1-6.8 41.3-14.3 22.9-11.3 32.2-13.9 50.5-13.9 17 .1 30.3 3.3 44.5 10.9 30.6 16.3 50 48.1 50.3 82.4.1 9.7-.8 15.4-3.8 26.5-7 25.1-25 47.2-47.8 58.5-11.8 5.8-16.1 7.2-30.5 10-4.9 1-21.6.7-28-.4-29.6-5.3-54.8-23.6-68.2-49.6-7.6-14.8-9.8-23.3-11.2-43.8-.8-11.6-9.1-18.6-20.3-17.3-12.6 1.5-17.4 8.3-16.6 23.6.9 18.3 5.5 35.4 13.8 52.2 16.7 33.5 45.8 57.8 82 68.3 4.9 1.4 10.7 2.8 12.9 3 2.3.3 6.6.9 9.8 1.3 11.6 1.7 29.1.5 43.5-2.8 24-5.6 45.1-17.6 63.3-35.9 40.3-40.7 49.9-100.1 24.4-151.4-11.4-22.9-24.7-37.2-51.9-55.6-13.2-8.9-19.8-14.6-26.8-23.3-9.6-12-17.1-28.9-19.4-43.8-.9-6-1-24.1-.2-28.6.5-2.7 1.2-6.2 1.5-7.8.9-5.2 5.3-16.8 9-23.5C295.7 66.3 336 47.4 377 55.3c14.1 2.8 29.6 10.2 41 19.6 22.6 18.7 34.8 43.3 35.4 71.6.8 34.3-18 67.3-47.8 84-10.3 5.7-14 11.4-13.1 20.1.9 9.2 7.8 16 16.9 16.8 4.1.3 6-.2 12.1-3.3 15.4-7.9 28.1-18.5 42.2-35.3 9.5-11.5 21.3-36.8 24.3-52.4 2.3-12 2.5-14.2 2.4-28.9 0-22.1-4.2-39.5-14.2-58.8-22.4-43.6-66.2-71.2-114.7-72.2-23.4-.4-40.4 3.3-61 13.5-42.3 20.9-70 62.2-73 109-1.8 26.6-1.9 27.6-5.6 38.9-11.9 37-47.2 63.3-86.7 64.6-47.9 1.7-89.6-33-96.7-80.4-8.3-55.2 35.8-107.4 91.7-108.6 14.7-.3 29.2 2.8 43.6 9.3 11.2 5 23.9-1.7 26-13.9 1-5.5-.9-11.7-4.6-15.4-6-6-20.7-11.5-42.7-16.1-6.6-1.3-33-1.2-41 .2z"/>
  </g>
</svg>
