<svg xmlns="http://www.w3.org/2000/svg" xmlns:xlink="http://www.w3.org/1999/xlink" width="46" height="24" viewBox="0 0 46 24">
    <defs>
        <path id="a" d="M42.804 43.999a12.061 12.061 0 0 1-7.99-3.001 1 1 0 1 1 1.323-1.5c4.123 3.699 10.464 3.355 14.163-.768 3.7-4.123 3.357-10.463-.767-14.163-4.123-3.7-10.463-3.356-14.164.767a10.037 10.037 0 0 0-2.56 6.438v.227c-.052 6.574-5.424 11.862-11.999 11.81C14.236 43.757 8.95 38.386 9 31.81 9.052 25.236 14.424 19.949 20.998 20a11.904 11.904 0 0 1 7.814 3.006 1 1 0 1 1-1.33 1.494c-4.12-3.704-10.465-3.365-14.169.756-3.704 4.122-3.366 10.466.756 14.17 4.121 3.704 10.465 3.366 14.17-.756a10.03 10.03 0 0 0 2.566-6.443V32c0-6.626 5.372-11.998 12-11.998 6.625 0 11.997 5.372 11.997 11.998 0 6.627-5.372 11.999-11.998 11.999"/>
    </defs>
    <use fill="#311B58" fill-rule="evenodd" transform="translate(-9 -20)" xlink:href="#a"/>
</svg>
