<?xml version="1.0" encoding="UTF-8"?>
<svg viewBox="0 0 289 206" version="1.1" xmlns="http://www.w3.org/2000/svg" xmlns:xlink="http://www.w3.org/1999/xlink">
    <!-- Generator: Sketch 54.1 (76490) - https://sketchapp.com -->
    <title>eye</title>
    <desc>Created with Sketch.</desc>
    <g id="BaseApp-0.6.x" stroke="none" stroke-width="1" fill="none" fill-rule="evenodd">
        <g id="v0.6.x-00.54-Disclaimer" transform="translate(0.000000, -30.000000)">
            <g id="Group-3">
                <g id="eye" transform="translate(135.886824, 132.503340) rotate(15.000000) translate(-135.886824, -132.503340) translate(-22.613176, 31.503340)">
                    <g id="Group" transform="translate(0.000000, 0.000000)">
                        <path d="M75.5013794,24.8355801 L233.247096,182.224491 C211.954689,193.817369 186.863858,201.907535 158.302583,201.907535 C57.5645756,201.907535 0,101.263291 0,101.263291 C0,101.263291 26.680828,54.6153012 75.5013814,24.8355828 Z M80.8481346,21.6945511 C102.670082,9.36218368 128.611058,0.619047619 158.302583,0.619047619 C259.04059,0.619047619 316.605166,101.263291 316.605166,101.263291 C316.605166,101.263291 289.03488,149.466385 238.664372,179.153823 L80.8481346,21.6945511 Z" id="Combined-Shape" fill="#10BDAE"></path>
                        <g id="Group-2" transform="translate(88.307568, 33.297224)" fill="#14CCB7">
                            <path d="M131.769426,73.4722566 C131.798407,47.8757595 110.664977,27.1496533 84.5665873,27.1792028 C58.4681981,27.2087522 37.2877795,47.9827675 37.2587983,73.5792646 L131.769426,73.4722566 Z" id="Oval" transform="translate(84.514127, 50.379218) rotate(45.000000) translate(-84.514127, -50.379218) "></path>
                            <path d="M97.2724928,107.965161 C97.301474,82.3686635 76.1680433,61.6425573 50.069654,61.6721068 C23.9712648,61.7016562 2.79084625,82.4756715 2.76186505,108.072169 L97.2724928,107.965161 Z" id="Oval" opacity="0.400000006" transform="translate(50.017194, 84.872122) scale(-1, -1) rotate(45.000000) translate(-50.017194, -84.872122) "></path>
                        </g>
                    </g>
                </g>
            </g>
        </g>
    </g>
</svg>
