<?xml version="1.0" encoding="UTF-8"?>
<svg viewBox="0 0 215 203" version="1.1" xmlns="http://www.w3.org/2000/svg" xmlns:xlink="http://www.w3.org/1999/xlink">
    <!-- Generator: Sketch 54.1 (76490) - https://sketchapp.com -->
    <title>Group</title>
    <desc>Created with Sketch.</desc>
    <g id="BaseApp-0.6.x" stroke="none" stroke-width="1" fill="none" fill-rule="evenodd">
        <g id="v0.6.x-00.55-Disclaimer" transform="translate(-160.000000, -38.000000)" fill="#10BDAE">
            <g id="Group-2">
                <g id="Group" transform="translate(307.938420, 140.585535) rotate(300.000000) translate(-307.938420, -140.585535) translate(129.438420, -33.414465)">
                    <g id="Group-3" transform="translate(178.887867, 173.677211) rotate(40.000000) translate(-178.887867, -173.677211) translate(36.387867, 66.677211)">
                        <path d="M257.276648,91.7821442 L280.301944,101.766291 C282.835443,102.864857 283.998685,105.809227 282.900118,108.342726 C282.395205,109.50715 281.466369,110.435986 280.301944,110.940899 L145.715799,169.299661 C143.17779,170.400183 140.297285,170.400183 137.759277,169.299661 L3.1731309,110.940899 C0.639632723,109.842333 -0.523609321,106.897963 0.574957074,104.364465 C1.07987061,103.20004 2.00870648,102.271204 3.1731309,101.766291 L26.1984277,91.7821442 L137.759277,140.15676 C140.297285,141.257282 143.17779,141.257282 145.715799,140.15676 L257.276648,91.7821442 Z" id="Combined-Shape"></path>
                        <path d="M258.578187,134.713371 L281.603484,144.697517 C284.136982,145.796084 285.300224,148.740454 284.201658,151.273952 C283.696744,152.438376 282.767909,153.367212 281.603484,153.872126 L147.017338,212.230888 C144.47933,213.33141 141.598825,213.33141 139.060816,212.230888 L4.47467054,153.872126 C1.94117237,152.773559 0.777930322,149.829189 1.87649672,147.295691 C2.38141026,146.131267 3.31024613,145.202431 4.47467054,144.697517 L27.4999674,134.713371 L139.060816,183.087986 C141.598825,184.188508 144.47933,184.188508 147.017338,183.087986 L258.578187,134.713371 Z" id="Combined-Shape-Copy"></path>
                        <path d="M147.185344,0.873441977 L282.063853,59.1662042 C284.598672,60.2617203 285.765457,63.2046881 284.669941,65.7395067 C284.16478,66.9083549 283.232702,67.8404333 282.063853,68.3455945 L147.185344,126.638357 C144.653695,127.732503 141.782564,127.732503 139.250915,126.638357 L4.37240556,68.3455945 C1.83758692,67.2500784 0.670801681,64.3071106 1.7663178,61.7722919 C2.27147901,60.6034437 3.20355735,59.6713654 4.37240556,59.1662042 L139.250915,0.873441977 C141.782564,-0.220704257 144.653695,-0.220704257 147.185344,0.873441977 Z" id="Rectangle"></path>
                    </g>
                </g>
            </g>
        </g>
    </g>
</svg>
