<svg viewBox="0 0 20 20" xmlns="http://www.w3.org/2000/svg">
  <circle fill="none" stroke="currentColor" stroke-width="1.5" cx="10" cy="10" r="9.25" />
  <path transform="translate(3, 3)" d="M7.82495791,7 L10.912479,10.087521 C11.1402848,10.3153269 11.1402848,10.6846731 10.912479,10.912479 C10.6846731,11.1402848 10.3153269,11.1402848 10.087521,10.912479 L7,7.82495791 L3.91247896,10.912479 C3.68467312,11.1402848 3.31532688,11.1402848 3.08752104,10.912479 C2.85971521,10.6846731 2.85971521,10.3153269 3.08752104,10.087521 L6.17504209,7 L3.08752104,3.91247896 C2.85971521,3.68467312 2.85971521,3.31532688 3.08752104,3.08752104 C3.31532688,2.85971521 3.68467312,2.85971521 3.91247896,3.08752104 L7,6.17504209 L10.087521,3.08752104 C10.3153269,2.85971521 10.6846731,2.85971521 10.912479,3.08752104 C11.1402848,3.31532688 11.1402848,3.68467312 10.912479,3.91247896 L7.82495791,7 Z" />
</svg>
