<svg xmlns="http://www.w3.org/2000/svg" viewBox="0 0 16 16">
    <path transform="translate(-6 -8.5)" fill="currentColor" stroke="currentColor" stroke-width=".7" d="M19.832 22.306a6.392 6.392 0 0 1-3.097.775c-2.903 0-5.322-1.887-6.193-4.5h6.58c.29 0 .484-.194.484-.484s-.193-.484-.483-.484H10.3a7.912 7.912 0 0 1-.097-1.065c0-.387.049-.725.097-1.064h6.823c.29 0 .483-.194.483-.484s-.193-.484-.483-.484h-6.63c.872-2.613 3.29-4.5 6.194-4.5 1.113 0 2.178.29 3.097.774.242.145.532.049.677-.193.145-.242.049-.532-.193-.678C19.155 9.34 17.945 9 16.688 9c-3.436 0-6.291 2.323-7.21 5.468H7.783c-.29 0-.484.193-.484.484 0 .29.194.483.484.483h1.5a7.912 7.912 0 0 0-.097 1.065c0 .387.048.726.097 1.065h-1.5c-.29 0-.484.193-.484.483s.194.484.484.484h1.693A7.489 7.489 0 0 0 16.687 24c1.258 0 2.468-.29 3.58-.92.243-.145.34-.435.194-.677-.096-.145-.387-.242-.629-.097z"/>
</svg>
