<svg viewBox="0 0 24 24" xmlns="http://www.w3.org/2000/svg">
  <path d="M.106 11.553c.14-.281.404-.75.788-1.346a20.492 20.492 0 0 1 2.251-2.89C5.661 4.631 8.62 3 12 3c3.38 0 6.339 1.632 8.855 4.316a20.492 20.492 0 0 1 2.25 2.891c.385.596.649 1.065.79 1.346a1 1 0 0 1 0 .894c-.141.281-.405.75-.79 1.346a20.492 20.492 0 0 1-2.25 2.89C18.339 19.369 15.38 21 12 21c-3.38 0-6.339-1.632-8.855-4.316a20.492 20.492 0 0 1-2.25-2.891 15.188 15.188 0 0 1-.79-1.346 1 1 0 0 1 0-.894zm2.468 1.154c.575.89 1.254 1.781 2.03 2.61C6.777 17.631 9.255 19 12 19s5.224-1.368 7.395-3.684A18.513 18.513 0 0 0 21.86 12a18.513 18.513 0 0 0-2.464-3.316C17.224 6.368 14.745 5 12 5S6.776 6.368 4.605 8.684A18.513 18.513 0 0 0 2.14 12c.126.218.27.455.433.707zM12 16a4 4 0 1 1 0-8 4 4 0 0 1 0 8zm0-2a2 2 0 1 0 0-4 2 2 0 0 0 0 4z" id="a"/>
</svg>
