<svg viewBox="0 0 24 24" xmlns="http://www.w3.org/2000/svg">
  <path d="M8.713 19.042c-2.152.646-3.021.304-4.097-1.028-.072-.089-.37-.468-.45-.567-.644-.795-1.158-1.226-1.923-1.417a1 1 0 0 0-.486 1.94c.23.058.462.252.853.735.07.085.368.464.45.565 1.554 1.925 3.235 2.585 6.227 1.688a1 1 0 0 0-.574-1.916zM22.5 9.52a6.44 6.44 0 0 0-1.379-3.981 6.07 6.07 0 0 0-.292-3.933 1 1 0 0 0-.635-.565 1.502 1.502 0 0 0-.21-.044c-.939-.136-2.317.235-4.163 1.406a14.38 14.38 0 0 0-6.642 0C7.333 1.232 5.955.86 5.015.997a1.502 1.502 0 0 0-.21.044 1 1 0 0 0-.634.565 6.07 6.07 0 0 0-.292 3.933A6.44 6.44 0 0 0 2.5 9.555c0 4.612 2.06 6.866 5.8 7.725a4.37 4.37 0 0 0-.298 1.92L8 23a1 1 0 0 0 2 0v-3.87c-.05-.741.19-1.401.659-1.885a1 1 0 0 0-.596-1.687C6.27 15.086 4.5 13.599 4.5 9.55a4.443 4.443 0 0 1 1.224-3.09 1 1 0 0 0 .213-1.04 4.07 4.07 0 0 1-.14-2.392c.07.015.147.035.231.06.645.185 1.448.574 2.415 1.223a1 1 0 0 0 .819.134 12.38 12.38 0 0 1 6.476 0 1 1 0 0 0 .819-.134c.967-.649 1.77-1.038 2.415-1.224.084-.024.16-.044.23-.06a4.07 4.07 0 0 1-.139 2.393 1 1 0 0 0 .213 1.04A4.44 4.44 0 0 1 20.5 9.52c0 4.088-1.782 5.586-5.55 6.006a1 1 0 0 0-.608 1.69 2.37 2.37 0 0 1 .661 1.836L15 23a1 1 0 0 0 2 0v-3.87a4.154 4.154 0 0 0-.29-1.867c3.72-.825 5.79-3.1 5.79-7.743z" id="a"/>
</svg>
