<svg viewBox="0 0 24 24" xmlns="http://www.w3.org/2000/svg">
  <path d="M9.2 13.599a1 1 0 0 1 1.6-1.198 4 4 0 0 0 6.033.432l2.988-2.988a4 4 0 0 0-.049-5.607 3.997 3.997 0 0 0-5.597-.059l-1.72 1.71a1 1 0 1 1-1.41-1.418l1.73-1.72a6 6 0 0 1 8.472 8.496l-3 3a6 6 0 0 1-9.048-.648zm5.6-3.198a1 1 0 1 1-1.6 1.198 4 4 0 0 0-6.033-.432L4.18 14.155a4 4 0 0 0 .049 5.607c1.543 1.543 4.038 1.565 5.595.06l1.71-1.71a1 1 0 0 1 1.414 1.415l-1.722 1.722a6 6 0 0 1-8.472-8.496l3-3a6 6 0 0 1 9.048.648z" id="a"/>
</svg>
