<svg viewBox="0 0 24 24" version="1.1" xmlns="http://www.w3.org/2000/svg">
  <path d="M5.9999982,10 L6.00000051,7.001005 C5.99690257,3.91848638 8.33009128,1.33514116 11.3970052,1.02535187 C14.4639192,0.715562579 17.2665944,2.78013367 17.8800005,5.801005 C17.9899024,6.34224433 17.6402343,6.8700986 17.098995,6.98000051 C16.5577557,7.08990241 16.0299014,6.74023433 15.9199995,6.198995 C15.5110621,4.18508078 13.642612,2.80870005 11.5980027,3.01522625 C9.55339335,3.22175244 7.99793421,4.94398259 8,7.00000064 L7.99999807,10 L19,10 C20.6568542,10 22,11.3431458 22,13 L22,20 C22,21.6568542 20.6568542,23 19,23 L5,23 C3.34314575,23 2,21.6568542 2,20 L2,13 C2,11.3431458 3.34314575,10 5,10 L5.9999982,10 Z M5,12 C4.44771525,12 4,12.4477153 4,13 L4,20 C4,20.5522847 4.44771525,21 5,21 L19,21 C19.5522847,21 20,20.5522847 20,20 L20,13 C20,12.4477153 19.5522847,12 19,12 L5,12 Z" />
</svg>
