<svg viewBox="0 0 20 20" xmlns="http://www.w3.org/2000/svg">
  <circle fill="none" stroke="currentColor" stroke-width="1.5" cx="10" cy="10" r="9.25" />
  <path d="M9.1444043,13.6796875 L10.4075879,13.6796875 L10.4075879,15 L9.1444043,15 L9.1444043,13.6796875 Z M7.00524414,8.59521484 C7.00524414,7.68114777 7.26337958,6.94588494 7.7796582,6.3894043 C8.29593683,5.83292365 9.00475135,5.5546875 9.90612305,5.5546875 C10.7397861,5.5546875 11.4073412,5.79272223 11.9088086,6.26879883 C12.4102759,6.74487543 12.6610059,7.3531864 12.6610059,8.09375 C12.6610059,8.54231995 12.5689658,8.9062486 12.3848828,9.18554688 C12.2007999,9.46484515 11.8294657,9.87532281 11.2708691,10.4169922 C10.8646171,10.8105488 10.601192,11.1437975 10.4805859,11.416748 C10.3599799,11.6896986 10.2996777,12.0927708 10.2996777,12.6259766 L9.16979492,12.6259766 C9.16979492,12.0208303 9.24173431,11.5331236 9.38561523,11.1628418 C9.52949616,10.79256 9.84475994,10.3683292 10.331416,9.89013672 L10.8392285,9.38867188 C10.991573,9.24479095 11.1142932,9.09456458 11.2073926,8.93798828 C11.3766643,8.6629218 11.4612988,8.37728013 11.4612988,8.08105469 C11.4612988,7.66633907 11.3375208,7.30664215 11.0899609,7.00195312 C10.8424011,6.6972641 10.4329814,6.54492188 9.86168945,6.54492188 C9.15498019,6.54492188 8.66621555,6.80728904 8.39538086,7.33203125 C8.24303635,7.6240249 8.15628591,8.04508188 8.13512695,8.59521484 L7.00524414,8.59521484 Z" />
</svg>
