<svg viewBox="0 0 24 24" xmlns="http://www.w3.org/2000/svg">
  <path d="M22.932 14.638a1 1 0 0 1 .068.364V21a1 1 0 0 1-2 0v-3.688l-2.933 2.755a10 10 0 0 1-16.5-3.733 1 1 0 1 1 1.886-.668A8 8 0 0 0 9.229 20.8a8.015 8.015 0 0 0 7.446-2.169l2.8-2.631H16a1 1 0 0 1 0-2h6a1 1 0 0 1 .927.625l.005.013zM.068 9.36A1 1 0 0 1 0 8.996V2.998a1 1 0 0 1 2 0v3.688l2.933-2.755a10 10 0 0 1 16.5 3.733 1 1 0 1 1-1.886.667 8 8 0 0 0-5.776-5.134 8.015 8.015 0 0 0-7.446 2.17l-2.8 2.63H7a1 1 0 1 1 0 2H1a1 1 0 0 1-.927-.625L.068 9.36z" id="a"/>
</svg>
