<svg viewBox="0 0 24 24" xmlns="http://www.w3.org/2000/svg">
  <path d="M20.299 8.715A.647.647 0 0 0 20.83 9H21a3 3 0 0 1 0 6h-.086a.65.65 0 0 0-.595.394.65.65 0 0 0 .118.719l.06.06a3 3 0 1 1-4.244 4.244l-.052-.052a.654.654 0 0 0-.727-.126.649.649 0 0 0-.394.591V21a3 3 0 0 1-6 0 .698.698 0 0 0-.484-.685.647.647 0 0 0-.709.122l-.06.06a3 3 0 1 1-4.244-4.244l.052-.052a.654.654 0 0 0 .126-.727.649.649 0 0 0-.591-.394H3a3 3 0 0 1 0-6 .698.698 0 0 0 .685-.484.647.647 0 0 0-.122-.709l-.06-.06a3 3 0 1 1 4.244-4.244l.052.052a.65.65 0 0 0 .717.13 1 1 0 0 1 .2-.064A.647.647 0 0 0 9 3.17V3a3 3 0 0 1 6 0v.086c.001.26.156.493.404.6a.647.647 0 0 0 .709-.123l.06-.06a3 3 0 1 1 4.244 4.244l-.052.052a.65.65 0 0 0-.13.717 1 1 0 0 1 .064.2zM9.129 5.672a2.655 2.655 0 0 1-2.736-.615l-.06-.06a1 1 0 1 0-1.416 1.416l.068.068c.757.774.967 1.932.554 2.864A2.657 2.657 0 0 1 3.09 11.08H3a1 1 0 0 0 0 2h.174a2.646 2.646 0 0 1 2.42 1.596 2.654 2.654 0 0 1-.537 2.931l-.06.06a1 1 0 1 0 1.416 1.416l.068-.068c.774-.757 1.932-.967 2.864-.554a2.657 2.657 0 0 1 1.735 2.449V21a1 1 0 0 0 2 0v-.174a2.646 2.646 0 0 1 1.596-2.42 2.654 2.654 0 0 1 2.931.537l.06.06a1 1 0 1 0 1.416-1.416l-.068-.068a2.65 2.65 0 0 1-.53-2.923A2.648 2.648 0 0 1 20.91 13H21a1 1 0 0 0 0-2h-.174a2.65 2.65 0 0 1-2.425-1.606 1 1 0 0 1-.073-.264 2.655 2.655 0 0 1 .615-2.737l.06-.06a1 1 0 1 0-1.416-1.416l-.068.068a2.646 2.646 0 0 1-2.913.534A2.651 2.651 0 0 1 13 3.09V3a1 1 0 0 0-2 0v.174a2.65 2.65 0 0 1-1.606 2.425 1 1 0 0 1-.264.073zM12 16a4 4 0 1 1 0-8 4 4 0 0 1 0 8zm0-2a2 2 0 1 0 0-4 2 2 0 0 0 0 4z" id="a"/>
</svg>
