<svg viewBox="0 0 24 24" xmlns="http://www.w3.org/2000/svg">
  <path d="M12.447 22.894a1 1 0 0 1-.894 0 17.31 17.31 0 0 1-1.333-.765 22.465 22.465 0 0 1-2.879-2.126C4.646 17.643 3 14.969 3 12V4a1 1 0 0 1 .757-.97l8-2a1 1 0 0 1 .486 0l8 2A1 1 0 0 1 21 4v8c0 2.97-1.646 5.644-4.341 8.003a22.465 22.465 0 0 1-2.879 2.126 17.31 17.31 0 0 1-1.333.765zm.273-2.46a20.49 20.49 0 0 0 2.621-1.937C17.646 16.481 19 14.281 19 12V4.78l-7-1.75-7 1.75V12c0 2.28 1.354 4.481 3.659 6.497A20.49 20.49 0 0 0 12 20.863c.221-.126.463-.269.72-.43z" id="a"/>
</svg>
