<?xml version="1.0" standalone="no"?>
<!DOCTYPE svg PUBLIC "-//W3C//DTD SVG 20010904//EN"
 "http://www.w3.org/TR/2001/REC-SVG-20010904/DTD/svg10.dtd">
<svg version="1.0" xmlns="http://www.w3.org/2000/svg"
 width="256.000000pt" height="256.000000pt" viewBox="0 0 256.000000 256.000000"
 preserveAspectRatio="xMidYMid meet">
<metadata>
Created by potrace 1.11, written by Peter Selinger 2001-2013
</metadata>
<g transform="translate(0.000000,256.000000) scale(0.100000,-0.100000)"
fill="#000000" stroke="none">
<path d="M1480 2521 c0 -5 -9 -13 -20 -16 -20 -6 -20 -7 6 -27 15 -13 29 -17
32 -11 4 5 16 14 26 20 19 10 18 11 -2 17 -12 4 -22 12 -22 17 0 5 -4 9 -10 9
-5 0 -10 -4 -10 -9z"/>
<path d="M727 2303 c-3 -5 1 -14 9 -20 14 -14 30 0 19 17 -7 12 -22 13 -28 3z"/>
<path d="M291 2108 c-1 -20 -56 -68 -79 -68 -10 -1 -1 -9 19 -20 20 -10 43
-34 52 -52 l16 -33 10 28 c6 15 27 37 47 49 l37 22 -24 10 c-24 11 -44 30 -66
63 -10 16 -12 16 -12 1z"/>
<path d="M1288 2085 c-1 -1 -26 -5 -54 -9 -110 -13 -236 -63 -346 -137 -75
-52 -208 -184 -208 -209 0 -6 -3 -10 -8 -10 -4 0 -18 -21 -32 -47 -13 -27 -29
-51 -35 -55 -5 -4 -7 -8 -3 -8 4 0 -1 -19 -11 -42 -19 -44 -39 -121 -46 -173
-2 -17 -4 -30 -5 -30 -1 0 -2 -22 -2 -50 -4 -179 51 -361 146 -490 88 -120
199 -210 340 -276 73 -34 113 -47 211 -67 17 -4 84 -6 150 -5 99 0 136 5 208
27 281 84 484 274 570 536 96 290 13 601 -218 818 -156 148 -335 222 -547 227
-58 2 -108 2 -110 0z m292 -83 c36 -11 90 -31 121 -45 64 -31 152 -87 145 -94
-2 -3 -133 -4 -290 -4 l-286 0 -44 26 c-61 36 -130 36 -189 2 -38 -22 -90 -32
-147 -28 -23 2 117 88 190 116 110 43 183 55 315 51 80 -3 142 -11 185 -24z
m-390 -162 c9 -5 22 -16 30 -24 11 -14 58 -16 358 -16 l346 0 43 -47 c45 -51
51 -62 31 -64 -7 -1 -184 -2 -392 -2 -297 -2 -380 -5 -384 -15 -6 -18 -56 -42
-87 -42 -29 0 -60 14 -89 39 -15 13 -45 16 -165 18 -80 0 -148 2 -150 2 -6 2
30 54 57 84 25 26 29 27 133 27 87 0 109 3 120 17 32 38 101 49 149 23z m-160
-240 c50 -36 150 -36 200 0 l35 25 393 0 394 0 18 -35 c10 -19 25 -59 33 -87
l16 -53 -100 0 c-84 0 -103 3 -120 19 -28 26 -101 45 -144 37 -128 -24 -190
-162 -120 -267 28 -44 96 -79 150 -79 38 0 125 34 125 50 0 4 50 7 112 6 129
-2 125 2 101 -101 l-15 -65 -290 0 c-248 0 -295 -2 -324 -16 -83 -40 -85 -157
-3 -200 22 -11 76 -14 254 -14 130 0 225 -4 225 -9 0 -17 -129 -125 -200 -168
-89 -55 -219 -100 -231 -81 -5 7 -9 19 -9 26 0 21 -50 90 -86 117 -80 61 -195
73 -282 29 -47 -23 -97 -69 -120 -110 -8 -15 -15 -13 -72 17 -74 39 -213 171
-257 244 -56 91 -94 195 -108 293 -6 41 -5 42 22 43 15 0 179 1 363 1 254 0
343 4 367 14 44 18 75 69 69 114 -6 42 -3 33 -23 57 -37 42 -48 43 -422 43
-199 0 -361 3 -361 8 0 14 31 94 49 131 l19 37 154 0 c147 -1 154 -2 188 -26z
m838 -183 c26 -24 32 -25 144 -23 131 1 128 3 128 -76 l0 -38 -130 0 c-78 0
-130 -4 -130 -10 0 -18 -76 -49 -106 -44 -115 21 -140 154 -39 213 32 18 103
7 133 -22z m-517 -45 c10 -13 16 -32 14 -43 -9 -48 -16 -49 -405 -46 l-364 2
3 50 c1 27 6 52 11 55 4 3 169 5 365 4 357 0 358 0 376 -22z m716 -410 c-14
-34 -39 -75 -49 -83 -5 -3 -119 -5 -254 -4 -232 1 -247 2 -261 20 -7 11 -13
31 -11 45 6 46 31 50 320 49 l267 -1 -12 -26z m-702 -281 c70 -32 134 -122
103 -143 -33 -23 -341 11 -370 40 -14 14 37 72 86 97 60 30 124 32 181 6z"/>
<path d="M990 1095 c-73 -24 -115 -118 -85 -190 59 -139 275 -101 281 49 4
107 -92 176 -196 141z m97 -65 c87 -53 19 -182 -77 -148 -46 16 -66 65 -46
113 23 54 70 68 123 35z"/>
<path d="M2396 1721 c-3 -5 0 -14 8 -20 10 -9 15 -8 19 3 9 22 -15 37 -27 17z"/>
<path d="M35 1185 l-20 -20 21 -21 21 -21 21 22 20 21 -21 20 c-22 19 -22 19
-42 -1z"/>
<path d="M375 740 c-4 -6 -3 -16 3 -22 6 -6 12 -6 17 2 4 6 3 16 -3 22 -6 6
-12 6 -17 -2z"/>
<path d="M2432 659 c-12 -30 -57 -69 -81 -70 -9 0 0 -7 20 -15 22 -9 44 -28
54 -49 l18 -33 16 31 c9 18 31 39 49 49 32 15 32 17 11 23 -30 10 -56 35 -67
65 l-10 25 -10 -26z"/>
<path d="M1804 339 c-9 -15 13 -36 25 -23 6 5 4 14 -4 21 -10 9 -16 10 -21 2z"/>
<path d="M966 45 c-5 -14 17 -28 28 -18 10 10 7 21 -8 26 -8 3 -17 0 -20 -8z"/>
</g>
</svg>
