<?xml version="1.0" standalone="no"?>
<!DOCTYPE svg PUBLIC "-//W3C//DTD SVG 20010904//EN"
 "http://www.w3.org/TR/2001/REC-SVG-20010904/DTD/svg10.dtd">
<svg version="1.0" xmlns="http://www.w3.org/2000/svg"
 width="500.000000pt" height="500.000000pt" viewBox="0 0 500.000000 500.000000"
 preserveAspectRatio="xMidYMid meet">
<metadata>
Created by potrace 1.11, written by Peter Selinger 2001-2013
</metadata>
<g transform="translate(0.000000,500.000000) scale(0.100000,-0.100000)"
fill="#000000" stroke="none">
<path d="M1115 4824 c-94 -17 -216 -49 -262 -70 -18 -8 -50 -21 -70 -30 -192
-80 -427 -274 -550 -456 -29 -43 -53 -80 -53 -82 0 -3 -10 -22 -22 -43 -64
-107 -117 -271 -147 -453 -10 -57 -7 -322 3 -375 60 -300 166 -510 359 -712
171 -179 436 -328 664 -373 26 -5 59 -12 73 -16 52 -13 345 -11 425 2 127 22
261 68 413 143 229 113 322 139 505 139 170 -1 303 -33 445 -109 306 -163 500
-481 503 -824 1 -97 -8 -154 -38 -265 -70 -251 -250 -472 -478 -585 -118 -58
-161 -72 -305 -100 -49 -10 -216 -7 -280 4 -296 53 -548 236 -682 496 -76 148
-98 233 -112 438 -8 116 -91 186 -203 173 -126 -15 -174 -83 -166 -236 9 -183
55 -354 138 -522 167 -335 458 -578 820 -683 49 -14 107 -28 129 -30 23 -3 66
-9 98 -13 116 -17 291 -5 435 28 240 56 451 176 633 359 403 407 499 1001 244
1514 -114 229 -247 372 -519 556 -132 89 -198 146 -268 233 -96 120 -171 289
-194 438 -9 60 -10 241 -2 286 5 27 12 62 15 78 9 52 53 168 90 235 201 368
604 557 1014 478 141 -28 296 -102 410 -196 226 -187 348 -433 354 -716 8
-343 -180 -673 -478 -840 -103 -57 -140 -114 -131 -201 9 -92 78 -160 169
-168 41 -3 60 2 121 33 154 79 281 185 422 353 95 115 213 368 243 524 23 120
25 142 24 289 0 221 -42 395 -142 588 -224 436 -662 712 -1147 722 -234 4
-404 -33 -610 -135 -423 -209 -700 -622 -730 -1090 -18 -266 -19 -276 -56
-389 -119 -370 -472 -633 -867 -646 -479 -17 -896 330 -967 804 -83 552 358
1074 917 1086 147 3 292 -28 436 -93 112 -50 239 17 260 139 10 55 -9 117 -46
154 -60 60 -207 115 -427 161 -66 13 -330 12 -410 -2z"/>
</g>
</svg>
