<?xml version="1.0" encoding="UTF-8"?>
<svg viewBox="0 0 244 190" version="1.1" xmlns="http://www.w3.org/2000/svg" xmlns:xlink="http://www.w3.org/1999/xlink">
    <!-- Generator: Sketch 55.1 (78136) - https://sketchapp.com -->
    <title>Account card</title>
    <desc>Created with Sketch.</desc>
    <defs>
        <path d="M8.41091954,0 L205.41092,0 C209.829198,-8.11624501e-16 213.41092,3.581722 213.41092,8 L213.41092,121 C213.41092,125.418278 209.829198,129 205.41092,129 L8.41091954,129 C3.99264154,129 0.41091954,125.418278 0.41091954,121 L0.41091954,8 C0.41091954,3.581722 3.99264154,8.11624501e-16 8.41091954,0 Z" id="path-1"></path>
        <filter x="-11.3%" y="-18.6%" width="122.5%" height="137.2%" filterUnits="objectBoundingBox" id="filter-2">
            <feOffset dx="0" dy="0" in="SourceAlpha" result="shadowOffsetOuter1"></feOffset>
            <feGaussianBlur stdDeviation="8" in="shadowOffsetOuter1" result="shadowBlurOuter1"></feGaussianBlur>
            <feColorMatrix values="0 0 0 0 0.105882353   0 0 0 0 0.266666667   0 0 0 0 0.474509804  0 0 0 0.2 0" type="matrix" in="shadowBlurOuter1"></feColorMatrix>
        </filter>
        <path d="M4.70710678,12.2928932 C4.31658249,11.9023689 3.68341751,11.9023689 3.29289322,12.2928932 C2.90236893,12.6834175 2.90236893,13.3165825 3.29289322,13.7071068 L8.29289322,18.7071068 C8.68341751,19.0976311 9.31658249,19.0976311 9.70710678,18.7071068 L20.7071068,7.70710678 C21.0976311,7.31658249 21.0976311,6.68341751 20.7071068,6.29289322 C20.3165825,5.90236893 19.6834175,5.90236893 19.2928932,6.29289322 L9,16.5857864 L4.70710678,12.2928932 Z" id="path-3"></path>
    </defs>
    <g id="BaseApp-0.6.x" stroke="none" stroke-width="1" fill="none" fill-rule="evenodd">
        <g id="v0.6.x-00.51-Disclaimer" transform="translate(-66.000000, -134.000000)">
            <g id="Group-4" transform="translate(16.000000, 91.000000)">
                <g id="Account-card" transform="translate(52.000000, 42.281333)">
                    <circle id="Oval" fill="#EDF3F7" cx="16" cy="138.885189" r="16"></circle>
                    <polygon id="Rectangle" fill="#EDF3F7" transform="translate(176.094026, 128.801928) rotate(45.000000) translate(-176.094026, -128.801928) " points="132.901638 85.6095401 219.294026 85.6019283 219.286414 171.994316 132.894026 172.001928"></polygon>
                    <rect id="Rectangle-Copy" fill="#EDF3F7" transform="translate(118.781333, 36.500000) rotate(22.000000) translate(-118.781333, -36.500000) " x="91.2813328" y="9" width="55" height="55"></rect>
                    <g id="Group-16" transform="translate(13.000000, 30.718667)">
                        <g id="Rectangle-3-Copy-16">
                            <use fill="black" fill-opacity="1" filter="url(#filter-2)" xlink:href="#path-1"></use>
                            <use fill="#FF0D6A" fill-rule="evenodd" xlink:href="#path-1"></use>
                        </g>
                        <path d="M0.41091954,107 L213.41092,107 L213.41092,121 C213.41092,125.418278 209.829198,129 205.41092,129 L8.41091954,129 C3.99264154,129 0.41091954,125.418278 0.41091954,121 L0.41091954,107 Z" id="Rectangle-3-Copy-25" fill="#D12869"></path>
                        <circle id="Oval-9" fill="#D12869" cx="20.4109195" cy="22" r="11"></circle>
                        <path d="M40.4109195,18.3450346 L41.9928513,18.3450346 L44.7433033,24.9630485 L44.8445469,24.9630485 L47.5949989,18.3450346 L49.1769306,18.3450346 L49.1769306,26.8586605 L47.9366961,26.8586605 L47.9366961,20.6979215 L47.8565449,20.6979215 L45.3085802,26.8461894 L44.2792699,26.8461894 L41.7313052,20.6937644 L41.651154,20.6937644 L41.651154,26.8586605 L40.4109195,26.8586605 L40.4109195,18.3450346 Z M53.0748104,27 C52.6642092,27 52.2936893,26.925174 51.9632397,26.7755196 C51.6327901,26.6258653 51.3705436,26.406237 51.1764923,26.1166282 C50.9824411,25.8270193 50.8854169,25.4729813 50.8854169,25.0545035 C50.8854169,24.6914532 50.9564273,24.3935347 51.0984504,24.160739 C51.2404734,23.9279434 51.4303033,23.7436496 51.6679458,23.6078522 C51.9055883,23.4720547 52.1720532,23.3702082 52.4673486,23.3023095 C52.762644,23.2344107 53.0635596,23.1824482 53.3701043,23.1464203 C53.7582069,23.1020783 54.0724808,23.0653581 54.3129356,23.0362587 C54.5533905,23.0071592 54.7291589,22.9593537 54.8402462,22.8928406 C54.9513335,22.8263276 55.0068764,22.7182456 55.0068764,22.5685912 L55.0068764,22.5394919 C55.0068764,22.1764416 54.9035245,21.8951511 54.6968177,21.695612 C54.490111,21.4960729 54.1828677,21.3963048 53.7750789,21.3963048 C53.3504159,21.3963048 53.0164559,21.4877589 52.7731888,21.6706697 C52.5299216,21.8535806 52.361887,22.0586594 52.2690798,22.2859122 L51.0836857,22.0198614 C51.2946109,21.4378724 51.6468509,21.0207865 52.1404161,20.7685912 C52.6339812,20.516396 53.1732388,20.3903002 53.7582049,20.3903002 C54.0169399,20.3903002 54.2911387,20.4200921 54.5808094,20.4796767 C54.8704801,20.5392613 55.1439758,20.648729 55.4013047,20.8080831 C55.6586335,20.9674373 55.8681495,21.1926082 56.0298589,21.4836028 C56.1915683,21.7745973 56.2724218,22.1528845 56.2724218,22.6184758 L56.2724218,26.8586605 L55.0406242,26.8586605 L55.0406242,25.9856813 L54.9900024,25.9856813 C54.8690719,26.2240197 54.6539314,26.4526548 54.3445743,26.6715935 C54.0352172,26.8905323 53.6119668,27 53.0748104,27 Z M53.3490119,26.0023095 C53.7005541,26.0023095 54.0000635,25.9344118 54.2475491,25.7986143 C54.4950348,25.6628169 54.6841616,25.4847586 54.8149353,25.2644342 C54.945709,25.0441098 55.0110949,24.8078535 55.0110949,24.5556582 L55.0110949,23.7325635 C54.9520358,23.7907624 54.8226702,23.8420321 54.6229943,23.8863741 C54.4233183,23.9307162 54.2123962,23.9681292 53.9902216,23.9986143 C53.7680469,24.0290995 53.5880601,24.0540415 53.4502555,24.0734411 C53.0846517,24.1205545 52.7717839,24.2154727 52.5116427,24.3581986 C52.2515015,24.5009245 52.1214329,24.7385665 52.1214329,25.0711316 C52.1214329,25.3787544 52.236737,25.6108537 52.4673486,25.7674365 C52.6979603,25.9240193 52.9918451,26.0023095 53.3490119,26.0023095 Z M57.9513786,26.8586605 L57.9513786,20.4734411 L59.2127055,20.4734411 L59.2127055,26.8586605 L57.9513786,26.8586605 Z M58.5883698,19.5090069 C58.3690075,19.5090069 58.1812868,19.4348737 58.0252021,19.2866051 C57.8691174,19.1383364 57.7910762,18.9602782 57.7910762,18.7524249 C57.7910762,18.5445717 57.8691174,18.3672063 58.0252021,18.2203233 C58.1812868,18.0734404 58.3690075,18 58.5883698,18 C58.8049198,18 58.9919374,18.0734404 59.1494283,18.2203233 C59.3069192,18.3672063 59.3856634,18.5445717 59.3856634,18.7524249 C59.3856634,18.9602782 59.3069192,19.1383364 59.1494283,19.2866051 C58.9919374,19.4348737 58.8049198,19.5090069 58.5883698,19.5090069 Z M62.1698633,23.0674365 L62.1698633,26.8586605 L60.9085364,26.8586605 L60.9085364,20.4734411 L62.1192415,20.4734411 L62.1192415,21.5127021 L62.1993927,21.5127021 C62.3484465,21.1745942 62.5825701,20.9030033 62.9017704,20.6979215 C63.2209706,20.4928396 63.6238319,20.3903002 64.1103662,20.3903002 C64.7740778,20.3903002 65.3077107,20.5939933 65.7112811,21.0013857 C66.1148515,21.408778 66.3166337,22.0073864 66.3166337,22.7972286 L66.3166337,26.8586605 L65.0553068,26.8586605 L65.0553068,22.9468822 C65.0553068,22.4840624 64.9329719,22.1217103 64.6882986,21.8598152 C64.4436253,21.5979202 64.107556,21.4669746 63.6800808,21.4669746 C63.2413562,21.4669746 62.8799763,21.6062342 62.5959302,21.8847575 C62.3118842,22.1632808 62.1698633,22.5575032 62.1698633,23.0674365 Z M71.9820585,26.8586605 L70.5983956,26.8586605 L73.7074187,18.3450346 L75.2134178,18.3450346 L78.3224409,26.8586605 L76.938778,26.8586605 L76.1499213,24.6055427 L72.7751336,24.6055427 L71.9820585,26.8586605 Z M73.1547973,23.5247113 L75.7702577,23.5247113 L74.4962754,19.891455 L74.4287796,19.891455 L73.1547973,23.5247113 Z M82.1950098,26.9875289 C81.5678586,26.9875289 81.0286011,26.8468836 80.577221,26.5655889 C80.1258409,26.2842942 79.7792255,25.8956145 79.5373645,25.3995381 C79.2955035,24.9034617 79.1745748,24.3353381 79.1745748,23.6951501 C79.1745748,23.0438767 79.2983158,22.4702103 79.5458015,21.9741339 C79.7932871,21.4780576 80.1427148,21.0900707 80.5940949,20.8101617 C81.045475,20.5302526 81.5748895,20.3903002 82.1823544,20.3903002 C82.6745134,20.3903002 83.1132314,20.4796758 83.4985216,20.6584296 C83.8838118,20.8371833 84.1952734,21.0872963 84.4329159,21.408776 C84.6705584,21.7302556 84.8118762,22.1057715 84.8568736,22.5353349 L83.6292946,22.5353349 C83.5617985,22.2360262 83.4078254,21.9782921 83.1673705,21.7621247 C82.9269157,21.5459573 82.605611,21.4378753 82.2034468,21.4378753 C81.6775397,21.4378753 81.2535863,21.6381042 80.9315737,22.0385681 C80.6095611,22.439032 80.4485572,22.9815208 80.4485572,23.6660508 C80.4485572,24.3616663 80.6074519,24.9138548 80.925246,25.3226328 C81.2430401,25.7314108 81.6691027,25.9357968 82.2034468,25.9357968 C82.563426,25.9357968 82.8713722,25.8388 83.1272949,25.6448037 C83.3832176,25.4508073 83.5505492,25.1819879 83.6292946,24.8383372 L84.8568736,24.8383372 C84.8118762,25.2512723 84.6754799,25.6198598 84.4476806,25.9441109 C84.2198813,26.2683619 83.9154504,26.5233247 83.5343787,26.7090069 C83.153307,26.8946892 82.7068552,26.9875289 82.1950098,26.9875289 Z M88.9403668,26.9875289 C88.3132156,26.9875289 87.773958,26.8468836 87.3225779,26.5655889 C86.8711978,26.2842942 86.5245824,25.8956145 86.2827214,25.3995381 C86.0408604,24.9034617 85.9199318,24.3353381 85.9199318,23.6951501 C85.9199318,23.0438767 86.0436727,22.4702103 86.2911584,21.9741339 C86.5386441,21.4780576 86.8880717,21.0900707 87.3394518,20.8101617 C87.7908319,20.5302526 88.3202465,20.3903002 88.9277113,20.3903002 C89.4198703,20.3903002 89.8585883,20.4796758 90.2438785,20.6584296 C90.6291687,20.8371833 90.9406304,21.0872963 91.1782729,21.408776 C91.4159153,21.7302556 91.5572332,22.1057715 91.6022306,22.5353349 L90.3746515,22.5353349 C90.3071554,22.2360262 90.1531823,21.9782921 89.9127275,21.7621247 C89.6722726,21.5459573 89.3509679,21.4378753 88.9488037,21.4378753 C88.4228967,21.4378753 87.9989432,21.6381042 87.6769306,22.0385681 C87.354918,22.439032 87.1939141,22.9815208 87.1939141,23.6660508 C87.1939141,24.3616663 87.3528088,24.9138548 87.6706029,25.3226328 C87.988397,25.7314108 88.4144597,25.9357968 88.9488037,25.9357968 C89.3087829,25.9357968 89.6167292,25.8388 89.8726519,25.6448037 C90.1285745,25.4508073 90.2959061,25.1819879 90.3746515,24.8383372 L91.6022306,24.8383372 C91.5572332,25.2512723 91.4208369,25.6198598 91.1930375,25.9441109 C90.9652382,26.2683619 90.6608073,26.5233247 90.2797356,26.7090069 C89.8986639,26.8946892 89.4522121,26.9875289 88.9403668,26.9875289 Z M95.6857237,26.9875289 C95.0782589,26.9875289 94.5481413,26.8503478 94.095355,26.5759815 C93.6425687,26.3016153 93.2910318,25.9170925 93.0407338,25.4224018 C92.7904358,24.9277112 92.6652887,24.3519663 92.6652887,23.6951501 C92.6652887,23.0327911 92.7904358,22.4535822 93.0407338,21.9575058 C93.2910318,21.4614294 93.6425687,21.0762138 94.095355,20.8018476 C94.5481413,20.5274813 95.0782589,20.3903002 95.6857237,20.3903002 C96.2960008,20.3903002 96.8268215,20.5274813 97.2782016,20.8018476 C97.7295817,21.0762138 98.0804155,21.4614294 98.3307135,21.9575058 C98.5810116,22.4535822 98.7061587,23.0327911 98.7061587,23.6951501 C98.7061587,24.3519663 98.5810116,24.9277112 98.3307135,25.4224018 C98.0804155,25.9170925 97.7295817,26.3016153 97.2782016,26.5759815 C96.8268215,26.8503478 96.2960008,26.9875289 95.6857237,26.9875289 Z M95.6899422,25.9441109 C96.0864817,25.9441109 96.413411,25.8415715 96.6707398,25.6364896 C96.9280687,25.4314078 97.1193048,25.1577384 97.2444538,24.8154734 C97.3696028,24.4732085 97.4321763,24.0983854 97.4321763,23.6909931 C97.4321763,23.2836007 97.3696028,22.9080849 97.2444538,22.5644342 C97.1193048,22.2207835 96.9280687,21.9457285 96.6707398,21.739261 C96.413411,21.5327934 96.0864817,21.4295612 95.6899422,21.4295612 C95.2934026,21.4295612 94.9657703,21.5327934 94.7070352,21.739261 C94.4483002,21.9457285 94.255658,22.2207835 94.1291029,22.5644342 C94.0025477,22.9080849 93.939271,23.2836007 93.939271,23.6909931 C93.939271,24.0983854 94.0025477,24.4732085 94.1291029,24.8154734 C94.255658,25.1577384 94.4483002,25.4314078 94.7070352,25.6364896 C94.9657703,25.8415715 95.2934026,25.9441109 95.6899422,25.9441109 Z M104.2155,24.2106236 L104.2155,20.4734411 L105.481045,20.4734411 L105.481045,26.8586605 L104.240811,26.8586605 L104.240811,25.7528868 L104.173315,25.7528868 C104.024261,26.0937661 103.785919,26.3771351 103.458282,26.6030023 C103.130644,26.8288695 102.723565,26.9418014 102.23703,26.9418014 C101.615504,26.9418014 101.105775,26.7388011 100.70783,26.3327945 C100.309884,25.9267878 100.110914,25.3274866 100.110914,24.534873 L100.110914,20.4734411 L101.372241,20.4734411 L101.372241,24.3852194 C101.372241,24.8203255 101.494576,25.1667424 101.739249,25.4244804 C101.983922,25.6822184 102.301712,25.8110855 102.692627,25.8110855 C102.928863,25.8110855 103.164393,25.7528874 103.399223,25.6364896 C103.634053,25.5200918 103.829507,25.3434192 103.985592,25.1064665 C104.141677,24.8695138 104.218312,24.5709025 104.2155,24.2106236 Z M108.433984,23.0674365 L108.433984,26.8586605 L107.172657,26.8586605 L107.172657,20.4734411 L108.383362,20.4734411 L108.383362,21.5127021 L108.463514,21.5127021 C108.612568,21.1745942 108.846691,20.9030033 109.165891,20.6979215 C109.485092,20.4928396 109.887953,20.3903002 110.374487,20.3903002 C111.038199,20.3903002 111.571832,20.5939933 111.975402,21.0013857 C112.378972,21.408778 112.580755,22.0073864 112.580755,22.7972286 L112.580755,26.8586605 L111.319428,26.8586605 L111.319428,22.9468822 C111.319428,22.4840624 111.197093,22.1217103 110.95242,21.8598152 C110.707746,21.5979202 110.371677,21.4669746 109.944202,21.4669746 C109.505477,21.4669746 109.144097,21.6062342 108.860051,21.8847575 C108.576005,22.1632808 108.433984,22.5575032 108.433984,23.0674365 Z M117.292802,20.4734411 L117.292802,21.4711316 L115.963979,21.4711316 L115.963979,24.9796767 C115.963979,25.3399556 116.04202,25.5720549 116.198105,25.6759815 C116.35419,25.7799081 116.53488,25.8318707 116.74018,25.8318707 C116.841425,25.8318707 116.930012,25.8249423 117.005945,25.8110855 C117.081878,25.7972286 117.140936,25.7861432 117.183121,25.7778291 L117.41092,26.8046189 C117.337799,26.8323327 117.233041,26.8607389 117.096642,26.8898383 C116.960244,26.9189378 116.792209,26.934873 116.592534,26.9376443 C116.260678,26.9431871 115.950622,26.8842962 115.662358,26.76097 C115.374093,26.6376437 115.142079,26.449193 114.966308,26.195612 C114.790537,25.9420311 114.702652,25.6226347 114.702652,25.2374134 L114.702652,21.4711316 L113.753493,21.4711316 L113.753493,20.4734411 L114.702652,20.4734411 L114.702652,18.943649 L115.963979,18.943649 L115.963979,20.4734411 L117.292802,20.4734411 Z" id="Main-Account" fill="#BD2A67"></path>
                        <path d="M11.4109195,66.4140625 L19.7898258,66.4140625 L19.7898258,72 L11.4109195,72 L11.4109195,66.4140625 Z M19.2759195,66.4140625 L27.6548258,66.4140625 L27.6548258,72 L19.2759195,72 L19.2759195,66.4140625 Z M27.1409195,66.4140625 L35.5198258,66.4140625 L35.5198258,72 L27.1409195,72 L27.1409195,66.4140625 Z M35.0059195,66.4140625 L43.3848258,66.4140625 L43.3848258,72 L35.0059195,72 L35.0059195,66.4140625 Z M58.9117008,66.4140625 L67.290607,66.4140625 L67.290607,72 L58.9117008,72 L58.9117008,66.4140625 Z M66.7767008,66.4140625 L75.155607,66.4140625 L75.155607,72 L66.7767008,72 L66.7767008,66.4140625 Z M74.6417008,66.4140625 L83.020607,66.4140625 L83.020607,72 L74.6417008,72 L74.6417008,66.4140625 Z M82.5067008,66.4140625 L90.885607,66.4140625 L90.885607,72 L82.5067008,72 L82.5067008,66.4140625 Z M90.3717008,66.4140625 L98.750607,66.4140625 L98.750607,72 L90.3717008,72 L90.3717008,66.4140625 Z M98.2367008,66.4140625 L106.615607,66.4140625 L106.615607,72 L98.2367008,72 L98.2367008,66.4140625 Z M106.101701,66.4140625 L114.480607,66.4140625 L114.480607,72 L106.101701,72 L106.101701,66.4140625 Z M113.966701,66.4140625 L122.345607,66.4140625 L122.345607,72 L113.966701,72 L113.966701,66.4140625 Z M121.831701,66.4140625 L130.210607,66.4140625 L130.210607,72 L121.831701,72 L121.831701,66.4140625 Z M11.4109195,76.4140625 L19.7898258,76.4140625 L19.7898258,82 L11.4109195,82 L11.4109195,76.4140625 Z M19.2759195,76.4140625 L27.6548258,76.4140625 L27.6548258,82 L19.2759195,82 L19.2759195,76.4140625 Z M27.1409195,76.4140625 L35.5198258,76.4140625 L35.5198258,82 L27.1409195,82 L27.1409195,76.4140625 Z M35.0059195,76.4140625 L43.3848258,76.4140625 L43.3848258,82 L35.0059195,82 L35.0059195,76.4140625 Z M42.8709195,76.4140625 L51.2498258,76.4140625 L51.2498258,82 L42.8709195,82 L42.8709195,76.4140625 Z M50.7359195,76.4140625 L59.1148258,76.4140625 L59.1148258,82 L50.7359195,82 L50.7359195,76.4140625 Z M74.6417008,76.4140625 L83.020607,76.4140625 L83.020607,82 L74.6417008,82 L74.6417008,76.4140625 Z M82.5067008,76.4140625 L90.885607,76.4140625 L90.885607,82 L82.5067008,82 L82.5067008,76.4140625 Z M106.412482,76.4140625 L114.791388,76.4140625 L114.791388,82 L106.412482,82 L106.412482,76.4140625 Z M114.277482,76.4140625 L122.656388,76.4140625 L122.656388,82 L114.277482,82 L114.277482,76.4140625 Z M122.142482,76.4140625 L130.521388,76.4140625 L130.521388,82 L122.142482,82 L122.142482,76.4140625 Z M11.4109195,86.4140625 L19.7898258,86.4140625 L19.7898258,92 L11.4109195,92 L11.4109195,86.4140625 Z M19.2759195,86.4140625 L27.6548258,86.4140625 L27.6548258,92 L19.2759195,92 L19.2759195,86.4140625 Z M43.1817008,86.4140625 L51.560607,86.4140625 L51.560607,92 L43.1817008,92 L43.1817008,86.4140625 Z M51.0467008,86.4140625 L59.425607,86.4140625 L59.425607,92 L51.0467008,92 L51.0467008,86.4140625 Z M58.9117008,86.4140625 L67.290607,86.4140625 L67.290607,92 L58.9117008,92 L58.9117008,86.4140625 Z M66.7767008,86.4140625 L75.155607,86.4140625 L75.155607,92 L66.7767008,92 L66.7767008,86.4140625 Z M74.6417008,86.4140625 L83.020607,86.4140625 L83.020607,92 L74.6417008,92 L74.6417008,86.4140625 Z M98.547482,86.4140625 L106.926388,86.4140625 L106.926388,92 L98.547482,92 L98.547482,86.4140625 Z M106.412482,86.4140625 L114.791388,86.4140625 L114.791388,92 L106.412482,92 L106.412482,86.4140625 Z M114.277482,86.4140625 L122.656388,86.4140625 L122.656388,92 L114.277482,92 L114.277482,86.4140625 Z" id="Typesomethingething33333et2rewf33f" fill="#D12869" fill-rule="nonzero"></path>
                    </g>
                    <g id="Group-3" transform="translate(201.500000, 17.218667)">
                        <circle id="Oval-9" fill="#14CCB7" cx="19.5" cy="19.5" r="19.5"></circle>
                        <g id="atoms/icons/ui/check" transform="translate(7.500000, 7.500000)">
                            <mask id="mask-4" fill="white">
                                <use xlink:href="#path-3"></use>
                            </mask>
                            <use id="Combined-Shape" fill="#000000" fill-rule="evenodd" xlink:href="#path-3"></use>
                            <g id="fill/neutral/Max" mask="url(#mask-4)" fill="#FFFFFF" fill-rule="evenodd">
                                <rect id="Rectangle-Copy-20" x="0" y="0" width="24" height="24"></rect>
                            </g>
                        </g>
                    </g>
                </g>
            </g>
        </g>
    </g>
</svg>
