<?xml version="1.0" encoding="UTF-8"?>
<svg viewBox="0 0 248 295" version="1.1" xmlns="http://www.w3.org/2000/svg" xmlns:xlink="http://www.w3.org/1999/xlink">
    <!-- Generator: Sketch 54.1 (76490) - https://sketchapp.com -->
    <title>Group 6</title>
    <desc>Created with Sketch.</desc>
    <defs>
        <rect id="path-1" x="0.412420382" y="0" width="129" height="263" rx="16"></rect>
        <filter x="-18.6%" y="-9.1%" width="137.2%" height="118.3%" filterUnits="objectBoundingBox" id="filter-2">
            <feOffset dx="0" dy="0" in="SourceAlpha" result="shadowOffsetOuter1"></feOffset>
            <feGaussianBlur stdDeviation="8" in="shadowOffsetOuter1" result="shadowBlurOuter1"></feGaussianBlur>
            <feColorMatrix values="0 0 0 0 0.105882353   0 0 0 0 0.266666667   0 0 0 0 0.474509804  0 0 0 0.15 0" type="matrix" in="shadowBlurOuter1"></feColorMatrix>
        </filter>
    </defs>
    <g id="BaseApp-Desktop-0.6.x" stroke="none" stroke-width="1" fill="none" fill-rule="evenodd">
        <g id="v0.6.x-04.05-Send-Base-aepp-Desktop" transform="translate(-603.000000, -366.000000)">
            <g id="Group-5" transform="translate(376.000000, 190.000000)">
                <g id="Group-6" transform="translate(226.388781, 192.000000)">
                    <polygon id="Rectangle-Copy" fill="#EDF3F7" transform="translate(28.171679, 37.559532) rotate(22.000000) translate(-28.171679, -37.559532) " points="7.00162272 16.3911556 49.3433584 16.3895329 49.3417357 58.7279078 7 58.7295306"></polygon>
                    <polygon id="Rectangle" fill="#EDF3F7" transform="translate(197.715883, 123.104664) rotate(45.000000) translate(-197.715883, -123.104664) " points="162.290445 87.6792256 233.145231 87.6753164 233.141322 158.530103 162.286535 158.534012"></polygon>
                    <circle id="Oval" fill="#EDF3F7" cx="44.1112189" cy="198.5" r="16.5"></circle>
                    <g id="Group-3" transform="translate(50.611219, 0.000000)">
                        <g id="Rectangle-10">
                            <use fill="black" fill-opacity="1" filter="url(#filter-2)" xlink:href="#path-1"></use>
                            <use fill="#FFFFFF" fill-rule="evenodd" xlink:href="#path-1"></use>
                        </g>
                        <path d="M9.98733327,32 L119.837507,32 C120.707308,32 121.41242,32.702785 121.41242,33.5697143 L121.41242,231.430286 C121.41242,232.297215 120.707308,233 119.837507,233 L9.98733327,233 C9.1175329,233 8.41242038,232.297215 8.41242038,231.430286 L8.41242038,33.5697143 C8.41242038,32.702785 9.1175329,32 9.98733327,32 Z" id="Rectangle-12" fill="#FF0D6A" fill-rule="nonzero"></path>
                        <polygon id="Line" fill="#D12869" fill-rule="nonzero" points="19.4124204 119 19.4124204 118 112.41242 118 112.41242 119"></polygon>
                        <circle id="Oval" fill="#BD2A67" cx="27.4124204" cy="119" r="4"></circle>
                        <path d="M25.9124204,197 L65.4124204,197 L65.4124204,216 L25.9124204,216 C20.6657153,216 16.4124204,211.746705 16.4124204,206.5 L16.4124204,206.5 C16.4124204,201.253295 20.6657153,197 25.9124204,197 Z" id="Rectangle" fill="#D12869"></path>
                        <path d="M73.9124204,197 L113.41242,197 L113.41242,216 L73.9124204,216 C68.6657153,216 64.4124204,211.746705 64.4124204,206.5 L64.4124204,206.5 C64.4124204,201.253295 68.6657153,197 73.9124204,197 Z" id="Rectangle" fill="#BD2A67" transform="translate(88.912420, 206.500000) scale(-1, 1) translate(-88.912420, -206.500000) "></path>
                        <path d="M24.4124204,52.4548253 L24.4124204,48 L30.9526186,48 L30.9526186,52.4548253 L24.4124204,52.4548253 Z M30.7544368,52.4548253 L30.7544368,48 L37.294635,48 L37.294635,52.4548253 L30.7544368,52.4548253 Z M49.8201237,52.4548253 L49.8201237,48 L56.3603219,48 L56.3603219,52.4548253 L49.8201237,52.4548253 Z M56.1621401,52.4548253 L56.1621401,48 L62.7023383,48 L62.7023383,52.4548253 L56.1621401,52.4548253 Z M62.5041565,52.4548253 L62.5041565,48 L69.0443547,48 L69.0443547,52.4548253 L62.5041565,52.4548253 Z M68.8461729,52.4548253 L68.8461729,48 L75.3863711,48 L75.3863711,52.4548253 L68.8461729,52.4548253 Z M75.1881893,52.4548253 L75.1881893,48 L81.7283875,48 L81.7283875,52.4548253 L75.1881893,52.4548253 Z M81.5302058,52.4548253 L81.5302058,48 L88.070404,48 L88.070404,52.4548253 L81.5302058,52.4548253 Z M87.8722222,52.4548253 L87.8722222,48 L94.4124204,48 L94.4124204,52.4548253 L87.8722222,52.4548253 Z M24.4124204,61.2274126 L24.4124204,56.7725874 L30.9526186,56.7725874 L30.9526186,61.2274126 L24.4124204,61.2274126 Z M30.7544368,61.2274126 L30.7544368,56.7725874 L37.294635,56.7725874 L37.294635,61.2274126 L30.7544368,61.2274126 Z M37.0964532,61.2274126 L37.0964532,56.7725874 L43.6366514,56.7725874 L43.6366514,61.2274126 L37.0964532,61.2274126 Z M43.4384696,61.2274126 L43.4384696,56.7725874 L49.9786678,56.7725874 L49.9786678,61.2274126 L43.4384696,61.2274126 Z M62.5041565,61.2274126 L62.5041565,56.7725874 L69.0443547,56.7725874 L69.0443547,61.2274126 L62.5041565,61.2274126 Z M68.8461729,61.2274126 L68.8461729,56.7725874 L75.3863711,56.7725874 L75.3863711,61.2274126 L68.8461729,61.2274126 Z M75.1881893,61.2274126 L75.1881893,56.7725874 L81.7283875,56.7725874 L81.7283875,61.2274126 L75.1881893,61.2274126 Z M24.4124204,70 L24.4124204,65.5451747 L30.9526186,65.5451747 L30.9526186,70 L24.4124204,70 Z M43.4781072,70 L43.4781072,65.5451747 L50.0183054,65.5451747 L50.0183054,70 L43.4781072,70 Z M49.8201237,70 L49.8201237,65.5451747 L56.3603219,65.5451747 L56.3603219,70 L49.8201237,70 Z M56.1621401,70 L56.1621401,65.5451747 L62.7023383,65.5451747 L62.7023383,70 L56.1621401,70 Z" id="assdffdsfsfsdsdfsdsf" fill="#D12869" fill-rule="nonzero"></path>
                        <path d="M24.4124204,146.342981 L24.4124204,142 L30.9526186,142 L30.9526186,146.342981 L24.4124204,146.342981 Z M30.7544368,146.342981 L30.7544368,142 L37.294635,142 L37.294635,146.342981 L30.7544368,146.342981 Z M49.8201237,146.342981 L49.8201237,142 L56.3603219,142 L56.3603219,146.342981 L49.8201237,146.342981 Z M56.1621401,146.342981 L56.1621401,142 L62.7023383,142 L62.7023383,146.342981 L56.1621401,146.342981 Z M62.5041565,146.342981 L62.5041565,142 L69.0443547,142 L69.0443547,146.342981 L62.5041565,146.342981 Z M68.8461729,146.342981 L68.8461729,142 L75.3863711,142 L75.3863711,146.342981 L68.8461729,146.342981 Z M75.1881893,146.342981 L75.1881893,142 L81.7283875,142 L81.7283875,146.342981 L75.1881893,146.342981 Z M81.5302058,146.342981 L81.5302058,142 L88.070404,142 L88.070404,146.342981 L81.5302058,146.342981 Z M87.8722222,146.342981 L87.8722222,142 L94.4124204,142 L94.4124204,146.342981 L87.8722222,146.342981 Z M24.4124204,154.895321 L24.4124204,150.55234 L30.9526186,150.55234 L30.9526186,154.895321 L24.4124204,154.895321 Z M30.7544368,154.895321 L30.7544368,150.55234 L37.294635,150.55234 L37.294635,154.895321 L30.7544368,154.895321 Z M37.0964532,154.895321 L37.0964532,150.55234 L43.6366514,150.55234 L43.6366514,154.895321 L37.0964532,154.895321 Z M43.4384696,154.895321 L43.4384696,150.55234 L49.9786678,150.55234 L49.9786678,154.895321 L43.4384696,154.895321 Z M62.5041565,154.895321 L62.5041565,150.55234 L69.0443547,150.55234 L69.0443547,154.895321 L62.5041565,154.895321 Z M68.8461729,154.895321 L68.8461729,150.55234 L75.3863711,150.55234 L75.3863711,154.895321 L68.8461729,154.895321 Z M75.1881893,154.895321 L75.1881893,150.55234 L81.7283875,150.55234 L81.7283875,154.895321 L75.1881893,154.895321 Z M24.4124204,163.44766 L24.4124204,159.104679 L30.9526186,159.104679 L30.9526186,163.44766 L24.4124204,163.44766 Z M43.4781072,163.44766 L43.4781072,159.104679 L50.0183054,159.104679 L50.0183054,163.44766 L43.4781072,163.44766 Z M49.8201237,163.44766 L49.8201237,159.104679 L56.3603219,159.104679 L56.3603219,163.44766 L49.8201237,163.44766 Z M68.8858105,163.44766 L68.8858105,159.104679 L75.4260087,159.104679 L75.4260087,163.44766 L68.8858105,163.44766 Z M24.4124204,172 L24.4124204,167.657019 L30.9526186,167.657019 L30.9526186,172 L24.4124204,172 Z M30.7544368,172 L30.7544368,167.657019 L37.294635,167.657019 L37.294635,172 L30.7544368,172 Z M37.0964532,172 L37.0964532,167.657019 L43.6366514,167.657019 L43.6366514,172 L37.0964532,172 Z M43.4384696,172 L43.4384696,167.657019 L49.9786678,167.657019 L49.9786678,172 L43.4384696,172 Z M62.5041565,172 L62.5041565,167.657019 L69.0443547,167.657019 L69.0443547,172 L62.5041565,172 Z M68.8461729,172 L68.8461729,167.657019 L75.3863711,167.657019 L75.3863711,172 L68.8461729,172 Z M75.1881893,172 L75.1881893,167.657019 L81.7283875,167.657019 L81.7283875,172 L75.1881893,172 Z M81.5302058,172 L81.5302058,167.657019 L88.070404,167.657019 L88.070404,172 L81.5302058,172 Z" id="assdffdsfsfsdsdfsdssdsfsdsfs" fill="#D12869" fill-rule="nonzero"></path>
                        <path d="M20.4124204,105 L20.4124204,101 L27.0212263,101 L27.0212263,105 L20.4124204,105 Z M26.8209656,105 L26.8209656,101 L33.4297715,101 L33.4297715,105 L26.8209656,105 Z M33.2295107,105 L33.2295107,101 L39.8383166,101 L39.8383166,105 L33.2295107,105 Z M39.6380559,105 L39.6380559,101 L46.2468618,101 L46.2468618,105 L39.6380559,105 Z M46.0466011,105 L46.0466011,101 L52.655407,101 L52.655407,105 L46.0466011,105 Z M52.4551463,105 L52.4551463,101 L59.0639522,101 L59.0639522,105 L52.4551463,105 Z M58.8636914,105 L58.8636914,101 L65.4724973,101 L65.4724973,105 L58.8636914,105 Z M90.9865241,105 L90.9865241,101 L97.59533,101 L97.59533,105 L90.9865241,105 Z M97.3950693,105 L97.3950693,101 L104.003875,101 L104.003875,105 L97.3950693,105 Z M103.803614,105 L103.803614,101 L110.41242,101 L110.41242,105 L103.803614,105 Z" id="sdffdsfweq" fill="#D12869" fill-rule="nonzero"></path>
                        <path d="M20.4124204,93 L20.4124204,89 L27.0153492,89 L27.0153492,93 L20.4124204,93 Z M26.8152665,93 L26.8152665,89 L33.4181953,89 L33.4181953,93 L26.8152665,93 Z M33.2181127,93 L33.2181127,89 L39.8210415,89 L39.8210415,93 L33.2181127,93 Z M39.6209589,93 L39.6209589,89 L46.2238877,89 L46.2238877,93 L39.6209589,93 Z M46.023805,93 L46.023805,89 L52.6267338,89 L52.6267338,93 L46.023805,93 Z M103.809492,93 L103.809492,89 L110.41242,89 L110.41242,93 L103.809492,93 Z" id="sdffdq" fill="#D12869" fill-rule="nonzero"></path>
                        <path d="M64.9124204,258 C59.113483,258 54.4124204,253.299042 54.4124204,247.5 C54.4124204,241.700958 59.113483,237 64.9124204,237 C70.7113578,237 75.4124204,241.700958 75.4124204,247.5 C75.4124204,253.299042 70.7113578,258 64.9124204,258 Z M64.9124204,257.211942 C70.2764795,257.211942 74.6248136,252.863705 74.6248136,247.5 C74.6248136,242.136295 70.2764795,237.788058 64.9124204,237.788058 C59.5483613,237.788058 55.2000272,242.136295 55.2000272,247.5 C55.2000272,252.863705 59.5483613,257.211942 64.9124204,257.211942 Z" id="Oval-4" fill="#EDF3F7" fill-rule="nonzero"></path>
                    </g>
                </g>
            </g>
        </g>
    </g>
</svg>
