<?xml version="1.0" encoding="UTF-8"?>
<svg width="44px" height="21px" viewBox="0 0 44 21" version="1.1" xmlns="http://www.w3.org/2000/svg" xmlns:xlink="http://www.w3.org/1999/xlink">
    <!-- Generator: sketchtool 48.2 (47327) - http://www.bohemiancoding.com/sketch -->
    <title>3A13E6D1-28B7-4959-A21A-13AC41072ED5</title>
    <desc>Created with sketchtool.</desc>
    <defs></defs>
    <g id="01.00-base-intro-welcome" stroke="none" stroke-width="1" fill="none" fill-rule="evenodd" transform="translate(-30.000000, -30.000000)">
        <path d="M63.4020042,30.0000628 C69.2432587,30.0000628 73.9954745,34.6987313 73.9954745,40.4742021 C73.9954745,40.901639 73.9688055,41.32301 73.9182911,41.7371647 L61.4116563,41.7371647 L61.4116563,39.2112395 L71.3464533,39.2112395 C70.7319147,35.4268487 67.4040354,32.5258834 63.4020042,32.5258834 C59.9178756,32.5258834 57.4289733,35.0464749 55.0870122,38.2501078 L53.5721055,36.037204 C56.1285694,32.6964608 59.0865333,30.0000628 63.4020042,30.0000628 Z M63.4020042,48.4223116 C66.4511658,48.4223116 69.1095997,46.7385009 70.4745322,44.2629854 L73.2779201,44.2629854 C71.738959,48.1710996 67.8925496,50.9482369 63.4020042,50.9482369 C58.1767526,50.9482369 54.9439406,47.1739908 51.2311903,41.5961848 C47.5184399,36.0183788 44.8586465,32.5258834 40.5978733,32.5258834 C36.1605614,32.5258834 32.5506177,36.0915879 32.5506177,40.4742021 C32.5506177,44.8568163 36.1605614,48.4223116 40.5978733,48.4223116 C44.0807469,48.4223116 46.5691263,45.9036027 48.9104598,42.701434 L50.4142806,44.9285613 C47.8609542,48.2611469 44.9057095,50.9482369 40.5978733,50.9482369 C34.7565143,50.9482369 30.0042984,46.2495683 30.0042984,40.4742021 C30.0042984,34.6987313 34.7565143,30.0000628 40.5978733,30.0000628 C45.8230203,30.0000628 49.1917922,33.9440495 52.7607388,39.3432251 C56.3296855,44.7424008 59.1411264,48.4223116 63.4020042,48.4223116 Z" id="Combined-Shape" fill="#F7296E"></path>
    </g>
</svg>