<svg xmlns="http://www.w3.org/2000/svg" width="171" height="117" viewBox="0 0 171 117">
    <g fill="none" fill-rule="evenodd">
        <g fill="#000">
            <path d="M26.666 75.726c-1.536 0-2.796.535-3.78 1.606-.986 1.07-1.603 2.59-1.85 4.561h10.517v-.699c0-1.752-.423-3.102-1.268-4.048-.846-.947-2.052-1.42-3.619-1.42zM9.843 93.016c.9 0 1.876-.23 2.932-.687 1.054-.458 1.93-1.02 2.63-1.687v-4.864h-4.562c-1.613.032-2.885.416-3.816 1.153-.931.736-1.396 1.648-1.396 2.734 0 1.008.36 1.819 1.082 2.43.722.614 1.765.92 3.13.92zm17.66 4.281c-3.924 0-6.972-1.249-9.144-3.746-1.009 1.194-2.343 2.117-4.003 2.768-1.66.652-3.528.978-5.607.978-2.73 0-4.871-.682-6.422-2.048C.775 93.884 0 91.992 0 89.57c0-2.45.923-4.343 2.769-5.677 1.846-1.334 4.576-2 8.19-2h4.445V80.24c0-1.412-.369-2.517-1.105-3.316-.737-.799-1.789-1.199-3.154-1.199-1.41 0-2.563.346-3.455 1.036-.892.69-1.338 1.547-1.338 2.571l-5.63-.442c0-2.265.98-4.115 2.943-5.55 1.962-1.435 4.471-2.152 7.527-2.152 3.46 0 6.05 1.032 7.773 3.094 2.031-2.094 4.598-3.125 7.701-3.094 3.289 0 5.856 1.004 7.703 3.013 1.845 2.01 2.768 4.837 2.768 8.482v3.188H20.965c.14 2.156.799 3.847 1.978 5.072 1.179 1.226 2.808 1.838 4.887 1.838 2.125 0 4.017-.449 5.677-1.349l1.42-.791 1.699 3.863c-1.086.869-2.44 1.551-4.06 2.047a17.187 17.187 0 0 1-5.062.745zM48.235 65.534v6.12h4.444v4.189h-4.444v14.054c0 .963.19 1.656.57 2.083.38.427 1.058.64 2.035.64.652 0 1.311-.078 1.979-.233v4.375c-1.288.356-2.53.535-3.724.535-4.343 0-6.515-2.396-6.515-7.19V75.843h-4.142v-4.189h4.142v-6.12h5.655zM65.841 75.726c-1.552 0-2.804.543-3.758 1.629-.954 1.086-1.563 2.599-1.827 4.538H71.03v-.42c-.124-1.892-.628-3.323-1.512-4.292-.885-.97-2.11-1.455-3.677-1.455m.675 21.571c-3.584 0-6.49-1.129-8.715-3.386-2.226-2.257-3.339-5.262-3.339-9.017v-.697c0-2.514.485-4.76 1.455-6.737.97-1.978 2.33-3.517 4.084-4.62 1.752-1.1 3.707-1.651 5.864-1.651 3.428 0 6.076 1.094 7.946 3.28 1.87 2.188 2.804 5.282 2.804 9.285v2.28H60.164c.17 2.08.864 3.724 2.082 4.934 1.217 1.21 2.75 1.814 4.596 1.814 2.59 0 4.7-1.047 6.329-3.14l3.048 2.908c-1.009 1.505-2.354 2.673-4.037 3.502-1.683.83-3.572 1.245-5.666 1.245M93.626 76.82a13.991 13.991 0 0 0-2.304-.186c-2.59 0-4.336.993-5.235 2.979v17.219h-5.655V71.654h5.399l.14 2.816c1.364-2.187 3.257-3.281 5.677-3.281.807 0 1.474.108 2 .325l-.022 5.306zM101.897 71.654l.163 2.91c1.861-2.25 4.304-3.375 7.33-3.375 5.243 0 7.911 3.002 8.004 9.005v16.638h-5.654V80.52c0-1.598-.345-2.78-1.036-3.549-.69-.768-1.819-1.152-3.385-1.152-2.28 0-3.98 1.033-5.096 3.095v17.918h-5.654V71.654h5.328zM121.674 96.831h5.654V71.654h-5.654v25.177zm-.348-31.715c0-.87.275-1.59.825-2.164.55-.574 1.339-.862 2.362-.862 1.024 0 1.815.288 2.374.862.558.573.837 1.295.837 2.164 0 .853-.28 1.563-.837 2.128-.559.567-1.35.85-2.374.85-1.023 0-1.811-.283-2.362-.85-.55-.565-.825-1.275-.825-2.128zM140.919 65.534v6.12h4.444v4.189h-4.444v14.054c0 .963.19 1.656.57 2.083.38.427 1.058.64 2.036.64.652 0 1.31-.078 1.978-.233v4.375c-1.288.356-2.529.535-3.723.535-4.344 0-6.516-2.396-6.516-7.19V75.843h-4.142v-4.189h4.142v-6.12h5.655zM158.936 88.734l5.12-17.08h6.026l-10.006 28.994c-1.536 4.234-4.142 6.352-7.818 6.352-.823 0-1.73-.14-2.723-.421v-4.396l1.07.07c1.428 0 2.502-.26 3.223-.778.722-.52 1.291-1.392 1.71-2.617l.815-2.162-8.842-25.042h6.097l5.328 17.08z"/>
        </g>
        <g fill="#000">
            <path d="M29.586 112.86v2.343h1.447c.408 0 .727-.102.958-.304.23-.202.345-.484.345-.844 0-.78-.398-1.178-1.195-1.195h-1.555zm0-.958h1.277c.405 0 .722-.092.95-.276.229-.183.342-.443.342-.78 0-.37-.105-.638-.316-.802-.212-.165-.54-.248-.986-.248h-1.267v2.106zm-1.302 4.34v-7.496h2.569c.848 0 1.493.17 1.936.51.442.34.664.845.664 1.519 0 .343-.093.652-.278.926-.186.275-.457.488-.814.639.405.11.718.316.94.62.221.304.332.668.332 1.095 0 .703-.226 1.244-.677 1.621-.451.378-1.098.567-1.938.567h-2.734zM41.382 115.203h3.403v1.04H40.08v-7.497h1.303zM56.149 112.299c0-.831-.157-1.468-.472-1.91-.313-.443-.759-.665-1.336-.665-.562 0-1.003.22-1.32.662-.318.44-.48 1.064-.487 1.872v.432c0 .824.16 1.46.482 1.91.32.45.766.675 1.336.675.576 0 1.02-.22 1.331-.66.31-.438.466-1.08.466-1.925v-.391zm1.303.39c0 .736-.128 1.38-.382 1.934-.253.555-.617.98-1.088 1.277-.473.297-1.016.446-1.63.446-.608 0-1.15-.149-1.624-.446a2.912 2.912 0 0 1-1.102-1.27c-.26-.548-.39-1.182-.394-1.899v-.422c0-.731.129-1.376.388-1.936.26-.56.625-.988 1.097-1.284.472-.298 1.014-.446 1.624-.446.612 0 1.153.147 1.625.44.472.294.837.716 1.094 1.266.258.552.388 1.193.392 1.924v.417zM69.855 113.802c-.076.8-.37 1.424-.886 1.871-.515.45-1.2.673-2.054.673-.597 0-1.123-.142-1.579-.425a2.784 2.784 0 0 1-1.052-1.207c-.248-.522-.376-1.128-.386-1.818v-.7c0-.707.125-1.33.376-1.87.25-.539.61-.953 1.078-1.246.468-.292 1.01-.437 1.625-.437.827 0 1.493.223 1.998.672.504.447.797 1.082.88 1.902h-1.298c-.061-.539-.218-.927-.471-1.166-.252-.239-.622-.358-1.11-.358-.566 0-1.001.207-1.304.62-.304.415-.46 1.023-.467 1.823v.665c0 .81.145 1.43.436 1.855.29.426.714.64 1.274.64.511 0 .896-.115 1.154-.346.257-.23.42-.612.488-1.148h1.298zM78.453 113.004l-.85.901v2.338h-1.302v-7.497h1.303v3.517l.72-.891 2.194-2.626h1.576l-2.786 3.321 2.945 4.176H80.71zM94.657 113.802c-.076.8-.371 1.424-.886 1.871-.515.45-1.2.673-2.054.673-.597 0-1.123-.142-1.579-.425a2.781 2.781 0 0 1-1.052-1.207c-.248-.522-.376-1.128-.387-1.818v-.7c0-.707.125-1.33.376-1.87.251-.539.61-.953 1.08-1.246.467-.292 1.01-.437 1.624-.437.827 0 1.493.223 1.997.672.505.447.798 1.082.88 1.902H93.36c-.061-.539-.218-.927-.471-1.166-.252-.239-.622-.358-1.11-.358-.566 0-1.001.207-1.305.62-.304.415-.46 1.023-.466 1.823v.665c0 .81.145 1.43.436 1.855.29.426.714.64 1.274.64.511 0 .896-.115 1.153-.346.258-.23.42-.612.49-1.148h1.297zM107.055 116.243h-1.297v-3.326h-3.352v3.326h-1.303v-7.497h1.303v3.12h3.352v-3.12h1.297zM115.829 113.447H118l-1.086-3.11-1.086 3.11zm2.538 1.05h-2.904l-.607 1.746H113.5l2.832-7.497h1.17l2.836 7.497h-1.36l-.612-1.746zM126.785 116.243h1.298v-7.497h-1.298zM140.476 116.243h-1.303l-3.342-5.32v5.32h-1.302v-7.497h1.302l3.353 5.34v-5.34h1.292z"/>
        </g>
        <g fill="#F7296E">
            <path d="M114.09 0C103.003 0 95.403 6.93 88.834 15.513l3.892 5.686c6.018-8.232 12.413-14.709 21.366-14.709 10.283 0 18.834 7.454 20.413 17.178h-25.527v6.49h32.135a26.79 26.79 0 0 0 .199-3.245C141.31 12.073 129.1 0 114.09 0"/>
            <path d="M114.09 47.336c-10.948 0-18.171-9.455-27.342-23.329C77.578 10.134 68.922 0 55.496 0c-15.01 0-27.22 12.073-27.22 26.913s12.21 26.913 27.22 26.913c11.069 0 18.662-6.904 25.223-15.467l-3.864-5.723c-6.016 8.228-12.41 14.7-21.36 14.7-11.401 0-20.677-9.161-20.677-20.423 0-11.26 9.276-20.423 20.678-20.423 10.948 0 17.782 8.974 27.322 23.306 9.54 14.333 17.847 24.03 31.273 24.03 11.538 0 21.422-7.135 25.376-17.177h-7.203a20.733 20.733 0 0 1-18.173 10.687"/>
        </g>
    </g>
</svg>
