<?xml version="1.0" standalone="no"?>
<!DOCTYPE svg PUBLIC "-//W3C//DTD SVG 20010904//EN"
 "http://www.w3.org/TR/2001/REC-SVG-20010904/DTD/svg10.dtd">
<svg version="1.0" xmlns="http://www.w3.org/2000/svg"
 width="630.000000pt" height="630.000000pt" viewBox="0 0 630.000000 630.000000"
 preserveAspectRatio="xMidYMid meet">
<metadata>
Created by potrace 1.15, written by Peter Selinger 2001-2017
</metadata>
<g transform="translate(0.000000,630.000000) scale(0.100000,-0.100000)"
fill="#000000" stroke="none">
<path d="M1501 5369 c-150 -29 -262 -90 -372 -199 -70 -71 -93 -102 -132 -180
-65 -134 -77 -204 -77 -455 l0 -205 525 0 525 0 0 525 0 525 -212 -1 c-117 -1
-233 -5 -257 -10z"/>
<path d="M2610 4010 l0 -1370 1370 0 1371 0 -3 1078 c-3 838 -6 1086 -16 1117
-50 155 -104 249 -197 340 -86 84 -155 127 -272 169 l-88 31 -1082 3 -1083 3
0 -1371z"/>
<path d="M920 3165 l0 -525 525 0 525 0 0 525 0 525 -525 0 -525 0 0 -525z"/>
<path d="M920 1801 c0 -212 9 -289 45 -391 45 -127 174 -284 291 -351 149 -88
251 -109 520 -109 l194 0 0 530 0 530 -525 0 -525 0 0 -209z"/>
<path d="M2610 1480 l0 -530 525 0 525 0 0 530 0 530 -525 0 -525 0 0 -530z"/>
<path d="M4295 1998 c-3 -7 -4 -245 -3 -528 l3 -515 225 0 c256 1 301 8 435
75 180 88 303 237 367 440 21 69 23 92 23 305 l0 230 -523 3 c-413 2 -524 0
-527 -10z"/>
</g>
</svg>
