<?xml version="1.0" encoding="UTF-8"?>
<svg width="630pt" height="630pt" version="1.0" viewBox="0 0 630 630" xmlns="http://www.w3.org/2000/svg" xmlns:cc="http://creativecommons.org/ns#" xmlns:dc="http://purl.org/dc/elements/1.1/" xmlns:rdf="http://www.w3.org/1999/02/22-rdf-syntax-ns#">
 <metadata>Created by potrace 1.15, written by Peter Selinger 2001-2017
  <rdf:RDF>
   <cc:Work rdf:about="">
    <dc:format>image/svg+xml</dc:format>
    <dc:type rdf:resource="http://purl.org/dc/dcmitype/StillImage"/>
    <dc:title/>
   </cc:Work>
  </rdf:RDF>
 </metadata>
 <g transform="matrix(.14218 0 0 -.14218 -130.81 765.07)" fill="#333745">
  <path d="m1501 5369c-150-29-262-90-372-199-70-71-93-102-132-180-65-134-77-204-77-455v-205h1050v1050l-212-1c-117-1-233-5-257-10z"/>
  <path d="m2610 4010v-1370h2741l-3 1078c-3 838-6 1086-16 1117-50 155-104 249-197 340-86 84-155 127-272 169l-88 31-2165 6z"/>
  <path d="m920 3165v-525h1050v1050h-1050z"/>
  <path d="m920 1801c0-212 9-289 45-391 45-127 174-284 291-351 149-88 251-109 520-109h194v1060h-1050z"/>
  <path d="m2610 1480v-530h1050v1060h-1050z"/>
  <path d="m4295 1998c-3-7-4-245-3-528l3-515h225c256 1 301 8 435 75 180 88 303 237 367 440 21 69 23 92 23 305v230l-523 3c-413 2-524 0-527-10z"/>
 </g>
</svg>
