<?xml version="1.0" encoding="UTF-8"?>
<svg width="310px" height="199px" viewBox="0 0 310 199" version="1.1" xmlns="http://www.w3.org/2000/svg" xmlns:xlink="http://www.w3.org/1999/xlink">
    <!-- Generator: sketchtool 53 (72520) - https://sketchapp.com -->
    <title>9A7859BB-A06A-4839-A4F3-5357624A7A74</title>
    <desc>Created with sketchtool.</desc>
    <defs>
        <rect id="path-1" x="0" y="0" width="322" height="236"></rect>
        <linearGradient x1="28.4663915%" y1="50%" x2="91.1166668%" y2="50%" id="linearGradient-3">
            <stop stop-color="#D3DCE6" offset="0%"></stop>
            <stop stop-color="#D3DCE6" stop-opacity="0" offset="100%"></stop>
        </linearGradient>
    </defs>
    <g id="BaseApp-Desktop-0.6.x" stroke="none" stroke-width="1" fill="none" fill-rule="evenodd">
        <g id="v0.6.x-03.02-Connect-Ledger-Desktop" transform="translate(-1091.000000, -267.000000)">
            <g id="Group-5" transform="translate(1052.000000, 0.000000)">
                <g id="Group-7" transform="translate(33.000000, 267.000000)">
                    <mask id="mask-2" fill="white">
                        <use xlink:href="#path-1"></use>
                    </mask>
                    <g id="Rectangle"></g>
                    <g id="Group" mask="url(#mask-2)">
                        <g transform="translate(-15.000000, 0.000000)">
                            <polygon id="Rectangle-Copy" fill="#EDF3F7" transform="translate(138.560460, 27.559532) rotate(22.000000) translate(-138.560460, -27.559532) " points="117.390404 6.39115563 159.732139 6.38953291 159.730517 48.7279078 117.388781 48.7295306"></polygon>
                            <polygon id="Rectangle" fill="#EDF3F7" transform="translate(240.104664, 148.007030) rotate(45.000000) translate(-240.104664, -148.007030) " points="204.679226 112.581592 275.534012 112.577683 275.530103 183.432469 204.675316 183.436378"></polygon>
                            <g id="chrome" stroke-width="1" fill="none" transform="translate(101.000000, 25.000000)">
                                <path d="M75.9314286,47.4571429 C91.6589596,47.4571429 104.405714,60.2138022 104.405714,75.9314286 C104.405714,91.6636513 91.6584383,104.405714 75.9314286,104.405714 C60.2132809,104.405714 47.4571429,91.6584383 47.4571429,75.9314286 C47.4571429,60.2138022 60.2138022,47.4571429 75.9314286,47.4571429 Z" id="Path" fill="#26A6D1"></path>
                                <path d="M75.8316144,113.451245 C56.6291994,113.451245 40.7996606,99.2085766 38.276126,80.7233778 L12.1148418,35.4431967 L12.086183,35.3771429 L9.15934143,39.595748 C8.43818268,40.9168252 7.73630346,42.2566264 7.09122071,43.6250335 L5.69163082,46.8923591 C5.22683775,48.0194356 4.76673429,49.160555 4.35404807,50.3250794 C3.889255,51.6175506 3.48594801,52.9245848 3.10192056,54.2363001 L2.25778965,57.2524129 C1.9065895,58.658788 1.60801728,60.0651631 1.33758274,61.4809002 L0.825372445,64.4684071 C0.616423991,65.8555381 0.455413836,67.2338273 0.331920611,68.6115964 L0.0854552278,71.9116889 C0.0239691493,73.1713932 0,74.4258964 0,75.6856007 C0,76.9453051 0.0187584646,78.2044893 0.0854552278,79.4595126 L0.331920611,82.7596051 C0.460103452,84.1373742 0.625803223,85.5250253 0.825372445,86.9027944 L1.33758274,89.8903013 C1.61270689,91.3060384 1.9065895,92.7124135 2.25778965,94.1187886 L3.10192056,97.1349014 C3.4911587,98.4372547 3.889255,99.7531308 4.35404807,101.046122 C4.76673429,102.201285 5.23152736,103.337723 5.69163082,104.478842 C6.14704465,105.567951 6.58317896,106.66174 7.09122071,107.740967 C7.73630346,109.109374 8.43818268,110.439813 9.16403105,111.774933 L10.1082071,113.626522 L10.5448625,114.303704 C11.3796142,115.728803 12.2998211,117.087848 13.2299283,118.446893 L14.719663,120.657877 C15.6164218,121.879614 16.5981148,123.044138 17.5803289,124.218544 L19.5442359,126.566837 C20.3982671,127.499393 21.3137844,128.38982 22.2147118,129.284927 C23.1161602,130.189397 24.0030187,131.117272 24.9425052,131.955168 L27.2951293,133.924821 C28.4717019,134.895345 29.6383741,135.87575 30.862364,136.775019 L33.0586675,138.271373 C34.424909,139.203929 35.7958402,140.122962 37.2094989,140.951495 L37.8832404,141.387347 L39.7330335,142.329785 C41.061237,143.049616 42.3988197,143.764246 43.7697508,144.40346 L44.1636786,144.606822 L46.084858,145.392707 C51.2173824,147.575605 56.5776137,149.119289 62.0425797,150.137143 L83.6971429,112.655478 C81.1590184,113.162585 78.5307491,113.451245 75.8316144,113.451245 Z" id="Path" fill="#3DB39E"></path>
                                <path d="M150.812732,70.2631471 L150.713705,69.0173168 C150.180201,62.7114351 147.588898,53.5836416 145.436738,47.4571429 L100.866121,47.4571429 C108.488637,54.3623503 113.307797,64.3066993 113.307797,75.4077055 C113.307797,87.386444 107.714564,98.0389927 99.0297074,104.953532 L72.48,151 C81.8160526,151 94.3852714,149.315044 103.428908,145.699907 L103.735841,145.600884 L104.217498,145.398171 C107.29979,144.11916 110.3489,142.717277 113.317647,140.99914 C115.974796,139.469719 118.462405,137.752101 120.864986,135.958271 L121.001861,135.849916 C123.314747,134.098599 125.480906,132.234779 127.548556,130.270898 L127.869488,129.992492 L128.912645,128.93071 C133.481385,124.356963 137.404114,119.307281 140.604098,113.860467 L140.967544,113.326984 L141.623406,112.000794 C142.652565,110.13179 143.606027,108.220272 144.474461,106.275574 L145.58813,103.655857 C146.324355,101.810183 146.966218,99.9411781 147.556235,98.0488433 L148.334974,95.6131751 C149.057199,92.9841258 149.647216,90.3317464 150.086358,87.6461864 L150.270414,86.1167651 C150.596012,83.8133011 150.827249,81.495839 150.94546,79.1550468 L150.987974,77.2813761 C151.025304,74.949916 150.978123,72.6044577 150.812732,70.2631471 Z" id="Path" fill="#EFC75E"></path>
                                <path d="M141.508571,37.7661481 C139.918862,35.0244286 138.139429,32.4670481 136.269827,29.9995005 L135.657919,29.2429313 C133.978039,27.0827887 132.198606,25.0311724 130.319622,23.1021027 L129.047854,21.801863 C126.983837,19.7788063 124.843723,17.8590833 122.599366,16.1055252 L122.105774,15.6895939 C119.604979,13.7703902 116.985867,12.0448724 114.285967,10.4657874 L113.744944,10.1064559 L111.69031,9.04300109 C110.504021,8.40482432 109.322424,7.76664756 108.103299,7.19441746 C106.931084,6.65074694 105.750008,6.16834969 104.56841,5.68179833 L101.593308,4.49995104 C100.155793,3.9848401 98.7036848,3.54969598 97.2468853,3.10520508 L94.8268781,2.40575504 C93.2418594,1.9991705 91.6427679,1.67774542 90.0488885,1.3703405 L87.7904584,0.925849609 C86.2341066,0.675563848 84.6777548,0.519265064 83.116712,0.372832316 L80.5591038,0.112680519 C79.2211416,0.0275210484 77.8878704,0.0368678195 76.5400051,0.0181742772 L73.2469606,0 L70.6846614,0.184339098 C65.0190405,0.562364064 59.3534196,1.56921902 53.7878722,3.24748371 L52.6349418,3.55956201 C51.225573,4.01339968 49.8354892,4.56641697 48.4401932,5.11008749 L45.7642688,6.16419557 C44.6160294,6.6512662 43.4818628,7.22297704 42.3430052,7.78586037 C41.2421964,8.3248575 40.1366967,8.86852802 39.0546517,9.46879844 L37.8209328,10.0976284 L35.9987607,11.2701289 C34.9214067,11.9321919 33.8539557,12.6077557 32.8052686,13.3264186 C31.7805574,14.0404081 30.769919,14.7684177 29.7827354,15.5151208 L27.1730055,17.5906233 C26.0956515,18.4889519 25.0474855,19.4013006 24.0269441,20.346363 L22.0911468,22.2276603 C20.9663621,23.3529077 19.8655533,24.4968487 18.8267693,25.6786959 L18.12,26.5297714 L39.7145115,63.8514286 C44.672842,48.7195253 58.9411375,37.7666674 75.7910173,37.7666674 C75.7899748,37.7661481 141.508571,37.7661481 141.508571,37.7661481 Z" id="Path" fill="#E2574C"></path>
                            </g>
                            <path d="M1.7954056,147.733458 C1.55028467,147.103814 1.4291342,146.438439 1.43080694,145.774009 L1.43259202,113.518098 C1.4327564,110.547896 3.84955646,108.139939 6.83066605,108.139775 C9.81177564,108.139612 12.2283092,110.547303 12.2281448,113.517505 L12.2270471,133.35372 L28.0580126,118.534707 C41.160693,105.47343 60.0720117,100.022376 78.1484569,104.096491 C96.2249021,108.170606 110.938433,121.200114 117.120212,138.607772 C118.114544,141.407773 116.642334,144.480989 113.83194,145.471991 C111.021545,146.462993 107.937205,144.996509 106.942873,142.196508 C101.997449,128.270382 90.2266246,117.846776 75.7654685,114.587484 C61.3043123,111.328192 46.1752574,115.689035 35.5716168,126.25543 L20.4558258,140.407183 L39.2155387,140.406153 C42.1966483,140.405989 44.6131819,142.813681 44.6130175,145.783882 C44.6128531,148.754084 42.1960531,151.162041 39.2149435,151.162205 L6.82828504,151.163984 C4.56226158,151.164109 2.62244669,149.772989 1.82228676,147.801096 L1.7954056,147.733458 Z" id="Combined-Shape" fill="url(#linearGradient-3)" opacity="0.680000007" transform="translate(59.430790, 126.967088) scale(-1, 1) rotate(44.000000) translate(-59.430790, -126.967088) "></path>
                        </g>
                    </g>
                </g>
            </g>
        </g>
    </g>
</svg>
