<svg xmlns="http://www.w3.org/2000/svg" xmlns:xlink="http://www.w3.org/1999/xlink" width="64" height="40" viewBox="0 0 64 40">
    <defs>
        <path id="a" d="M20 12h24a4 4 0 0 1 4 4v32a4 4 0 0 1-4 4H20a4 4 0 0 1-4-4V16a4 4 0 0 1 4-4zm26 4a2.002 2.002 0 0 0-2-2H20a2.002 2.002 0 0 0-2 2v32a2.002 2.002 0 0 0 2 2h24a2.002 2.002 0 0 0 2-2V16zM25 26a7 7 0 1 1 14 0 7 7 0 0 1-14 0zm12 0a5 5 0 1 0-10 0 5 5 0 0 0 10 0zM26 40a1 1 0 0 1 0-2h12a1 1 0 1 1 0 2H26zm-3 5a1 1 0 0 1 0-2h18a1 1 0 1 1 0 2H23zM0 17h7.091a4.91 4.91 0 0 1 4.91 4.909V42.09A4.91 4.91 0 0 1 7.09 47H.001v-2h7.09a2.912 2.912 0 0 0 2.91-2.91V21.91a2.913 2.913 0 0 0-2.91-2.91H.001v-2zm64 28v2h-7.092A4.908 4.908 0 0 1 52 42.091V21.908A4.908 4.908 0 0 1 56.908 17H64v2h-7.092A2.911 2.911 0 0 0 54 21.908v20.183a2.913 2.913 0 0 0 2.908 2.91H64z"/>
    </defs>
    <use fill="#F7296E" fill-rule="evenodd" transform="translate(0 -12)" xlink:href="#a"/>
</svg>
