<svg xmlns="http://www.w3.org/2000/svg" width="32" height="32" viewBox="0 0 32 32">
  <defs>
    <linearGradient id="blockchain-explorer-a" x1="50%" x2="50%" y1="0%" y2="100%">
      <stop offset="0%" stop-color="#FF0D6A"/>
      <stop offset="100%" stop-color="#B02C87"/>
      <stop offset="100%" stop-color="#6948A1"/>
    </linearGradient>
  </defs>
  <g fill="none" fill-rule="evenodd">
    <path fill="url(#blockchain-explorer-a)" d="M11.0756889,0 L20.6924271,0 C23.8816812,0 25.4759111,0 27.192713,0.542705314 C29.0670319,1.2249256 30.5431903,2.70108406 31.2254106,4.5754029 C31.7681159,6.2919401 31.7681159,7.88669952 31.7681159,11.0756889 L31.7681159,20.6924271 C31.7681159,23.8816812 31.7681159,25.4759111 31.2254106,27.192713 C30.5431903,29.0670319 29.0670319,30.5431903 27.192713,31.2251459 C25.4759111,31.7681159 23.8816812,31.7681159 20.6924271,31.7681159 L11.0756889,31.7681159 C7.88643478,31.7681159 6.2919401,31.7681159 4.5754029,31.2251459 C2.70108406,30.5431903 1.2249256,29.0670319 0.542705314,27.192713 C0,25.4759111 0,23.8816812 0,20.6924271 L0,11.0756889 C0,7.88669952 0,6.2919401 0.542705314,4.5754029 C1.2249256,2.70108406 2.70108406,1.2249256 4.5754029,0.542705314 C6.2919401,0 7.88643478,0 11.0756889,0 L11.0756889,0"/>
    <path fill="#FFF" fill-rule="nonzero" d="M16.75,17.75 L16.75,23.886658 L22.886658,23.886658 L22.886658,17.75 L16.75,17.75 Z M24.386658,17 L24.386658,24.636658 C24.386658,25.0508716 24.0508716,25.386658 23.636658,25.386658 L16,25.386658 C15.5857864,25.386658 15.25,25.0508716 15.25,24.636658 L15.25,17 C15.25,16.5857864 15.5857864,16.25 16,16.25 L23.636658,16.25 C24.0508716,16.25 24.386658,16.5857864 24.386658,17 Z"/>
    <path fill="#FFF" fill-rule="nonzero" d="M7.75,7.75 L7.75,11.886658 L11.886658,11.886658 L11.886658,7.75 L7.75,7.75 Z M13.386658,7 L13.386658,12.636658 C13.386658,13.0508716 13.0508716,13.386658 12.636658,13.386658 L7,13.386658 C6.58578644,13.386658 6.25,13.0508716 6.25,12.636658 L6.25,7 C6.25,6.58578644 6.58578644,6.25 7,6.25 L12.636658,6.25 C13.0508716,6.25 13.386658,6.58578644 13.386658,7 Z" transform="rotate(45 9.818 9.818)"/>
  </g>
</svg>
