<?xml version="1.0" encoding="UTF-8"?>
<!-- Generator: Adobe Illustrator 22.0.1, SVG Export Plug-In . SVG Version: 6.00 Build 0)  -->
<svg version="1.1" viewBox="0 0 524.73 524.73" xml:space="preserve" xmlns="http://www.w3.org/2000/svg" xmlns:cc="http://creativecommons.org/ns#" xmlns:dc="http://purl.org/dc/elements/1.1/" xmlns:rdf="http://www.w3.org/1999/02/22-rdf-syntax-ns#"><metadata><rdf:RDF><cc:Work rdf:about=""><dc:format>image/svg+xml</dc:format><dc:type rdf:resource="http://purl.org/dc/dcmitype/StillImage"/><dc:title/></cc:Work></rdf:RDF></metadata>

<g><path d="m507.84 438.18h-43.232v-49.199h43.232z" fill="#63f"/><path d="m507.84 388.98h-43.229v-49.472h43.229z" fill="#09f"/><path d="m507.84 339.51h-43.229v-49.199h43.229z" fill="#3f0"/><path d="m464.61 240.91h43.229v49.404h-43.229z" fill="#ff0"/><path d="m507.84 191.47h-43.228v49.435h43.228z" fill="#f90"/><path d="m507.84 191.47h-43.232v-49.161h43.232z" fill="#f00"/><path d="m464.61 457.89h-43.229v-49.199h43.229z" fill="#63f"/><path d="m464.61 408.7h-43.229v-49.301h43.229z" fill="#09f"/><path d="m464.61 359.4h-43.229v-49.37h43.229z" fill="#3f0"/><path d="m421.38 260.48h43.229v49.541h-43.229z" fill="#ff0"/><path d="m464.61 211.19h-43.229v49.435h43.229z" fill="#f90"/><path d="m464.61 211.19h-43.229v-49.13h43.229z" fill="#f00"/><path d="m421.38 438.2h-43.229v-49.472h43.229z" fill="#63f"/><path d="m421.38 388.73h-43.229v-49.199h43.229z" fill="#09f"/><path d="m421.38 339.53h-43.226v-49.199h43.226z" fill="#3f0"/><path d="m378.16 240.72h43.226v49.61h-43.226z" fill="#ff0"/><path d="m421.38 191.52h-43.226v49.199h43.226z" fill="#f90"/><path d="m421.38 191.52h-43.226v-49.199h43.226z" fill="#f00"/><path d="m378.15 418.6h-43.358v-49.741h43.358z" fill="#63f"/><path d="m378.15 368.86h-43.358v-49.398h43.358z" fill="#09f"/><path d="m378.15 319.46h-43.358v-48.866h43.358z" fill="#3f0"/><path d="m334.79 221.01h43.36v49.588h-43.36z" fill="#ff0"/><path d="m378.16 171.79h-43.36v49.22h43.36z" fill="#f90"/><path d="m378.15 171.79h-43.358v-49.199h43.358z" fill="#f00"/><path d="m334.79 398.18h-43.1v-49.266h43.1z" fill="#63f"/><path d="m334.79 348.92h-43.1v-48.993h43.1z" fill="#09f"/><path d="m334.79 299.92h-43.1v-49.061h43.1z" fill="#3f0"/><path d="m291.69 201.39h43.1v49.472h-43.1z" fill="#ff0"/><path d="m334.79 151.82h-43.1v49.574h43.1z" fill="#f90"/><path d="m334.79 151.82h-43.1v-48.959h43.1z" fill="#f00"/><path d="m291.69 418.52h-43.229v-49.19h43.229z" fill="#63f"/><path d="m291.69 369.33h-43.229v-49.463h43.229z" fill="#09f"/><path d="m291.69 319.86h-43.229v-49.266h43.229z" fill="#3f0"/><path d="m248.47 221.26h43.229v49.335h-43.229z" fill="#ff0"/><path d="m291.69 171.85h-43.229v49.412h43.229z" fill="#f90"/><path d="m291.69 171.85h-43.229v-49.271h43.229z" fill="#f00"/><path d="m248.47 438.18h-43.358v-49.199h43.358z" fill="#63f"/><path d="m248.47 388.98h-43.358v-49.472h43.358z" fill="#09f"/><path d="m248.47 339.51h-43.358v-49.199h43.358z" fill="#3f0"/><path d="m205.11 241.05h43.358v49.266h-43.358z" fill="#ff0"/><path d="m248.47 191.47h-43.358v49.574h43.358z" fill="#f90"/><path d="m248.47 191.47h-43.358v-49.161h43.358z" fill="#f00"/><path d="m205.17 458.05h-38.852v-49.199h38.852z" fill="#63f"/><path d="m205.11 408.85h-38.794v-49.472h38.794z" fill="#09f"/><path d="m205.11 359.38h-38.794v-49.199h38.794z" fill="#3f0"/><path d="m166.31 260.64h38.794v49.541h-38.794z" fill="#ff0"/><path d="m205.16 211.54h-38.849v49.232h38.849z" fill="#f90"/><path d="m205.11 211.54h-38.794v-49.496h38.794z" fill="#f00"/></g><g transform="matrix(1.9401 0 0 1.9401 -399.6 -186.58)" style="">
	<path d="m298.3 350.4h-84.5v8.5h84.5zm-42.3-218.4c-3.9 0-7-3.1-7-7s3.1-7 7-7 7 3.1 7 7-3.1 7-7 7m-42.3 30.9h84.5v-8.5h-38v-8.2h16.9v-42.3h-42.3v42.3h16.9v8.2h-38zm74.9 121.6h-32.3v-32.3h32.3zm-32.9-32.9h-32.3v-32.3h32.3zm42.6-79.7h-84.5v168.9h84.5z"/>
</g></svg>
