<svg xmlns="http://www.w3.org/2000/svg" xmlns:xlink="http://www.w3.org/1999/xlink" width="48" height="44" viewBox="0 0 48 44">
    <defs>
        <path id="a" d="M29 42a4 4 0 0 1 4 4v4a4 4 0 0 1-4 4H12a4 4 0 0 1-4-4v-4a4 4 0 0 1 4-4h17zm0 2H12a2.002 2.002 0 0 0-2 2v4a2.003 2.003 0 0 0 2 2h17a2.003 2.003 0 0 0 2-2v-4a2.002 2.002 0 0 0-2-2zm-2 5H14a1 1 0 0 1 0-2h13a1 1 0 1 1 0 2zm25-23a4 4 0 0 1 4 4v4a4 4 0 0 1-4 4H28a4 4 0 0 1-4-4v-4a4 4 0 0 1 4-4h24zm0 2H28a2.002 2.002 0 0 0-2 2v4a2.002 2.002 0 0 0 2 2h24a2.002 2.002 0 0 0 2-2v-4a2.002 2.002 0 0 0-2-2zm-3 5H31a1 1 0 0 1 0-2h18a1 1 0 1 1 0 2zM39 10a4 4 0 0 1 4 4v4a4 4 0 0 1-4 4H12a4 4 0 0 1-4-4v-4a4 4 0 0 1 4-4h27zm0 2H12a2.002 2.002 0 0 0-2 2v4a2.002 2.002 0 0 0 2 2h27a2.002 2.002 0 0 0 2-2v-4a2.002 2.002 0 0 0-2-2zm-25 5a1 1 0 0 1 0-2h23a1 1 0 1 1 0 2H14z"/>
    </defs>
    <use fill="#F7296E" fill-rule="evenodd" transform="translate(-8 -10)" xlink:href="#a"/>
</svg>
