<svg xmlns="http://www.w3.org/2000/svg" xmlns:xlink="http://www.w3.org/1999/xlink" width="39" height="39" viewBox="0 0 39 39">
    <defs>
        <path id="a" d="M51.593 50.198a.999.999 0 1 1-1.414 1.414l-9.654-9.654a16.56 16.56 0 0 1-14.746 3.717C16.88 43.588 11.354 34.68 13.44 25.78c2.087-8.902 10.995-14.426 19.896-12.34 8.901 2.088 14.425 10.995 12.338 19.896a1 1 0 1 1-1.949-.45 14.448 14.448 0 0 0-3.435-13.025c-5.396-5.878-14.537-6.27-20.416-.872-5.879 5.397-6.269 14.538-.872 20.416 5.397 5.879 14.537 6.27 20.416.873.051-.038.105-.07.161-.098a.992.992 0 0 1 .225-.357v-.001a1 1 0 0 1 1.414 0l10.375 10.376zM23.315 37.33a1 1 0 0 1-.707-1.707l12.993-12.995a1 1 0 1 1 1.414 1.414L24.022 37.038a.997.997 0 0 1-.707.293zm9.698-1.761a1.001 1.001 0 0 1-.707-1.708l5.583-5.583a1 1 0 1 1 1.414 1.415l-5.583 5.583a.997.997 0 0 1-.707.293zm-5.23-9.314l-4.868 4.868A.999.999 0 1 1 21.5 29.71l4.868-4.868a1 1 0 0 1 1.414 1.414z"/>
    </defs>
    <use fill="#311B58" fill-rule="evenodd" transform="translate(-13 -13)" xlink:href="#a"/>
</svg>
