<svg xmlns="http://www.w3.org/2000/svg" xmlns:xlink="http://www.w3.org/1999/xlink" width="38" height="38" viewBox="0 0 38 38">
    <defs>
        <path id="a" d="M49.306 28.33c-.715-.106-1.448-.209-2.18-.305a.214.214 0 0 1-.183-.153 15.47 15.47 0 0 0-1.457-3.518.217.217 0 0 1 .02-.239c.45-.585.897-1.177 1.327-1.757a2.005 2.005 0 0 0-.196-2.592l-2.401-2.402a2.005 2.005 0 0 0-2.592-.196c-.58.43-1.171.876-1.757 1.327a.217.217 0 0 1-.24.021 15.414 15.414 0 0 0-3.517-1.458.214.214 0 0 1-.153-.184c-.095-.733-.2-1.466-.306-2.18A2.002 2.002 0 0 0 33.7 13h-3.398c-.98 0-1.826.727-1.971 1.694-.107.714-.21 1.447-.306 2.18a.214.214 0 0 1-.153.183c-1.226.338-2.41.828-3.516 1.458a.217.217 0 0 1-.24-.021c-.586-.451-1.178-.898-1.757-1.327a2.005 2.005 0 0 0-2.592.196l-2.401 2.401a2.005 2.005 0 0 0-.196 2.592c.43.582.877 1.174 1.327 1.758a.217.217 0 0 1 .02.239 15.441 15.441 0 0 0-1.457 3.518.216.216 0 0 1-.183.152c-.732.095-1.465.2-2.18.306a2.002 2.002 0 0 0-1.694 1.971v3.398c0 .98.727 1.826 1.694 1.971.715.107 1.448.21 2.18.306.09.012.16.071.183.153a15.47 15.47 0 0 0 1.457 3.518.217.217 0 0 1-.02.24c-.452.584-.897 1.176-1.327 1.757-.58.785-.496 1.9.196 2.591l2.401 2.402a2.005 2.005 0 0 0 2.592.196c.58-.429 1.171-.876 1.758-1.327a.217.217 0 0 1 .239-.02c1.107.628 2.29 1.118 3.517 1.457a.214.214 0 0 1 .153.182c.095.734.2 1.467.306 2.18A2.002 2.002 0 0 0 30.303 51h3.398c.98 0 1.826-.73 1.971-1.694.107-.714.21-1.447.306-2.18a.218.218 0 0 1 .153-.185 15.402 15.402 0 0 0 3.517-1.457.217.217 0 0 1 .239.02c.586.452 1.178.898 1.757 1.327.785.58 1.9.496 2.592-.195l2.401-2.402a2.005 2.005 0 0 0 .196-2.592c-.43-.582-.875-1.173-1.327-1.757a.217.217 0 0 1-.02-.24 15.43 15.43 0 0 0 1.457-3.516.214.214 0 0 1 .184-.153c.732-.095 1.465-.199 2.18-.306a2.002 2.002 0 0 0 1.694-1.97V30.3c0-.98-.728-1.825-1.693-1.97h-.002zm-.081 5.368a.22.22 0 0 1-.183.217c-.703.105-1.426.206-2.148.3a1.984 1.984 0 0 0-1.664 1.441 13.713 13.713 0 0 1-1.29 3.113 1.987 1.987 0 0 0 .158 2.198c.444.576.883 1.16 1.306 1.731a.22.22 0 0 1-.024.282l-2.402 2.402a.219.219 0 0 1-.282.024 112.65 112.65 0 0 1-1.73-1.307 1.987 1.987 0 0 0-2.197-.157c-.98.557-2.028.99-3.113 1.29a1.984 1.984 0 0 0-1.441 1.664c-.094.721-.196 1.444-.3 2.148a.218.218 0 0 1-.217.182H30.3a.22.22 0 0 1-.216-.182c-.106-.702-.207-1.425-.3-2.147a1.984 1.984 0 0 0-1.441-1.664 13.713 13.713 0 0 1-3.113-1.29 1.997 1.997 0 0 0-2.198.157c-.578.445-1.161.885-1.731 1.307a.22.22 0 0 1-.282-.024l-2.402-2.401a.219.219 0 0 1-.024-.282c.423-.572.863-1.155 1.306-1.731.492-.639.553-1.501.158-2.197-.557-.98-.99-2.028-1.29-3.113a1.984 1.984 0 0 0-1.664-1.441c-.721-.094-1.443-.196-2.148-.3a.218.218 0 0 1-.183-.217v-3.397c0-.107.08-.2.183-.217.704-.106 1.427-.207 2.146-.3a1.984 1.984 0 0 0 1.664-1.441 13.646 13.646 0 0 1 1.29-3.113 1.987 1.987 0 0 0-.157-2.197 125.99 125.99 0 0 1-1.306-1.73.22.22 0 0 1 .023-.283l2.402-2.402a.219.219 0 0 1 .282-.023c.572.423 1.154.862 1.731 1.306.638.491 1.5.552 2.197.157.98-.556 2.027-.99 3.113-1.29a1.984 1.984 0 0 0 1.44-1.664c.096-.721.197-1.444.3-2.147a.216.216 0 0 1 .217-.182h3.398c.107 0 .2.08.217.183.105.702.206 1.425.3 2.146.104.8.67 1.452 1.441 1.664 1.085.3 2.132.734 3.113 1.29a1.987 1.987 0 0 0 2.197-.157c.577-.444 1.16-.885 1.73-1.306a.22.22 0 0 1 .283.023l2.401 2.402a.219.219 0 0 1 .024.282c-.423.573-.862 1.155-1.306 1.731a1.987 1.987 0 0 0-.158 2.197c.557.98.99 2.028 1.29 3.113a1.986 1.986 0 0 0 1.664 1.441c.722.095 1.443.196 2.148.3a.218.218 0 0 1 .183.217V33.7l.003-.003zM32 21.713c-5.67 0-10.287 4.617-10.287 10.287 0 5.67 4.617 10.285 10.287 10.285 5.67 0 10.285-4.616 10.285-10.285 0-5.67-4.616-10.287-10.285-10.287zm0 1.856A8.416 8.416 0 0 1 40.43 32 8.416 8.416 0 0 1 32 40.43 8.417 8.417 0 0 1 23.569 32 8.417 8.417 0 0 1 32 23.57z"/>
    </defs>
    <use fill="#F7296E" fill-rule="evenodd" transform="translate(-13 -13)" xlink:href="#a"/>
</svg>
