<svg xmlns="http://www.w3.org/2000/svg" xmlns:xlink="http://www.w3.org/1999/xlink" width="46" height="22" viewBox="0 0 46 22">
    <defs>
        <path id="a" d="M44.024 21.018a10.995 10.995 0 0 0-10.95 10h-2.1c-.548-6.056-5.901-10.52-11.956-9.973-6.055.548-10.52 5.9-9.973 11.955.548 6.055 5.9 10.52 11.956 9.973a11.008 11.008 0 0 0 9.598-7.955h-2.1c-1.664 4.675-6.804 7.116-11.48 5.452a8.987 8.987 0 1 1 11.946-9.452h-8.941a1 1 0 1 0 0 2h13.05c.554 6.048 5.906 10.503 11.955 9.95 6.049-.554 10.503-5.906 9.949-11.955a10.996 10.996 0 0 0-10.954-9.995m-1.414 12l-2.293 2.293a1 1 0 0 0 1.414 1.414l4-4a1 1 0 0 0 0-1.415l-4-4a1 1 0 0 0-1.414 1.415l2.293 2.293h-7.527a8.997 8.997 0 0 1 9.944-7.94 8.998 8.998 0 0 1-1.003 17.94 9.01 9.01 0 0 1-8.941-8h7.527z"/>
    </defs>
    <use fill="#F7296E" fill-rule="evenodd" transform="translate(-9 -21)" xlink:href="#a"/>
</svg>
