<svg xmlns="http://www.w3.org/2000/svg" xmlns:xlink="http://www.w3.org/1999/xlink" width="40" height="48" viewBox="0 0 40 48">
    <defs>
        <path id="a" d="M33.026 50H17.858A3.859 3.859 0 0 1 14 46.142V13.857A3.858 3.858 0 0 1 17.858 10h23.484a3.857 3.857 0 0 1 3.858 3.857v23.505a.933.933 0 0 0 .703.916l.102.025a.953.953 0 0 0 1.195-.913V13.857A5.858 5.858 0 0 0 41.342 8H17.858A5.858 5.858 0 0 0 12 13.857v32.285A5.858 5.858 0 0 0 17.858 52h15.23a.955.955 0 0 0 .9-1.238l-.021-.075a.967.967 0 0 0-.941-.687M43.6 40a8 8 0 1 0 0 16 8 8 0 0 0 0-16m0 2a6 6 0 1 1 0 12 6 6 0 0 1 0-12zm3 5h-2v-2a1 1 0 1 0-2 0v2h-2a1 1 0 1 0 0 2h2v2a1 1 0 1 0 2 0v-2h2a1 1 0 1 0 0-2zm-14-15h-14a1 1 0 0 1 0-2h14a1 1 0 1 1 0 2zm8-6h-22a1 1 0 0 1 0-2h22a1 1 0 1 1 0 2zm0-6h-22a1 1 0 0 1 0-2h22a1 1 0 1 1 0 2z"/>
    </defs>
    <use fill="#311B58" fill-rule="evenodd" transform="translate(-12 -8)" xlink:href="#a"/>
</svg>
